<?xml version="1.0" encoding="UTF-8"?>
<svg id="Camada_2" data-name="Camada 2" xmlns="http://www.w3.org/2000/svg" viewBox="0 0 1369.96 195.83">
  <defs>
    <style>
      .cls-1 {
        opacity: .6;
      }

      .cls-1, .cls-2 {
        fill: #4d517b;
      }
    </style>
  </defs>
  <g id="Camada_1-2" data-name="Camada 1">
    <path class="cls-2" d="M.18,40c27.94,5.23,55.89,11.04,83.83,16.86,95.42,19.85,190.84,39.71,286.26,43.02,95.42,3.31,190.84-9.93,286.26-6.62,95.42,3.31,190.84,23.16,286.26,29.78,95.42,6.62,190.84,0,286.26-16.54,46.97-8.14,93.94-18.69,140.91-28.09v117.44H.18V40Z"/>
    <path class="cls-1" d="M0,0C27.94,5.23,55.89,11.04,83.83,16.86c95.42,19.85,190.84,39.71,286.26,43.02,95.42,3.31,190.84-9.93,286.26-6.62,95.42,3.31,190.84,23.16,286.26,29.78,95.42,6.62,190.84,0,286.26-16.54,46.97-8.14,93.94-18.69,140.91-28.09v117.44H0V0Z"/>
  </g>
</svg>