<?xml version="1.0" encoding="UTF-8"?>
<svg id="Camada_2" data-name="Camada 2" xmlns="http://www.w3.org/2000/svg" viewBox="0 0 211.21 60.05">
  <defs>
    <style>
      .cls-1 {
        fill: #455a64;
      }
    </style>
  </defs>
  <g id="Camada_1-2" data-name="Camada 1">
    <g id="freepik--Clouds--inject-94">
      <path id="freepik--Cloud--inject-94" class="cls-1" d="M106.01,.14c-2.8,.39-5.45,1.52-7.68,3.26-3,2.31-5.91,5.78-9.94,6.1-2.92,.24-6.23,.81-7.66,3.69-.3,.6-.28,2.54-1,2.74s-2.37-1-3.18-1.18c-2.62-.25-5.26-.11-7.84,.43-2.43,.38-4.59,1.73-6,3.74-.68,1-1.29,2.27-2.47,2.56-.68,.09-1.37,0-2-.26-2.24-.9-4.6-1.45-7-1.63-2.4,0-5,1.11-5.94,3.32-.14,.31-.29,.68-.61,.76s-.63-.19-.88-.41c-1.75-1.55-4.15-2.14-6.42-1.57-.74,.15-1.41,.54-1.91,1.11-.66,.85-.65,2.07-1.31,2.93-1.13,1.48-3.43,1.07-5.24,.59-2.4-.63-5.2-1-7.16,.49-.53,.42-1,.95-1.52,1.33-1.5,1-3.49,.75-5.31,.6-1.19-.09-15.15,.61-14.94,1.82s3.73,.91,4.51,1c1.17,.08,2.31,.33,3.49,.35s2.46-.26,3.55,.21c.72,.31,1.2,.95,2,1.19,1.87,.43,3.82,.24,5.57-.54,2.07-.76,4.28-2,6.55-2,1.14,0,2,.72,3.06,1.1,2.05,.64,4.24,.64,6.29,0,1.18-.33,3-1.25,4.32-.92,.74,.18,1.53,.92,2.29,1.19,.99,.36,2.02,.61,3.07,.75,3.74,.48,7.37-1.69,10.87-2.64,3.28-.9,7.16-.94,9.64,1.37,.88,.82,1.52,1.87,2.35,2.74,3,3.1,7.78,3.25,12,4.08,3.52,.7,6.68,3,10.07,3.67,2.8,.51,5.16-.86,7.53-2.11,2-1,4-1.24,6-2.16,.89-.58,1.64-1.34,2.23-2.22,2.22-2.36,5.71-3.04,8.65-1.68,1.68,.81,3,2.22,4.54,3.25,3.86,2.54,7.84,2.33,11.6,.19,1.77-.88,3.68-1.46,5.65-1.7,3.95-.69,8.18,.1,11.78-1.3,5.8-2.25,9.43-.36,15.39-.15,3.32,.12,6.54-1,9.67-2.12,1.88-.67,9.36-2,10.23-3.69,.31-.65,.09-1.42-.51-1.81-.31-.16-.65-.25-1-.28-4.29-.43-8.36,1.51-12.62,1.35-3-.11-5.32-2.1-8.25-1.43-1.79,.41-3.4,1.45-5.18,1.91-3.28,.67-6.68-.22-9.22-2.41-2.47-2.14-4.47-4.77-5.87-7.72-1.31-2.5-3.33-5.55-6.08-4.92-1.59,.37-2.66,1.93-4.22,2.42-3,1-5.55-2.36-6.83-5.24C120.01,3.16,112.98-.8,106.01,.14Z"/>
      <path id="freepik--cloud--inject-94" class="cls-1" d="M171.56,42.94c-.11,.07-.22,.13-.34,.18-1.82,.86-3.95,.18-6,.22-1.95,.04-3.82,.79-5.27,2.09-.86,.78-1.54,1.73-2.37,2.54-2.16,2.08-5.15,3.09-8.13,2.73-.92-.18-1.86-.31-2.8-.37-2.37,0-4.41,1.58-6.66,2.29-5,1.56-10.38-1.12-15.48-.13-2.85,.56-5.41,2.23-8.28,2.63-1.77,.25-3.61,0-5.36,.43,0,1,3.8,1.26,4.64,1.29,1.93,.09,3.86-.21,5.68-.88,1.12-.5,2.27-.93,3.44-1.3,2.9-.71,5.83,.36,8.42,1.63,1.09,.4,2.21,.7,3.36,.88,1.51,.41,2.93,1.15,4.44,1.58,2.83,.97,5.9,1.01,8.76,.13,1.69-.62,3.2-1.7,4.94-2.17,2.92-.78,6,.28,8.71,1.67,1.65,.86,3.4,1.89,5.25,1.63,2.59-.36,4.19-3,6.56-4.15,3.13-1.47,7-.29,10,.9,1.7,.74,3.45,1.33,5.25,1.77,1.8,.46,3.69,.46,5.49,0,1.3-.54,2.64-.99,4-1.35,1.64-.25,3.33,.26,5,0,.58-.1,1.15-.24,1.7-.44,1.37-.49,2.81-.72,4.26-.7,.13,.02,.25-.02,.35-.1,.08-.09,.11-.21,.08-.33-.09-.35-.35-.62-.7-.72-.32-.09-.66-.13-1-.1-2.16,.06-4.31,.19-6.46,.4-1.93,.1-3.86-.14-5.71-.72-1.37-.37-2.64-.92-4-1.18-1.24-.38-2.31-1.2-3-2.3-1.14-1.44-2.36-3.28-4.38-3.4-.39,.03-.79-.02-1.16-.15-.52-.27-.68-.92-.85-1.49-.9-2.47-2.68-4.52-5-5.76-1.58-.93-3.59-.68-4.9,.6-.75,.8-1.58,1.52-2.48,2.15Z"/>
    </g>
  </g>
</svg>