<?xml version="1.0" encoding="UTF-8"?>
<svg id="Camada_2" data-name="Camada 2" xmlns="http://www.w3.org/2000/svg" viewBox="0 0 96.4 110.93">
  <defs>
    <style>
      .cls-1 {
        fill: #fff;
        isolation: isolate;
        opacity: .8;
      }

      .cls-2 {
        fill: #5d9da6;
      }

      .cls-3 {
        opacity: .25;
      }

      .cls-4 {
        fill: #263238;
      }
    </style>
  </defs>
  <g id="Camada_1-2" data-name="Camada 1">
    <g id="freepik--ghost--inject-94">
      <g class="cls-3">
        <path class="cls-2" d="M64.35,57.29c-1.42,1.24-3.47,1.9-4.63,3.43-1.46,1.93-1,4.87-2.69,6.64-1.88,2-5.3,1.06-7.34-.13s-3.88-2.88-6.16-3.57c-3.62-1.1-7.45,.5-11.23,.65-3.11,.12-6.12-.52-9.24-.48-1.8-.05-3.59,.14-5.34,.55-1.76,.41-3.3,1.49-4.3,3-1.3,2.23-.87,5.22-2.36,7.33-.96,1.05-2.01,2.01-3.15,2.86-1.8,1.67-2.7,4.1-2.42,6.54,.31,2.5,2.24,4.52,3.88,6.28,2,2.18,4.12,5.05,3.19,7.88-.61,1.87-2.42,3.17-3,5.05-.91,2.89-.11,7.11,3.82,7.61-2.5-1.08-3.81-3.85-3.06-6.47,.67-2.08,2.56-3.55,3.47-5.53,1.3-2.82,.44-6.09,.12-9.17s.35-6.85,3.21-8c2.26-1,4.9,.16,7.28-.41,2.91-.71,4.84-3.78,7.79-4.33,3.56-.66,6.5,2.54,9.43,4.67,3.98,2.85,8.91,4.03,13.75,3.29,4-.63,7.6-2.52,11.53-3.21,5.55-1,11.91,.31,16.33-3.17,4-3.14,4.64-8.81,7-13.31,1.39-2.68,3.42-5,4.7-7.73,2.6-5.59,1.63-12.5-1.88-17.57-2.16-3.1-5.31-5.91-5.5-9.68-.15-2.94,1.61-5.75,1.31-8.68-.32-3.1-2.9-5.52-5.66-7s-5.85-2.24-8.54-3.82c-3.79-2.22-6.59-5.86-10.33-8.18C60.76,.46,56.55-.41,52.41,.18c-1.02,.13-2.01,.47-2.89,1-2.85,1.83-2.84,6-4.87,8.76-1.35,1.8-3.51,2.82-4.94,4.55-3,3.66-1.54,9.86,2.54,12.28,1.93,1.14,4.45,1.75,5.38,3.79,.57,1.25,.36,2.69,.59,4,.58,3.34,3.76,5.55,6.84,7s6.37,2.44,8.44,5.54c1.59,2.36,3.51,6.34,1.85,9.1-.28,.41-.61,.78-1,1.09Z"/>
        <path class="cls-2" d="M9.51,73.67c-.71,.87-1.53,1.64-2.45,2.29-1.33,1.06-2.41,2.39-3.17,3.91-.76,1.53-.96,3.28-.57,4.94,.23,.87,.65,1.69,.86,2.56,.07,.43,.18,.86,.31,1.28,.7,1.73,3,2.07,4.37,3.29,.86,.76,1.37,1.85,1.4,3-.35-1.2-1.22-2.18-2.37-2.66-1.09-.56-2.3-.88-3.38-1.47-1.13-.52-1.95-1.54-2.23-2.75-.06-.5,0-1-.08-1.51-.26-1.29-1.61-2.09-2-3.33-.14-.5-.19-1.02-.17-1.54-.11-1.15,.08-2.32,.54-3.38,1.06-2,3.73-2.49,5-4.3s.93-4,1.36-6c.41-1.9,1.47-3.6,3-4.81,.79-.62,2-1.08,2.74-.42s.59,2.12,.19,3-1,1.54-1.47,2.34c-1.04,1.74-.73,3.88-1.88,5.56Z"/>
        <path class="cls-2" d="M62.03,56.9c-1,.68-2.22,.91-3.09,1.71-1.78,1.64-1.14,4.75-2.64,6.65-1.29,1.51-3.54,1.72-5.09,.49,1.64,.56,3.41-.32,3.97-1.96,.05-.14,.08-.28,.11-.42,.01-.88-.05-1.77-.18-2.64-.03-1.52,.65-2.97,1.85-3.91,1.48-1.15,3.63-1.42,4.74-2.93,.69-1.07,.88-2.4,.51-3.62-.37-1.2-.92-2.35-1.62-3.39,.22,.37,1,.71,1.3,1,.37,.39,.7,.81,1,1.26,1.48,2.27,1.45,6.15-.86,7.76Z"/>
        <path class="cls-2" d="M89.42,27.48c-.54,1.12-.82,2.36-.8,3.61,.16,1.63,1.36,2.95,2.51,4.13-.4-1.2-.45-2.49-.15-3.72,.18-.73,.48-1.41,.67-2.13,.24-.89,.31-1.82,.21-2.74-.16-1.45-.51-2.85-2.05-3.41,.21,1.25,.14,2.53-.21,3.74l-.18,.52Z"/>
      </g>
      <path class="cls-2" d="M88.29,45.76c-1.11-5.78-2.98-11.38-5.56-16.67h0c3.29-6,2.8-14.44,.95-18-2.13-4.05-4.71-3.07-4.11-.78,.78,2.95,1,7.85-2.13,10-1.62-2.22-3.42-4.3-5.4-6.21-9.07-8.71-17-7.91-21.37-4.16-5.09,4.37-4.76,11.85,1.06,18.63,1.83,2.12,3.91,4.38,6,6.68h0c-1.9,1.83-6,2.77-10.5,.5-2.12-1-3.59,1.35,0,4.18,3.14,2.49,9.77,4.43,16.32,2.32,1.95,2.44,3.46,5.21,4.46,8.18,3.1,10.81-1.65,18.76-10.28,20.53-10.23,2.1-21-4.82-31.76-3.3s-17.68,13.15-14.83,21.88c-.45-6.53,5.72-17.14,15.76-17.72,13-.76,16.47,12.09,38.49,7.58,20.69-4.22,24.93-23.11,22.9-33.64Z"/>
      <path class="cls-1" d="M88.29,45.76c-1.11-5.78-2.98-11.38-5.56-16.67h0c3.29-6,2.8-14.44,.95-18-2.13-4.05-4.71-3.07-4.11-.78,.78,2.95,1,7.85-2.13,10-1.62-2.22-3.42-4.3-5.4-6.21-9.07-8.71-17-7.91-21.37-4.16-5.09,4.37-4.76,11.85,1.06,18.63,1.83,2.12,3.91,4.38,6,6.68h0c-1.9,1.83-6,2.77-10.5,.5-2.12-1-3.59,1.35,0,4.18,3.14,2.49,9.77,4.43,16.32,2.32,1.95,2.44,3.46,5.21,4.46,8.18,3.1,10.81-1.65,18.76-10.28,20.53-10.23,2.1-21-4.82-31.76-3.3s-17.68,13.15-14.83,21.88c-.45-6.53,5.72-17.14,15.76-17.72,13-.76,16.47,12.09,38.49,7.58,20.69-4.22,24.93-23.11,22.9-33.64Z"/>
      <path class="cls-4" d="M59.66,21.36c.55,1.23,.29,2.54-.57,2.92s-2-.3-2.55-1.52-.36-3.18,.5-3.56,2.08,.94,2.62,2.16Z"/>
      <path class="cls-4" d="M67.23,15.03c1.07,.82,1.47,2.08,.9,2.83s-1.91,.7-3-.11-2.21-2.54-1.64-3.29,2.67-.24,3.74,.57Z"/>
      <path class="cls-4" d="M66.19,22.94c-2.85,2-3.06,6.07-2.27,8.74,.5,1.71,2.23,1.9,2.27,0s1.08-4.6,2.5-5.49c1.7-1.06,4.36-.45,5.6,.35s2.69,.33,1.41-1.45c-1.45-2.01-6.67-4.19-9.51-2.15Z"/>
    </g>
  </g>
</svg>