<?xml version="1.0" encoding="UTF-8"?>
<svg id="Camada_2" data-name="Camada 2" xmlns="http://www.w3.org/2000/svg" viewBox="0 0 91.36 86.86">
  <defs>
    <style>
      .cls-1 {
        fill: #fff;
        isolation: isolate;
        opacity: .8;
      }

      .cls-2 {
        fill: #5d9da6;
      }

      .cls-3 {
        opacity: .25;
      }

      .cls-4 {
        fill: #263238;
      }
    </style>
  </defs>
  <g id="Camada_1-2" data-name="Camada 1">
    <g id="freepik--Ghost--inject-94">
      <g class="cls-3">
        <path class="cls-2" d="M34.5,16.27c-2.32,.86-3,3.71-4.69,5.25-2.11,1.93-4.57,3.41-6.22,5.82-1.24,1.66-1.55,3.83-.83,5.77,.48,1.04,1.32,1.88,1.55,2.98,.56,2.53-2.19,4.38-3.75,6.44-1.17,1.47-1.64,3.38-1.3,5.23,.39,1.88,1.87,3.34,3.75,3.72,1.77,.28,3.48-.6,5.22-1.05s3.97-.26,4.76,1.34c.55,1.14,.15,2.47,0,3.7-.22,1.75,.05,3.54-.26,5.27-.32,1.73-1.53,3.52-3.28,3.62-2.5,.15-4.93-3.04-6.98-1.62-1.54,1.06-.84,3.56-1.76,5.19-.77,1.34-2.47,1.8-3.81,1.03-.8-.46-1.32-1.29-1.39-2.21-.02,1.61,1.03,3.04,2.57,3.5,1.56,.39,3.19-.29,4.01-1.67,.6-1.07,.71-2.52,1.77-3.14s2.52,.11,3.77,.53c3.76,1.06,7.67-1.13,8.74-4.89,0-.03,.02-.07,.03-.1,.44-2.01,0-4.33,1.2-6,.68-.94,1.79-1.57,2.23-2.64,.82-2.06-1.39-4.07-3.47-4.82s-4.57-1.24-5.63-3.18c-1.55-2.81,1.11-6.1,1.22-9.31-.1-1.19-.13-2.39-.11-3.59,.46-3.11,4.36-4.79,7.35-3.84s5.07,3.72,6.35,6.59c.38,1.24,1.1,2.34,2.08,3.19,1.13,.81,2.65,.68,4.03,.8,3.02,.24,5.87,1.53,8.03,3.65,1.49,1.46,2.76,3.38,4.77,3.9,2.63,.66,5.09-1.27,7.53-2.35,3.17-1.41,7-1.61,9.64-3.87s3.41-6.17,5.02-9.43c1.51-3.1,4.02-5.94,4.57-9.44,.18-.82,.16-1.68-.04-2.49-.29-.78-.93-1.47-1.25-2.25-.67-1.62-.93-3.38-.76-5.13,.24-1.22,.35-2.46,.31-3.7-.29-2.28-2.27-4-4.36-4.96-1.22-.63-2.6-.89-3.97-.75-2.66,.43-4.51,3.04-7.13,3.69-1.34,.33-2.8,.13-4.08,.64-1.96,.77-2.94,2.92-3.73,4.87-.72,1.79-1.14,3.61-1.87,5.38-.6,1.47-1.59,3.24-3.19,3.87s-3.47-.42-4.69-1.35c-1.03-.92-2.15-1.72-3.34-2.41-1.06-.5-2.25-.69-3.42-.54-1.66,.22-3.25,1.09-4.89,1.06-1.28-.18-2.53-.48-3.75-.9-2.21-.38-4.47-.18-6.57,.59Z"/>
        <path class="cls-2" d="M19.44,66.7c-.38,.52-1.04,.76-1.66,.6-.67-.42-1.19-1.04-1.47-1.78-.32-.75-.91-1.36-1.64-1.72-.55-.18-1.14-.15-1.66,.1-.89,.48-1.66,1.15-2.26,1.97-.36,.62-.85,1.15-1.45,1.55-.81,.42-1.78,.2-2.67,.29-1.51,.14-2.75,1.24-3.07,2.72-.09,.87,.07,1.75,.48,2.52,.53,1.21,1.43,2.22,2.56,2.9,1.08,.5,2.21,.88,3.37,1.12,2.83,.81,5.82,2.18,7.76,4.41,.58,.76,.88,1.7,.88,2.65-.05,1.16-.67,2.22-1.65,2.84,1.38-1.01,1.4-3.22,.43-4.62-1.08-1.33-2.58-2.26-4.26-2.64-1.19-.44-2.42-.74-3.68-.87-.95-.03-2.03,.22-2.89-.34-.39-.32-.72-.69-1-1.11-.62-.8-1.42-1.45-2.33-1.9-.71-.28-1.39-.64-2.02-1.07-.91-.87-1.34-2.13-1.16-3.37,.2-2,1.32-4.85,3.07-5.97,.57-.39,1.27-.52,1.94-.37,.74,.24,1.27,.92,1.99,1.21,1.11,.21,2.25-.19,2.98-1.05,1.13-1.06,2.25-2.7,4-2.6,.8,.06,1.53,.45,2.02,1.08,.34,.52,.6,1.09,.78,1.68,.18,.59,.5,1.14,.94,1.57,.46,.43,1.14,.51,1.69,.22Z"/>
        <path class="cls-2" d="M53.83,40.1c1.54,.24,2.96,.97,4.05,2.08,.77,.78,1.34,1.74,2.06,2.57,.67,.88,1.65,1.48,2.73,1.7-1.46,.44-3.04,.31-4.41-.36-2.03-1.07-3.24-3.41-5.39-4.17-.86-.3-1.79-.32-2.65-.61-.77-.27-1.44-.76-1.94-1.4-.27-.34-.42-.98,0-1.12,.18-.04,.36-.01,.52,.09,.82,.49,1.7,.87,2.61,1.13,.73,.18,1.58,0,2.42,.11Z"/>
        <path class="cls-2" d="M69.92,4.45c1.82-.51,3.87,.08,5.64-.6s2.75-2.3,3.69-3.85c-1.34,1.44-3.16,2.34-5.12,2.53-1.08,.1-2.17-.02-3.27,0-1.09-.03-2.16,.27-3.08,.86-.98,.86-1.71,1.97-2.1,3.22-.56,1.37,.6,1.59,1.21,.45,.6-1.26,1.7-2.21,3.03-2.62Z"/>
      </g>
      <path class="cls-2" d="M81.47,7.33c-4.82-2.46-9.71,.96-12.27,6.42-.35,.75-.67,1.5-.98,2.24-3.4-.49-4.38-2.99-5.35-5.23-.87-1.98-2.75-1.16-2.32,2.44,.49,4.2,4,7.42,4.33,9.4-1.24,1.59-3.16,2.49-5.17,2.44-2.63,.03-6.41-2.81-10-4.29-4.97-2.02-9.96-2.67-14.39-.67-4.41,1.87-7.6,5.82-8.51,10.52,3.59-6.46,8.7-8.45,18.14-3.26,9.44,5.19,13.4,15.62,25.41,13.28,3-.65,5.73-2.2,7.83-4.43l.15-.2c1.58-1.2,6.45-1.2,9.95-4.11,2.79-2.33,1.99-4.21-.02-3.39-1.6,.67-3.29,1.41-5.14,1.1,1.04-1.76,1.9-3.62,2.55-5.55,2.44-7.45,.5-14.32-4.2-16.7Z"/>
      <path class="cls-1" d="M81.47,7.33c-4.82-2.46-9.71,.96-12.27,6.42-.35,.75-.67,1.5-.98,2.24-3.4-.49-4.38-2.99-5.35-5.23-.87-1.98-2.75-1.16-2.32,2.44,.49,4.2,4,7.42,4.33,9.4-1.24,1.59-3.16,2.49-5.17,2.44-2.63,.03-6.41-2.81-10-4.29-4.97-2.02-9.96-2.67-14.39-.67-4.41,1.87-7.6,5.82-8.51,10.52,3.59-6.46,8.7-8.45,18.14-3.26,9.44,5.19,13.4,15.62,25.41,13.28,3-.65,5.73-2.2,7.83-4.43l.15-.2c1.58-1.2,6.45-1.2,9.95-4.11,2.79-2.33,1.99-4.21-.02-3.39-1.6,.67-3.29,1.41-5.14,1.1,1.04-1.76,1.9-3.62,2.55-5.55,2.44-7.45,.5-14.32-4.2-16.7Z"/>
      <path class="cls-4" d="M77.43,16.01c-.52,.84-1.63,1.1-2.46,.58s-1.1-1.63-.58-2.46c.11-.17,.24-.33,.4-.45,.76-.86,2.6-1.47,3.33-.82s.04,2.28-.69,3.16Z"/>
      <path class="cls-4" d="M84.09,17.93c.05,.83-.58,1.55-1.41,1.6s-1.55-.58-1.6-1.41c-.01-.17,0-.33,.05-.49,.09-.97,.89-2.42,1.69-2.35s1.38,1.68,1.27,2.65Z"/>
      <path class="cls-4" d="M78.19,19.92c2.22,1.21,2.65,5.42,2.21,6.93s-1.19,1.51-1.72,.44-.75-3.24-2.5-3.92-3.53,.39-4.51,.67-.98-.71-.36-1.66,4.05-4,6.88-2.46Z"/>
    </g>
  </g>
</svg>