<?xml version="1.0" encoding="UTF-8"?>
<svg id="Camada_2" data-name="Camada 2" xmlns="http://www.w3.org/2000/svg" viewBox="0 0 76.88 111.68">
  <defs>
    <style>
      .cls-1 {
        fill: #fff;
      }

      .cls-2 {
        opacity: .8;
      }

      .cls-3 {
        fill: #5d9da6;
      }

      .cls-4 {
        opacity: .25;
      }

      .cls-5 {
        fill: #263238;
      }
    </style>
  </defs>
  <g id="Camada_1-2" data-name="Camada 1">
    <g id="freepik--ghost--inject-94">
      <g class="cls-4">
        <path class="cls-3" d="M36.78,87.34c0,1.7-.23,3.39-.29,5.09-.16,1.7,.19,3.41,1,4.91,1.27,2,3.72,3.06,5.08,5,.38,.7,.84,1.35,1.37,1.95,1.31,1.22,3.38,.94,5.09,1.49s3.24,2.13,5,3c3.46,1.67,7.8,.28,10.54-2.42,.91-1.09,1.96-2.06,3.11-2.89,1.23-.71,3-.78,3.9,.32-1.08-.62-2.43-.52-3.41,.25-.95,.76-1.79,1.64-2.51,2.62-1.69,2.05-3.91,3.6-6.42,4.47-2.53,.86-5.29,.7-7.7-.45-1.34-.67-2.49-1.67-3.83-2.32-2.08-1-4.57-1.15-6.45-2.5-1.09-.9-2.04-1.94-2.84-3.11-.99-1.25-2.08-2.41-3.26-3.47-.94-.72-1.73-1.59-2.36-2.59-.84-1.63-.52-3.58-.23-5.39s.47-3.82-.57-5.33c-.67-1-2.28-2.05-1.89-3.45,.3-1.09,1.55-1.35,2.52-1.23,2.95,.37,4.08,3.5,4.15,6.05Z"/>
        <path class="cls-3" d="M4.41,44.77c-.58,1.2-1.09,2.43-1.53,3.68-.37,1.64-.41,3.34-.13,5-2.19-1.67-3.2-4.48-2.57-7.16,.33-1.28,1-2.43,1.46-3.67,.45-1.36,.68-2.77,.68-4.2,0-.82-.41-2.36-.1-3.12,1.08-2.61,2.83,.77,3,1.95,.37,2.53,.09,5.12-.81,7.52Z"/>
        <path class="cls-3" d="M30.78,5.11h.06c2.1-.55,4.2-1.46,6.37-1.27,1.71,.16,3.29,.99,4.4,2.3,.93,1.11,3,4,4.7,2.28-2-.72-2.94-2.84-4.11-4.56-.93-1.48-2.27-2.66-3.85-3.41-1.38-.6-2.96-.6-4.34,0-.55,.23-1.07,.52-1.56,.86-.66,.6-1.29,1.23-1.89,1.9-.73,.76-1.67,1.27-2.7,1.49-.25,.02-.49,.08-.72,.19,1.13,.59,2.45,.67,3.64,.22Z"/>
        <path class="cls-3" d="M73,89.12c-.1-.53-.25-1.06-.44-1.57-.66-1.27-1.18-2.62-1.55-4-.09-.61-.06-1.23-.16-1.84-.11-.73-.41-1.42-.86-2-.44-.45-.83-.93-1.19-1.44-.25-.51-.38-1.06-.39-1.63-.04-.44,0-.89,.14-1.31,.4-1.1,2.16-1.56,3.22-1.45,1.23,.16,2.22,1.09,2.45,2.31,.03,.53,.03,1.07,0,1.6,0,.53,.2,1.05,.56,1.44,.31,.29,.74,.42,1.16,.33,.42-.09,.77-.38,.94-.77-.08,.28-.44,.36-.74,.36-.29,.02-.59-.04-.84-.19-.34-.27-.51-.71-.44-1.14,0-.43,.18-.84,.25-1.26,.12-1.66-.87-3.2-2.43-3.77-1.82-.72-3.65-.09-5.37,.58-.66,.24-1.23,.67-1.64,1.24-.4,.72-.61,1.53-.62,2.35-.09,.69-.09,1.38,0,2.07,.2,1.24,.83,2.24,.89,3.5,.06,1.44,.58,2.84,.61,4.31,.08,1.58-.31,3.15-1.13,4.5-.26,.43-.62,.8-1.05,1.06-.47,.23-.99,.37-1.51,.4-.91,.1-1.82,.15-2.72,.28-1.16,.27-2.35,.41-3.54,.41-3.57-.27-4.06-4.81-4.08-7.61,0-2.55,.28-5.13-.3-7.62-.85-3.62-3.46-6.57-6.29-9-2.11-1.8-4.54-3.63-5.15-6.33-.79-3.43,1.66-6.85,1.38-10.35-.22-2.86-2.22-5.31-2.72-8.14-1.11-6.24,5.24-11.78,4.82-18.1-.15-2.21-1.12-4.37-.77-6.55,.33-2,1.73-3.78,1.49-5.77-.32-1.41-1.05-2.7-2.11-3.69-1.91-2.18-4.14-4.52-7-4.66-2.39-.11-4.61,1.35-7,1.44-2.9,.12-5.15-.88-7.77,1s-3.17,5.45-5.07,8c-2.3,3-6.48,4.31-8.45,7.56-2.54,4.2-.35,9.55-.59,14.45-.31,6.22-4.62,12.53-2.11,18.22,2,4.49,7.31,6.34,10.55,10,1.7,1.93,2.8,4.35,4.66,6.12,2.67,2.55,6.49,3.38,10,4.52s7.22,3,8.47,6.52c1.48,4.07-1,9,1,12.81,1.72,3.35,5.91,4.37,9,6.47,2.26,1.51,4.29,3.22,7.07,3.67,2.48,.43,5.04-.09,7.16-1.45,1.24-.82,2.28-1.91,3.49-2.77,.81-.58,1.69-1,2.48-1.65,1.82-1.41,3.07-3.44,3.5-5.71,.37-1.18,.65-2.39,.84-3.62,.05-.71,.01-1.43-.1-2.13Z"/>
      </g>
      <path class="cls-3" d="M68.71,83.23c1.88,6.63-2.59,16.68-12.61,14-9.62-2.57-5.67-12.82-8.82-20.38s-9.5-9.86-13.1-16.62c-1.53-2.87-2.27-6.09-2.17-9.34,.84-3.85,5.91-4.28,10.29-7.72,3.12-2.44,4.57-4.69,4.92-6.69,.18-1,.16-3.3-.64-3.83-1.23-.8-1.9,.82-3.13,2-2.21,2.12-4.83,3.44-7.51,2.16l.18-.36c4.49-9,9.2-19.44-1.94-24.12-8.09-3.4-15.84,2.32-20.53,10.52-2.24-1.08-3.13-3.54-3.34-6.28-.13-1.69,.44-3.35-1-3.57-1-.14-2.42,1.06-3,2.43-1.14,2.6-1.41,5.5-.79,8.27,1,5.49,3.87,7.19,3.45,13.81h0c-1.93,12.7,.48,23.21,15.41,30.49,16.34,8,16,12.64,18.66,22,2.45,8.65,9.27,13.69,18.33,11.4,9.41-2.43,10.94-12.33,7.34-18.17Z"/>
      <g class="cls-2">
        <path class="cls-1" d="M68.71,83.23c1.88,6.63-2.59,16.68-12.61,14-9.62-2.57-5.67-12.82-8.82-20.38s-9.5-9.86-13.1-16.62c-1.53-2.87-2.27-6.09-2.17-9.34,.84-3.85,5.91-4.28,10.29-7.72,3.12-2.44,4.57-4.69,4.92-6.69,.18-1,.16-3.3-.64-3.83-1.23-.8-1.9,.82-3.13,2-2.21,2.12-4.83,3.44-7.51,2.16l.18-.36c4.49-9,9.2-19.44-1.94-24.12-8.09-3.4-15.84,2.32-20.53,10.52-2.24-1.08-3.13-3.54-3.34-6.28-.13-1.69,.44-3.35-1-3.57-1-.14-2.42,1.06-3,2.43-1.14,2.6-1.41,5.5-.79,8.27,1,5.49,3.87,7.19,3.45,13.81h0c-1.93,12.7,.48,23.21,15.41,30.49,16.34,8,16,12.64,18.66,22,2.45,8.65,9.27,13.69,18.33,11.4,9.41-2.43,10.94-12.33,7.34-18.17Z"/>
      </g>
      <path class="cls-5" d="M34.56,25.38c-.33,1.7-1.59,2.89-2.81,2.65s-1.93-1.81-1.59-3.51,1.77-3.44,3-3.2,1.73,2.35,1.4,4.06Z"/>
      <path class="cls-5" d="M22.25,23c-1.22,1.23-2.93,1.52-3.81,.65s-.6-2.58,.63-3.81,3.38-1.88,4.26-1,.14,2.93-1.08,4.16Z"/>
      <path class="cls-5" d="M25.59,28.06c-3.88-1.7-8.75,2.66-10,4.72s.07,3.37,1.61,2.35,4.57-2.63,5.86-2,1.44,3.65,1.24,5.35,1.91,2.3,3,0,2.16-8.71-1.71-10.42Z"/>
    </g>
  </g>
</svg>