<?xml version="1.0" encoding="UTF-8"?>
<svg id="Camada_2" data-name="Camada 2" xmlns="http://www.w3.org/2000/svg" viewBox="0 0 95.73 95.72">
  <defs>
    <style>
      .cls-1, .cls-2 {
        fill: #5d9da6;
      }

      .cls-2 {
        opacity: .2;
      }

      .cls-2, .cls-3 {
        isolation: isolate;
      }

      .cls-3 {
        fill: #fff;
        opacity: .65;
      }
    </style>
  </defs>
  <g id="Camada_1-2" data-name="Camada 1">
    <g id="freepik--Moon--inject-94">
      <g id="freepik--moon--inject-94">
        <circle class="cls-1" cx="47.86" cy="47.86" r="47.85"/>
        <circle class="cls-3" cx="47.86" cy="47.86" r="47.85"/>
        <path class="cls-2" d="M30.23,70.8c0,1.23,.82,2.3,2,2.64,1.26,.18,2.78-.84,3.67,.07,.7,.7,.25,1.88,.44,2.85,.38,1.16,1.63,1.79,2.79,1.42,.46-.15,.86-.45,1.13-.85,.35-.67,.33-1.49,.7-2.15,.62-.91,1.87-1.15,2.78-.53,.71,.48,1.03,1.36,.8,2.19-.37,1-1.44,1.52-2.25,2.23-.98,.79-1.51,2.02-1.41,3.28,.16,1.28,1.27,2.22,2.56,2.16,.72-.2,1.41-.49,2.06-.86,1.52-.57,3.25-.11,4.27,1.16,.37,.46,.61,1,1,1.46,1.28,1.32,3.35,1.43,4.76,.26,1.33-1.23,1.76-3.15,1.07-4.83-.29-.71-.75-1.35-1-2.07-.56-1.44-.16-3.08,1-4.1,1.22-.97,2.99-.8,4,.39,.78,1.06,.61,2.53,1,3.8s2,2.44,2.91,1.5c.76-.77,.3-2.32,1.18-3s1.88,.15,2.2,1c.2,.92,.27,1.87,.23,2.81,.08,.94,.57,2,1.5,2.15,1.09,.18,1.91-1,2.3-2s.77-2.25,1.8-2.65,2.18,.24,3.23,0c2.58-.74,1.35-5.44,3.7-6.73,1.49-.81,3.37,.36,5-.06,1.1-.28,1.89-1.21,2.9-1.73,.54-.25,1.11-.43,1.69-.53,3.61-6.86,5.5-14.5,5.49-22.26,0-2.04-.14-4.07-.4-6.09-.6-1.91-1.57-3.69-2.86-5.22-1.32-1.49-3-2.65-4.14-4.3-.83-1.24-1.3-2.7-2.22-3.88s-2.57-2-3.91-1.38c-1,.57-1.54,1.71-1.34,2.85,.22,1.11,.86,2.09,1.79,2.74,.81,.61,1.8,1.08,2.19,2,.34,.94,.03,2-.77,2.6-.81,.57-1.84,.73-2.78,.42-1.63-.51-.56-2-.2-3,.24-.7,.18-1.65-.48-2s-1.4,.19-2.06,.51c-.52,.24-1.09,.38-1.67,.4-.25,.02-.49-.02-.72-.12-.72-.35-.69-1.43-.31-2.14,.48-.62,.85-1.31,1.11-2.04,.07-.96-.43-1.88-1.28-2.34-.85-.44-1.79-.66-2.74-.63-1.04,.12-2.07-.25-2.8-1-.78-.68-1.38-1.53-2.22-2.15-2.34-1.73-5.65-1.24-7.39,1.1-.65,.88-1.02,1.95-1.03,3.05,.1,.67-.02,1.34-.33,1.94-.35,.32-.74,.59-1.17,.8-1.18,.95-1.37,2.67-.42,3.85,.25,.31,.56,.56,.92,.74,1.63,.63,3.47-.27,5.13-.23,2.77,.07,2.93,3.36,.18,3.76-.83,.12-2.37-.16-3.64,0s-2.08,.55-2,1.93,1.87,2.69,1,3.73c-.52,.46-1.3,.48-1.85,.06-.52-.43-1-.89-1.44-1.4-.72-.73-1.75-1.06-2.76-.87-1,.26-1.65,1.24-1.48,2.26,.27,1,1.46,1.77,1.13,2.74-.27,.82-1.46,.9-2.21,.48s-1.3-1.15-2.05-1.57c-1.74-1-4,0-5.26,1.62s-1.45,4.25,.33,5c1.09,.47,2.33-.07,3.51-.2s2.72,.7,2.39,1.84c-.23,.76-1.14,1.06-1.65,1.66-.66,.93-.54,2.2,.27,3,.82,.75,1.89,1.15,3,1.12,2.71,.06,5.6-1.82,5.85-4.52,.13-1.48-.45-3.19,.49-4.35,.77-.75,1.84-1.09,2.9-.94,.96,0,1.9,.27,2.71,.78,.82,.53,1.24,1.5,1.07,2.46-.22,.91-1,1.52-1.63,2.24s-.89,1.94-.14,2.5c.49,.36,1.21,.25,1.74,.57,1,.6,.51,2.34-.57,2.82-1.14,.34-2.36,.31-3.48-.09-1.13-.39-2.39-.26-3.41,.37-1.31,1.08-.83,3.28,.26,4.59,.6,.72,1.4,1.46,1.33,2.4-.11,.7-.61,1.29-1.28,1.52-1.46,.5-3.05-.29-3.55-1.76-.03-.08-.05-.16-.07-.24-.04-.64-.04-1.27,0-1.91-.05-1.47-.98-2.76-2.36-3.27-1.42-.44-2.93,.27-3.5,1.64-.26,.78-.14,1.66-.47,2.41-.68,1.15-2.17,1.52-3.32,.84-.23-.14-.44-.31-.61-.52-.92-1.37-.55-3.22,.81-4.15,1.05-.72,2.7-1.08,2.8-2.35,.01-.43-.13-.85-.4-1.18-1-1.1-2.7-1.18-3.8-.18-.25,.23-.46,.51-.61,.81-.11,.46-.28,.91-.52,1.32-1,1.27-3.64,0-4.38,1.42-.37,.7,0,1.63-.32,2.32s-1.58,.79-2.5,.93c-2.34,.41-4.02,2.49-3.91,4.86ZM.96,38.3c.61-.11,1.21-.28,1.78-.53,1-.42,2.42-.69,3.15,.16,.45,.53,.46,1.3,.8,1.91,.63,1.01,1.89,1.43,3,1,1.05-.45,1.85-1.33,2.21-2.41,.21-1,.61-1.95,1.18-2.8,.88-.94,2.36-.98,3.29-.1,.63,.6,.88,1.5,.65,2.33-.39,1.37-1.91,2.1-2.62,3.34-.67,1.24-.39,2.78,.67,3.7,1.13,.8,2.69,.53,3.49-.59,.02-.03,.04-.06,.06-.1,.56-1,.41-2.66,1.52-3.09,1.36-.53,2.23,1.46,3.44,2.29,1.1,.77,2.62,.5,3.38-.6,.68-.97,.56-2.3-.29-3.13-.48-.48-1.17-.78-1.44-1.4-.56-1.24,1.16-2.44,2.48-2.15s2.33,1.35,3.52,2c1.97,1.07,4.37,.99,6.27-.19,.66-.39,1.19-.96,1.51-1.66,.76-1.85-.65-4.2,.43-5.89,.71-1.05,2.14-1.33,3.19-.62,.87,.58,1.23,1.68,.89,2.66-.4,1.07-1.54,1.7-2.1,2.7-.93,1.67,.11,3.89,1.76,4.84,1.73,.82,3.69,1.06,5.57,.66,.64-.02,1.25-.26,1.74-.67,1.25-1.29-.48-3.38-.25-5.17,.27-2,3.06-3.07,3.26-5.12,.11-1.12-.62-2.25-.3-3.33,.59-2,4.07-1.91,4.69-3.93,.21-.92-.15-1.89-.92-2.44-.77-.52-1.67-.82-2.6-.84-1.24-.09-2.79-.14-3.26-1.29s.89-2.46,2.16-3c1.12-.5,2.36-.67,3.57-.5,1.23,.19,2.25,1.07,2.63,2.26,.1,.41,.1,.84,.24,1.24,.42,1.18,1.91,1.6,3.16,1.48,1.22-.27,2.47-.44,3.72-.49,3.47,.29,5.5,4.76,9,5,.36,.06,.74-.05,1-.31,.18-.3,.23-.66,.13-1-.6-3.34-2.86-6.13-6-7.41-2-.8-4.2-.94-6.06-2-1.26-.84-2.45-1.78-3.57-2.79-1.15-1.01-2.68-1.48-4.2-1.26-1.73,.42-2.78,2.11-3.84,3.55s-2.66,2.88-4.39,2.45c-.26-.94-.82-1.77-1.59-2.37-.82-.51-2.18-.21-2.36,.74-.11,.64,.33,1.24,.45,1.88,.28,1.43-1,2.66-2.31,3.34s-2.79,1.21-3.49,2.48c-.27,.6-.48,1.21-.64,1.85-.43,1.4-1.54,2.48-2.95,2.86-1.46,.31-2.89-.61-3.23-2.06-.01-.98,.3-1.95,.9-2.73,.6-.78,.95-1.72,1-2.7-.06-1-1.05-1.94-2-1.57-1.06,.44-1,2.06-1.8,2.82s-2.29,.29-3.4-.17-2.66-.7-3.26,.34,.22,2.09,.46,3.17c.4,1.77-.72,3.53-2.49,3.93-.78,.18-1.61,.06-2.31-.33-.92-1.58,2-3.31,1.37-5-.44-1.18-2.2-1.15-3.27-.49-.5,.43-1.12,.71-1.77,.81-1,0-1.69-1.28-1.46-2.3,.33-.99,.95-1.86,1.77-2.51,.7-.66,1.64-1.37,2.53-1,.59,.24,.9,.86,1.36,1.3,1.02,.93,2.58,.93,3.6,0,.49-.5,.77-1.19,1.33-1.61,1.31-1,3.37,0,4.78-.85,.98-.66,1.24-2,.58-2.98,0,0,0-.01-.01-.02-.4-.52-1.07-.9-1.19-1.54-.21-1.17,1.21-2.07,1.15-3.32-.15-1.16-.76-2.2-1.7-2.89h-.07C19.87,7.99,12.45,14.38,7.33,22.48c.24,.77,.68,1.47,1.29,2,.66,.43,1.28,.91,1.88,1.42,.6,.55,.67,1.48,.17,2.12-.36,.27-.8,.4-1.24,.37-1.49,.03-2.96-.38-4.23-1.18l-.38-.25c-1.76,3.6-3.06,7.41-3.86,11.34Z"/>
      </g>
    </g>
  </g>
</svg>