<?xml version="1.0" encoding="UTF-8"?>
<svg id="Camada_2" data-name="Camada 2" xmlns="http://www.w3.org/2000/svg" viewBox="0 0 50.96 45.68">
  <defs>
    <style>
      .cls-1 {
        fill: #a66891;
      }
    </style>
  </defs>
  <g id="Camada_1-2" data-name="Camada 1">
    <path class="cls-1" d="M0,2.14C0,.95,.95,0,2.14,0H6.2c1.96,0,3.7,1.14,4.51,2.86H47.39c2.35,0,4.06,2.23,3.44,4.5l-3.66,13.59c-.76,2.8-3.3,4.76-6.2,4.76H15.23l.48,2.54c.2,1.01,1.08,1.74,2.11,1.74h25.72c1.19,0,2.14,.95,2.14,2.14s-.95,2.14-2.14,2.14H17.82c-3.09,0-5.74-2.19-6.31-5.22L6.91,4.86c-.06-.34-.36-.58-.7-.58H2.14C.95,4.28,0,3.33,0,2.14ZM11.42,41.4c0-2.37,1.92-4.28,4.28-4.28s4.28,1.92,4.28,4.28-1.92,4.28-4.28,4.28-4.28-1.92-4.28-4.28h0Zm29.98-4.28c2.37,0,4.28,1.92,4.28,4.28s-1.92,4.28-4.28,4.28h0c-2.37,0-4.28-1.92-4.28-4.28s1.92-4.28,4.28-4.28Z"/>
  </g>
</svg>