<?xml version="1.0" encoding="UTF-8"?>
<svg id="Camada_2" data-name="Camada 2" xmlns="http://www.w3.org/2000/svg" viewBox="0 0 87 88.02">
  <defs>
    <style>
      .cls-1 {
        fill: #fff;
      }

      .cls-2 {
        fill: #37474f;
      }

      .cls-3 {
        fill: #455a64;
      }

      .cls-4 {
        fill: #f28f8f;
      }

      .cls-5 {
        opacity: .15;
      }

      .cls-5, .cls-6, .cls-7, .cls-8 {
        isolation: isolate;
      }

      .cls-6 {
        opacity: .35;
      }

      .cls-9 {
        opacity: .1;
      }

      .cls-10 {
        opacity: .3;
      }

      .cls-11 {
        fill: #5d9da6;
      }

      .cls-7 {
        opacity: .2;
      }

      .cls-12 {
        fill: #ba68c8;
      }

      .cls-13 {
        fill: #263238;
      }

      .cls-14 {
        fill: #ffa8a7;
      }

      .cls-8 {
        opacity: .25;
      }
    </style>
  </defs>
  <g id="Camada_1-2" data-name="Camada 1">
    <g>
      <rect class="cls-11" x="5.21" y="8.03" width="74.98" height="74.09" rx="25.07" ry="25.07"/>
      <g id="freepik--Cat--inject-29">
        <g id="freepik--cat--inject-29">
          <path class="cls-12" d="M86.31,41.69c3.16,2.37-4.71,17.14-21.12,21.46-7.7,1.96-15.77,1.96-23.47,0l10.47-18.34s27.57-4.82,34.12-3.12Z"/>
          <path class="cls-6" d="M86.31,41.69c3.16,2.37-4.71,17.14-21.12,21.46-7.7,1.96-15.77,1.96-23.47,0l10.47-18.34s28.96-4.5,34.12-3.12Z"/>
          <path class="cls-5" d="M55.03,63.14c.51,.49,1.06,.95,1.63,1.36,2.88-.18,5.73-.63,8.53-1.36,1.48-.39,2.93-.88,4.35-1.46,1.89-4.48-1.49-8.42-.68-9.96,.98-1.87,4.01-4.96,9-7.39l-2.93-2.44c-6.28,.58-13.57,1.56-18.17,2.21l-1.73,19.05Z"/>
          <path class="cls-2" d="M56.27,67.45l-34.82-4.31c-.07,1.59-.3,3.17-.68,4.72h0c1.56,6.69,14.34,17.42,28.29,15.27,3.18-.43,6.2-1.65,8.78-3.56-2-4.56-3.22-8.55-1.57-12.12Z"/>
          <path class="cls-12" d="M47.66,79.52c1.15,.25,4.14,3.31,4.36,6.45,0,0,3.14-.41,4.35-3.02-.46-2.03-4.78-4.45-8.4-4.42l-.31,.99Z"/>
          <path class="cls-8" d="M47.66,79.52c1.15,.25,4.14,3.31,4.36,6.45,0,0,3.14-.41,4.35-3.02-.46-2.03-4.78-4.45-8.4-4.42l-.31,.99Z"/>
          <path class="cls-5" d="M47.98,78.53l-.31,.98c.24,.07,.46,.17,.66,.32,1.78,.24,3.37,1.21,4.39,2.69,.52,.89,1.14,1.72,1.83,2.48,.8-.49,1.44-1.21,1.84-2.06-.49-2.01-4.81-4.43-8.42-4.4Z"/>
          <path class="cls-12" d="M44.97,76.92c-2.17-.65-8.45-1.29-13.6,1.19-2.2,1.09-4.13,2.66-5.65,4.58,2.1-.16,5.93,1.46,8.06,5.34,1.57-.76,2.6-2.44,4.74-5.4s5.71-3.95,5.71-3.95l.75-1.75Z"/>
          <path class="cls-6" d="M44.97,76.92c-2.17-.65-8.45-1.29-13.6,1.19-2.2,1.09-4.13,2.66-5.65,4.58,2.1-.16,5.93,1.46,8.06,5.34,1.57-.76,2.6-2.44,4.74-5.4s5.71-3.95,5.71-3.95l.75-1.75Z"/>
          <path class="cls-5" d="M44.22,78.67l.75-1.75c-2.17-.65-8.45-1.29-13.6,1.19l-.19,.1c1.56,2.09,1.95,5.29,1.31,6.69,1.29-.15,2.58,.25,3.56,1.1,.69-.86,1.46-1.98,2.46-3.38,2.16-2.97,5.71-3.95,5.71-3.95Z"/>
          <path class="cls-12" d="M37.94,83.65c1.7,.35,3.2,1.79,3.54,3.24,1.58-1.08,4.35-4.3,3.37-7.32-2.94-.27-5.72,1.37-6.91,4.07Z"/>
          <path class="cls-8" d="M37.94,83.65c1.7,.35,3.2,1.79,3.54,3.24,1.58-1.08,4.35-4.3,3.37-7.32-2.94-.27-5.72,1.37-6.91,4.07Z"/>
          <path class="cls-5" d="M37.94,83.65c1.01,.23,1.93,.78,2.61,1.56,.44-1,1.15-1.86,2.06-2.46,.92-.61,1.82-.98,2.44-1.95-.01-.4-.08-.79-.2-1.17-2.93-.28-5.71,1.34-6.91,4.03Z"/>
          <path class="cls-12" d="M48.07,77.27c1.56-1.23,7.8-5.15,12.95-5.42,.09,1.6,1.55,4.52,4.09,5.2,.13,1.17-1.56,2.96-4.23,5.08-2.67,2.12-3.03,4.49-3.03,4.49,0,0-1.84-.57-3.61-3.61-1.35-2.12-3.55-3.55-6.04-3.9-1.83-.13-.12-1.83-.12-1.83Z"/>
          <path class="cls-7" d="M57.25,76.34c-1.1-.22-2.22-.27-3.33-.15-1.2,.04-2.39,.19-3.57,.45-.59,.13-1.18,.29-1.76,.49-.54,.12-1.04,.4-1.43,.8-.02,.03-.08,.17,0,.2,.34,.08,.7,.04,1.03-.09,.2,.1,.4,.19,.61,.27l1.32,.52c.87,.35,1.74,.72,2.63,1.01,.61,.2,1.59,.59,2.21,.26,.45-.24,.23-.6-.14-.77v.02c.14,.1,.52,.4,.06,.53-.1,0-.2,0-.3-.04-.33-.07-.66-.16-.98-.27-.66-.23-1.29-.53-1.95-.79l-1.95-.78c-.19-.07-.39-.17-.59-.26l.59-.17c.87-.22,1.77-.41,2.66-.56,.87-.13,1.74-.21,2.61-.24h1.39c.28,0,.55,0,.82,.05s.4,.05,.18,.28c-.15,.18-.33,.34-.51,.49h0c.37-.08,.7-.29,.92-.61,.18-.43-.22-.57-.54-.66Z"/>
          <path class="cls-12" d="M44.97,76.92c-2.44-1.87-8.41-4.07-11.19-3.12s-4.61,1.89-3.27,2.72c1.51,1.06,2.6,2.63,3.05,4.42,.69,2.39-.28,3.49-.28,3.49,0,0,3.41-.17,5.05,2.62,.74-2.68,1.84-4.17,3.66-5.11,1.82-.94,2.57-1.6,2.86-2.34l.12-2.68Z"/>
          <path class="cls-7" d="M46.14,77.31c-.43,.17-.86,.38-1.26,.6-.39-.19-.8-.35-1.21-.49-.72-.28-1.47-.51-2.22-.67-.75-.16-1.51-.26-2.28-.3-.78-.1-1.57,.03-2.28,.38-.09,.05-.06,.23,0,.28,.29,.21,.65,.32,1.01,.31h0c-.24-.07-.47-.18-.67-.34,1.47-.21,2.96-.1,4.39,.31,.67,.16,1.34,.37,1.99,.61,.22,.08,.43,.18,.65,.27l-.09,.05c-.66,.35-1.33,.7-2,1.03s-1.3,.64-1.95,.95c-.45,.24-.92,.42-1.42,.52,.21-.22,.43-.42,.68-.6,.33-.23,.7-.4,1-.66,0,0,.02-.07,0-.07-.87-.09-1.76,.78-2.26,1.39-.08,.1,0,.37,.13,.38,.62,.03,1.23-.11,1.78-.4,.72-.32,1.43-.65,2.14-.98s1.41-.68,2.11-1.03l.56-.28c.15,.09,.32,.11,.49,.08,.1-.02,.08-.17,.04-.23-.02-.03-.04-.05-.07-.08,.32-.17,.64-.36,.93-.57,.13-.17,.01-.56-.17-.48Z"/>
          <path class="cls-12" d="M44.86,75.96c-.66,1.21-.66,3.52,.34,4.49,1,.98,1.89,.45,1.89,.45,.98,.39,2.09-.09,2.48-1.07,.02-.05,.03-.09,.05-.14,.37-1.15,.25-2.4-.33-3.45-1.19-2.08-3.75-1.5-4.42-.29Z"/>
          <g class="cls-9">
            <path d="M44.86,75.96c-.66,1.21-.66,3.52,.34,4.49,1,.98,1.89,.45,1.89,.45,.98,.39,2.09-.09,2.48-1.07,.02-.05,.03-.09,.05-.14,.37-1.15,.25-2.4-.33-3.45-1.19-2.08-3.75-1.5-4.42-.29Z"/>
          </g>
          <path class="cls-3" d="M43.92,37.26c12.11,1.18,19.54,12.36,22.85,20.12,1.61,3.76-5.5,15.9-16.46,18.11-13.03,2.63-25.27-5.26-30.17-12.53-4.31-6.38,8.48-25.03,23.78-25.69Z"/>
          <path class="cls-1" d="M41.99,64.8c0,.51,.17,1.01,.49,1.41,.23-.02,.49-1.21,.49-1.21l-.98-.2Z"/>
          <path class="cls-1" d="M52.67,64.89c0,.51-.17,1-.49,1.4-.23,0-.49-1.21-.49-1.21l.98-.19Z"/>
          <path class="cls-12" d="M58.04,54.38c.26,1.55-.65,3.05-2.15,3.55-1.3,.42-3.28-.4-3.7-1.29-.12-1.64,1.01-3.1,2.62-3.41,1.36-.16,2.23,.35,3.23,1.16Z"/>
          <path class="cls-2" d="M53.35,55.89c.15,1.23,1.03,2.14,1.95,2.02s1.58-1.2,1.43-2.44c-.15-1.23-1.04-2.14-1.98-2.02s-1.57,1.21-1.4,2.44Z"/>
          <path class="cls-1" d="M55.7,54.33c.02,.37,.33,.65,.7,.63,.37-.02,.65-.33,.63-.7-.02-.37-.33-.65-.7-.63-.37,.02-.65,.33-.63,.7h0Z"/>
          <path class="cls-1" d="M55.88,55.97c0-.06,.12-.13,.19-.16,.08-.04,.16-.07,.25-.09,.2-.05,.41-.04,.61,.03,.14,.07,.22,.21,.22,.37,0,.06,0,.16-.06,.19-.06,.03-.13,.05-.2,.04-.13-.03-.25-.08-.37-.15-.17-.07-.35-.13-.54-.15-.09-.01-.11-.04-.11-.08Z"/>
          <path class="cls-12" d="M35.25,54.38c-.26,1.55,.65,3.05,2.14,3.55,1.3,.42,3.28-.4,3.7-1.29,.12-1.64-1.01-3.11-2.62-3.41-1.36-.16-2.23,.35-3.22,1.16Z"/>
          <path class="cls-2" d="M40,55.89c-.15,1.23-1.05,2.14-2.02,2.01s-1.62-1.21-1.46-2.44,1.05-2.13,2.01-2.01,1.64,1.21,1.47,2.44Z"/>
          <circle class="cls-1" cx="36.82" cy="54.38" r=".67"/>
          <path class="cls-1" d="M37.38,56.04c0-.06-.12-.13-.19-.16-.08-.03-.17-.05-.25-.07-.2-.04-.42-.02-.61,.06-.13,.08-.21,.22-.2,.38,0,.07,.02,.14,.07,.19,.06,.03,.13,.05,.2,.03,.13-.04,.25-.09,.36-.17,.17-.08,.35-.14,.53-.18,.09-.02,.11-.05,.1-.09Z"/>
          <path class="cls-13" d="M32.37,58.6h.03c.17-.12,.21-.35,.11-.52-1.12-1.87-3.2-4.01-6.8-3.58-.2,.03-.33,.21-.3,.41,0,0,0,0,0,0,.02,.2,.19,.35,.4,.33,3.23-.38,5.11,1.55,6.12,3.23,.1,.16,.3,.21,.46,.12Z"/>
          <path class="cls-13" d="M31.36,59.51s.07-.04,.1-.07c.14-.15,.14-.38,0-.53-1.2-1.22-3.56-1.78-4.94-1.5-.2,.06-.31,.28-.25,.48,.05,.17,.22,.28,.39,.26,1.2-.24,3.3,.27,4.31,1.3,.1,.11,.26,.13,.39,.07Z"/>
          <path class="cls-13" d="M31.51,61.04c.06-.04,.12-.1,.15-.17,.07-.19,0-.39-.19-.49-2.18-.92-4.67-.72-6.67,.54-.17,.11-.22,.34-.12,.52,.09,.17,.3,.24,.47,.15,0,0,.01,0,.02-.01h0c1.8-1.15,4.05-1.34,6.01-.51,.1,.05,.23,.04,.32-.03Z"/>
          <path class="cls-13" d="M62.13,58.65h-.03c-.17-.12-.21-.35-.1-.52,1.14-1.86,3.24-3.98,6.83-3.52,.2,.03,.33,.22,.3,.42-.02,.2-.2,.35-.4,.33-3.22-.41-5.12,1.5-6.14,3.17-.1,.15-.29,.2-.45,.12Z"/>
          <path class="cls-13" d="M63.13,59.55s-.07-.04-.09-.07c-.14-.15-.14-.39,0-.54,1.2-1.21,3.58-1.74,4.95-1.46,.2,.05,.33,.25,.28,.45-.04,.2-.23,.32-.43,.29-1.2-.24-3.31,.24-4.32,1.26-.1,.1-.26,.13-.39,.07Z"/>
          <path class="cls-13" d="M62.97,61.1c-.06-.04-.12-.1-.15-.17-.07-.19,.01-.4,.19-.49,2.19-.9,4.67-.68,6.66,.6,.17,.12,.22,.34,.11,.52-.09,.17-.3,.24-.48,.14,0,0,0,0-.01,0h0c-1.79-1.16-4.03-1.37-6.01-.57-.1,.05-.23,.04-.32-.03Z"/>
          <path class="cls-13" d="M51.39,65.43c-.74,0-1.46-.21-2.07-.62-.78-.53-1.39-1.28-1.74-2.16-.33,.75-.87,1.4-1.54,1.88-1.43,1-3.29,1.14-4.84,.36-.18-.08-.27-.3-.18-.48,0,0,0,0,0,0,.09-.18,.3-.26,.49-.18,1.32,.66,2.89,.55,4.1-.3,.93-.64,1.51-1.67,1.59-2.8-.01-.19-.01-.39,0-.58,0-.19,.16-.35,.36-.36h0c.19,0,.35,.14,.37,.33,.01,.19,.01,.39,0,.59,.12,1.24,.77,2.37,1.78,3.09,1.02,.65,2.31,.68,3.36,.08,.18-.09,.41-.01,.5,.17,.09,.18,.01,.41-.17,.5-.62,.31-1.3,.48-1.99,.49Z"/>
          <path class="cls-13" d="M47.55,61.59c.62,0,2.23-1.3,2.37-2.29s-4.88-.77-4.93,0c-.11,1.13,1.95,2.28,2.56,2.29Z"/>
          <path class="cls-12" d="M31.15,40.51c6.2,5.73,18.14,9.76,26.88,10.52l-.22-3.56,2.67,3.56s3.75-.1,9.51-2.84c4.76-2.27,11.08-6,16.32-6.5-5.56-2.74-16.42,2.49-28.51-2.74,0,0-15.92,3.47-26.65,1.56Z"/>
          <path class="cls-5" d="M31.15,40.51c6.2,5.73,18.14,9.76,26.88,10.52l-.22-3.56,2.67,3.56s3.75-.1,9.51-2.84c4.76-2.27,11.08-6,16.32-6.5-5.56-2.74-16.42,2.49-28.51-2.74,0,0-15.92,3.47-26.65,1.56Z"/>
          <path class="cls-12" d="M61.32,40.15c-2.67-9.3-5.54-18.92-6.02-21.54-.67-3.93-.64-6.43,1.46-7.06,2.93-.88,4.61,.07,5.85,1.89,1.56,2.3-1.77,3.78-2.29,8.08-.76,6.23,7.52,6.83,8.78,4.62-6.05,.49-4.97-5.31-2.53-6.19,2.75-.98,5.51-2.05,6.04-4.01,.53-1.96,.59-5.45-6.04-10.47-6.62-5.02-20.32-9.17-27.73-.2-7.42,8.97-9.88,12.92-16.75,34.9,2.02,2.39,28.47,6.16,39.23-.02Z"/>
          <g class="cls-10">
            <path d="M60.34,21.53c-.2,1.26,.11,2.55,.85,3.59,.7-.83,1.89-1.9,3.48-2.04,.01-.57,.15-1.13,.4-1.64-1.43-.49-3.37-.56-4.74,.08Z"/>
            <path d="M55.72,12.2c-1.79-1.04-5.55-3.41-8.29-6.24-1.34-1.38-2.46-2.94-3.34-4.65-2.03,.88-3.82,2.24-5.23,3.96l-1.09,1.32c4.19,3.97,12.55,8.39,17.17,9.27-.1-1.67,.09-2.91,.78-3.65Z"/>
            <path d="M63.64,13.45c1.74-2.55,4.72-3.94,6.7-4.61-1.12-1.25-2.37-2.38-3.72-3.38h0c-2.19,1.75-3.73,5.51-4.39,7.41,.15,.18,.29,.37,.42,.57,.24,.34,.39,.74,.41,1.16,2.67-.4,6.59-.39,9.17,2.24,.2-.27,.35-.57,.44-.9,.24-.86,.27-1.76,.11-2.63-2.43-1.11-5.88-1.04-9.14,.14Z"/>
            <path d="M60.09,35.89c-.61-2.11-1.21-4.18-1.78-6.13-7.77,3.05-23.71,2.12-31.86-2.75-.98,2.74-2.06,5.91-3.26,9.68,2.44,.67,12,3.27,12.16,3.13s16.29-1.98,16.29-1.98l8.45-1.95Z"/>
            <path d="M62.45,16.4c-.32,.58-.73,1.2-1.11,1.95,1.73,0,3.34,1.01,4.56,2.04,.21-.18,.45-.33,.71-.42,1.11-.38,2.19-.82,3.25-1.32-1.67-1.83-4.53-2.39-7.41-2.24Z"/>
            <path d="M54.45,.31c.61,3.5,2.44,8.29,4.21,10.9,.78-.04,1.55,.14,2.23,.52-.63-3.19-.11-6.97,.38-9.36-2.18-.96-4.47-1.65-6.82-2.05Z"/>
            <path d="M56.8,24.46c-.75-2.69-1.29-4.76-1.46-5.81-3.75,.46-15.65,1.37-23.22-4.18-1.26,2.15-2.38,4.38-3.35,6.67,8.54,4.53,20.9,5.01,28.03,3.32Z"/>
          </g>
          <path class="cls-13" d="M42.58,37.34c-9.84,.34-16.87-2.17-18.68-2.96-.57,1.83-1.17,3.76-1.8,5.79,2.02,2.39,28.47,6.16,39.23,0-.49-1.72-1-3.66-1.61-5.61-1,.47-4.68,2.36-17.13,2.78Z"/>
          <path class="cls-1" d="M50.32,40.02c-.16,2.96-2.68,5.23-5.64,5.07s-5.23-2.68-5.07-5.64c.15-2.86,2.52-5.09,5.38-5.08h.16c-2.2,.73-3.4,3.1-2.67,5.3,.73,2.2,3.1,3.4,5.3,2.67,1.14-.38,2.07-1.23,2.54-2.33h0Z"/>
          <path class="cls-12" d="M40.75,46.45c-4.65-2.32-11.95-7.46-20.24-14.68-8.28-7.22-16.63-6.7-19.42-.92l4.66,5.23H.04s-.76,4.53,4.39,12.53c3.37,5.25,12.72,10.13,14.88,11.01,0,0,.32-5.24,4.88-11.01,3.44-2.26,7.84-3.52,16.57-2.16Z"/>
          <path class="cls-6" d="M40.75,46.45c-4.65-2.32-11.95-7.46-20.24-14.68-8.28-7.22-16.63-6.7-19.42-.92l4.66,5.23H.04s-.76,4.53,4.39,12.53c3.37,5.25,12.72,10.13,14.88,11.01,0,0,.32-5.24,4.88-11.01,3.44-2.26,7.84-3.52,16.57-2.16Z"/>
          <path class="cls-5" d="M24.16,48.61c3.46-2.26,7.86-3.52,16.58-2.16h0c-3.57-1.78-8.7-5.22-14.63-9.99h0c-2.93,2.17-2.47,5.91-2.47,5.91-1.52-.35-3.12,0-4.35,.98,0,0,2.05,1.11,2.79,2.44,.54,.98-5.54,8.57-4.79,12.89,.88,.45,1.58,.78,2,.98,0-.03,.31-5.27,4.86-11.04Z"/>
          <path class="cls-12" d="M33.16,12.78c-2.25,3.52-4.11,7.27-5.56,11.19,2.99,1.71,7.39,2.05,8.1,1.9,1.01-.22,4.56-8.34,4.23-9.14-.28-.71-2.84-1.26-6.77-3.96Z"/>
          <path class="cls-5" d="M33.16,12.78c-2.25,3.52-4.11,7.27-5.56,11.19,2.99,1.71,7.39,2.05,8.1,1.9,1.01-.22,4.56-8.34,4.23-9.14-.28-.71-2.84-1.26-6.77-3.96Z"/>
          <path class="cls-2" d="M40.32,15.28c-.13,0-.25,.03-.36,.09l-.26,.11-.59,.25-.56,.24c-.1,.04-.19,.08-.28,.13-.12,.07-.23,.17-.32,.28-.06,.08-.06,.2,0,.28h0s.04,0,.06,0c.06,0,.13,0,.2,0,.13-.01,.26-.04,.38-.08l.65-.23,.65-.23c.11-.03,.21-.08,.32-.12s.29-.07,.35-.2,.03-.5-.23-.53Z"/>
          <path class="cls-2" d="M40.77,18.15c0-.11-.1-.3-.24-.3h-1.15c-.19,0-.38,0-.56-.03-.18-.01-.35-.01-.53,0-.15,0-.18,.31-.04,.36,.19,.09,.4,.15,.6,.19,.2,.03,.4,.06,.6,.08,.39,.05,.79,.06,1.19,.03,.14-.01,.16-.23,.14-.33Z"/>
          <path class="cls-2" d="M37.8,26.26c-.03-.12-.09-.24-.18-.33l-.17-.23-.39-.49c-.13-.16-.25-.33-.37-.49-.06-.08-.13-.17-.2-.24-.1-.1-.22-.18-.35-.24-.1-.03-.21,0-.27,.07h0s0,.04,0,.06c0,.07,.01,.13,.03,.2,.04,.12,.1,.24,.17,.35l.38,.58,.38,.58,.19,.28c.07,.11,.14,.26,.28,.29,.2,.03,.53-.12,.49-.39Z"/>
          <path class="cls-2" d="M35.12,27.39c.1-.05,.27-.18,.23-.31-.09-.37-.2-.74-.28-1.12-.04-.18-.07-.37-.1-.55-.03-.17-.08-.33-.13-.49-.04-.15-.34-.1-.36,.04-.04,.21-.05,.42-.04,.63,0,.2,.03,.4,.06,.6,.05,.39,.13,.78,.26,1.16,.04,.11,.26,.07,.35,.03Z"/>
          <path class="cls-2" d="M53.02,42.8c1.41-3.39,5.29-7.56,8.98-6.25,2.08,.74,.18,10.34,.18,10.34,0,0-2.47-3.59-9.16-4.09Z"/>
          <path class="cls-14" d="M62.01,36.55c-1.24-.21-4.09,1.66-5.51,6.86,4.09,1.17,5.69,3.48,5.69,3.48,0,0,1.89-9.6-.18-10.34Z"/>
          <path class="cls-4" d="M57.31,43.67c3.49,1.22,4.88,3.22,4.88,3.22,0,0,.49-2.48,.7-5.02-1.04-.19-2.1-.16-3.13,.08-.32-.94,.27-2.13,.27-2.13-1.21-.01-2.75,1.86-2.72,3.85Z"/>
          <path class="cls-3" d="M58,43.93c0-1.46,.95-2.93,2.13-3.17,0,0-.36,1.26,.11,2.08,0,0,3.27-1.23,4.64,.08-1.46,.84-2.45,2.3-2.7,3.97-1.52-1.9-4.18-2.97-4.18-2.97Z"/>
          <path class="cls-2" d="M36.12,45.96c-1-4.11-4.67-9.54-9.1-8.7-2.5,.49-2.04,11.71-2.04,11.71,0,0,3.53-3.07,11.14-3Z"/>
          <path class="cls-14" d="M27.01,37.25c1.46,0,4.54,2.8,5.23,8.96-2.59,.39-5.07,1.33-7.27,2.76,0,0-.44-11.25,2.04-11.72Z"/>
          <path class="cls-4" d="M31.25,46.41c-4.18,1.08-6.27,2.59-6.27,2.59,0,0-.12-2.93,.09-5.85,1.21-.03,2.42,.19,3.55,.65,.54-1.01,.07-2.47,.07-2.47,1.37,.2,2.95,2.8,2.56,5.08Z"/>
          <path class="cls-3" d="M30.67,46.6c.24-1.65-.98-3.75-2.27-4.23,0,0,.19,1.49-.49,2.35,0,0-3.5-1.98-5.29-.74,1.43,1.35,2.24,3.23,2.25,5.2,2.08-1.31,5.8-2.59,5.8-2.59Z"/>
        </g>
      </g>
    </g>
  </g>
</svg>