<?xml version="1.0" encoding="UTF-8"?>
<svg id="Camada_2" data-name="Camada 2" xmlns="http://www.w3.org/2000/svg" viewBox="0 0 21.89 21.89">
  <defs>
    <style>
      .cls-1 {
        fill: #5d9da6;
      }
    </style>
  </defs>
  <g id="Camada_1-2" data-name="Camada 1">
    <path class="cls-1" d="M17.78,8.89c0,1.96-.64,3.77-1.71,5.25l5.41,5.42c.53,.53,.53,1.4,0,1.94-.53,.53-1.4,.53-1.94,0l-5.41-5.42c-1.47,1.08-3.28,1.71-5.25,1.71C3.98,17.78,0,13.8,0,8.89S3.98,0,8.89,0s8.89,3.98,8.89,8.89Zm-8.89,6.16c3.4,0,6.16-2.76,6.16-6.16s-2.76-6.16-6.16-6.16S2.74,5.49,2.74,8.89s2.76,6.16,6.16,6.16Z"/>
  </g>
</svg>