<?xml version="1.0" encoding="UTF-8"?>
<svg id="Camada_2" data-name="Camada 2" xmlns="http://www.w3.org/2000/svg" viewBox="0 0 211.67 168">
  <defs>
    <style>
      .cls-1 {
        fill: #fff;
      }

      .cls-2 {
        fill: #dfebed;
      }

      .cls-3, .cls-4 {
        opacity: .5;
      }

      .cls-5 {
        fill: #c4cfd1;
      }

      .cls-6 {
        fill: #ff9bbc;
      }

      .cls-7 {
        fill: #ebebeb;
      }

      .cls-8 {
        fill: #ffc727;
      }

      .cls-9, .cls-10 {
        opacity: .1;
      }

      .cls-11 {
        fill: #865575;
      }

      .cls-12 {
        fill: #a66891;
      }

      .cls-10, .cls-4 {
        isolation: isolate;
      }

      .cls-13 {
        fill: #ad6359;
      }

      .cls-14 {
        fill: #263238;
      }
    </style>
  </defs>
  <g id="Camada_1-2" data-name="Camada 1">
    <g>
      <g class="cls-3">
        <polygon class="cls-1" points="211.67 9.05 208.47 23.8 205.2 38.53 198.63 67.98 191.86 97.41 188.47 112.11 185 126.79 188.19 112.04 191.48 97.31 198.05 67.85 204.8 38.43 208.19 23.73 211.67 9.05"/>
        <polygon class="cls-1" points="211.67 9.05 201.99 20.83 192.23 32.56 172.73 56.02 153.07 79.35 143.23 91.01 133.33 102.62 143.01 90.83 152.76 79.1 172.27 55.64 191.93 32.32 201.76 20.65 211.67 9.05"/>
        <polygon class="cls-1" points="211.67 9.05 196.92 16.89 182.14 24.66 152.56 40.19 122.9 55.53 108.05 63.21 93.19 70.8 107.92 62.95 122.71 55.19 152.29 39.66 181.95 24.3 196.79 16.63 211.67 9.05"/>
        <polygon class="cls-1" points="211.67 9.05 194.66 11.14 177.65 13.15 143.62 17.16 109.57 20.99 92.55 22.89 75.5 24.7 92.51 22.6 109.52 20.6 143.55 16.59 177.6 12.76 194.63 10.86 211.67 9.05"/>
        <path class="cls-1" d="M211.67,97.91c-1.44-1-3.01-1.79-4.66-2.35-1.65-.57-3.38-.9-5.13-.98-1.74-.1-3.49,.07-5.18,.51-1.69,.43-3.31,1.07-4.84,1.89l-.17,.08v-.18c-1.05-3.74-2.77-7.26-5.07-10.4-2.28-3.15-5.22-5.76-8.63-7.65-1.7-.94-3.5-1.66-5.37-2.16-.93-.27-1.88-.48-2.84-.65-.96-.12-1.92-.29-2.89-.32-3.89-.22-7.79,.13-11.58,1.04l-.31,.07v-.32c-.22-3.29-.95-6.54-2.15-9.61-1.15-3.1-2.91-5.93-5.18-8.34-1.15-1.18-2.44-2.22-3.83-3.11-1.41-.86-2.92-1.56-4.49-2.08-3.18-.98-6.5-1.4-9.82-1.24h-.27v-.27c.47-3.04,.56-6.12,.26-9.18-.29-3.06-1-6.07-2.13-8.94-.32-.71-.56-1.44-.94-2.11l-1.11-2.02c-.39-.66-.88-1.26-1.31-1.89l-.67-.93-.79-.85c-2.08-2.29-4.51-4.22-7.21-5.74l-.11-.06,.07-.08c.68-.85,1.2-1.82,1.55-2.85,.35-1.03,.43-2.13,.25-3.2-.21-1.07-.71-2.07-1.44-2.88-.36-.43-.75-.82-1.18-1.18-.44-.33-.9-.64-1.35-.94,.45,.31,.92,.6,1.36,.92,.43,.36,.82,.75,1.18,1.18,.75,.81,1.27,1.81,1.5,2.89,.21,1.09,.14,2.22-.21,3.27-.34,1.06-.85,2.05-1.53,2.93v-.15c2.76,1.48,5.24,3.4,7.35,5.71l.8,.85c.24,.31,.46,.62,.69,.94,.45,.64,.95,1.25,1.35,1.92l1.18,2.04c.38,.68,.64,1.42,.96,2.13,1.15,2.89,1.89,5.93,2.19,9.02,.32,3.1,.25,6.22-.21,9.31l-.24-.26c3.38-.19,6.77,.21,10.01,1.18,1.61,.53,3.15,1.24,4.6,2.11,1.43,.9,2.76,1.97,3.94,3.18,2.35,2.44,4.16,5.34,5.34,8.51,1.22,3.14,1.94,6.45,2.14,9.81l-.32-.25c3.83-.91,7.78-1.25,11.72-1,.99,.06,1.97,.17,2.95,.34,.96,.21,1.94,.35,2.88,.66,1.91,.52,3.74,1.28,5.46,2.25,3.45,1.93,6.43,4.59,8.72,7.8,2.31,3.18,4.02,6.75,5.05,10.53l-.21-.09c1.56-.82,3.22-1.45,4.94-1.86,1.71-.41,3.48-.56,5.24-.44,1.75,.1,3.49,.46,5.14,1.06,1.63,.6,3.16,1.42,4.56,2.45Z"/>
        <path class="cls-1" d="M211.67,65.49c-1.83-1.27-3.99-1.99-6.23-2.09-1.1-.06-2.21,.06-3.28,.34-1.06,.26-2.09,.66-3.05,1.18l-.17,.08-.06-.18c-.67-2.36-1.76-4.58-3.21-6.56-1.43-2-3.31-3.64-5.48-4.81-.53-.31-1.08-.57-1.66-.78-.56-.26-1.14-.46-1.74-.59l-1.79-.44-1.83-.16c-.3,0-.6-.07-.91-.08h-.92l-1.85,.08c-1.18,.14-2.43,.4-3.63,.59h-.31v-.29c-.15-2.08-.61-4.13-1.37-6.07-.73-1.95-1.85-3.73-3.28-5.25-1.42-1.53-3.23-2.66-5.23-3.26-.99-.34-2.01-.57-3.05-.69-1.04-.13-2.1-.08-3.15-.13h-.27v-.25c.3-1.92,.35-3.87,.17-5.81-.17-1.94-.62-3.85-1.34-5.66-.7-1.82-1.73-3.5-3.04-4.94-1.31-1.45-2.85-2.68-4.56-3.65l-.09-.06,.06-.08c.92-1.05,1.35-2.44,1.18-3.82-.13-.68-.44-1.31-.9-1.82-.23-.26-.48-.51-.75-.73-.27-.21-.57-.4-.85-.6,.3,.19,.59,.38,.88,.58,.27,.22,.52,.46,.76,.72,.49,.52,.82,1.16,.96,1.85,.14,.69,.1,1.41-.12,2.08-.21,.68-.54,1.31-.97,1.87v-.14c1.77,.93,3.38,2.15,4.73,3.61,1.35,1.46,2.42,3.16,3.15,5.01,.74,1.84,1.21,3.78,1.41,5.75,.2,1.96,.16,3.93-.13,5.88l-.24-.26c1.08,0,2.15,0,3.22,.11,1.08,.12,2.14,.35,3.16,.69,2.09,.61,3.98,1.76,5.47,3.34,1.5,1.56,2.67,3.4,3.43,5.42,.77,2.01,1.23,4.12,1.36,6.27l-.32-.26c1.18-.19,2.46-.44,3.7-.58l1.88-.07h.95l.94,.09,1.88,.19,1.83,.45c.61,.15,1.21,.36,1.78,.62,.59,.22,1.16,.49,1.69,.81,2.21,1.22,4.11,2.92,5.56,4.96,1.47,2.03,2.56,4.3,3.22,6.71l-.21-.09c.99-.52,2.05-.92,3.15-1.18,1.09-.26,2.22-.35,3.34-.27,2.23,.2,4.35,1.02,6.13,2.36Z"/>
        <path class="cls-1" d="M211.67,29.55c-.67-.45-1.45-.69-2.26-.71-.79-.01-1.58,.19-2.26,.59l-.15,.09-.06-.19c-.47-1.7-1.6-3.14-3.15-4.01-.77-.4-1.62-.64-2.49-.68-.43-.04-.87-.04-1.3,0-.44,0-.86,.14-1.3,.21h-.32v-.32c-.09-1.47-.66-2.87-1.63-3.99-.49-.55-1.13-.95-1.83-1.18-.71-.22-1.45-.32-2.19-.29h-.37v-.31c.22-1.37,.1-2.77-.37-4.08-.24-.65-.6-1.26-1.07-1.78-.46-.53-1.01-.98-1.61-1.34l-.09-.06,.07-.08c.33-.37,.48-.85,.43-1.34-.1-.5-.42-.93-.88-1.18,.48,.23,.84,.66,.97,1.18,.09,.53-.05,1.06-.38,1.48v-.14c.65,.33,1.25,.77,1.75,1.29,.5,.54,.9,1.17,1.18,1.85,.56,1.37,.74,2.87,.52,4.33l-.26-.31c.8-.04,1.6,.06,2.37,.29,.81,.25,1.53,.72,2.09,1.34,.57,.58,1,1.27,1.29,2.02,.29,.75,.46,1.55,.5,2.35l-.33-.26c.45-.07,.91-.16,1.37-.21,.46-.04,.93-.04,1.4,0,.94,.06,1.86,.33,2.68,.79,.81,.47,1.51,1.1,2.05,1.87,.54,.76,.94,1.6,1.18,2.49l-.21-.09c.73-.38,1.55-.55,2.37-.48,.83,.05,1.63,.34,2.3,.84Z"/>
        <path class="cls-1" d="M211.67,121.02c-.87-.69-1.85-1.22-2.9-1.58-1.05-.36-2.12-.62-3.22-.79-2.2-.29-4.43-.29-6.63,0-1.1,.08-2.18,.34-3.28,.51s-2.15,.52-3.22,.79-2.12,.65-3.16,1l-3.11,1.18h-.15v-.18c-1.24-4.77-3.65-9.16-7.01-12.78-3.35-3.63-7.45-6.49-12.03-8.38-4.57-1.86-9.41-3.01-14.33-3.39-4.93-.42-9.89-.35-14.81,.2h-.3v-.31c.05-4.29-.75-8.56-2.37-12.54-1.58-4-4.05-7.59-7.22-10.52-3.21-2.88-6.99-5.08-11.09-6.45-4.1-1.38-8.38-2.2-12.7-2.46h-.31l.11-.29c1.4-3.9,2-8.04,1.78-12.18-.19-4.15-1.24-8.21-3.08-11.94-1.86-3.72-4.38-7.06-7.45-9.88-3.06-2.83-6.46-5.29-10.12-7.31l-.14-.07,.14-.09c1.2-.86,2.25-1.91,3.1-3.12,.88-1.19,1.39-2.62,1.44-4.09,0-1.49-.47-2.93-1.36-4.13-.44-.59-.92-1.16-1.43-1.69l-1.7-1.44,1.72,1.42c.52,.53,1.01,1.09,1.46,1.68,.91,1.19,1.42,2.65,1.43,4.15-.05,1.5-.54,2.95-1.42,4.18-.85,1.24-1.91,2.32-3.12,3.2v-.16c3.71,1.97,7.15,4.4,10.24,7.25,3.1,2.84,5.67,6.21,7.56,9.95,1.86,3.77,2.93,7.88,3.16,12.07,.24,4.2-.36,8.41-1.76,12.38l-.2-.31c4.37,.23,8.69,1.05,12.84,2.44,4.18,1.37,8.03,3.58,11.3,6.51,3.25,2.96,5.77,6.63,7.37,10.72,1.64,4.06,2.44,8.41,2.37,12.79l-.28-.27c4.95-.55,9.94-.59,14.9-.14,4.98,.42,9.86,1.61,14.46,3.53,4.61,1.93,8.75,4.84,12.12,8.52,3.37,3.67,5.78,8.12,7,12.94l-.2-.12,3.14-1.18c1.05-.35,2.12-.65,3.18-.98s2.15-.52,3.24-.75,2.19-.41,3.3-.47c2.21-.26,4.45-.23,6.65,.11,1.1,.17,2.18,.45,3.22,.84,1.04,.37,2.01,.93,2.86,1.64Z"/>
      </g>
      <path class="cls-8" d="M185.9,103.46c-1.87,1.11-34.78-13.75-42.13-19.63s-34.23-21.28-51.03-31.94c-14.58-9.27-32.95-27.36-35.36-32.82-.37-.82-.37-1.35,0-1.53,.09-.03,.18-.05,.27-.06,3.21-.35,25.89,3.8,42.61,17.75,10.3,8.62,30.43,14.92,44.35,21.83,12.63,6.29,37.88,38.48,41.01,45.19,.34,.69,.44,1.11,.26,1.21Z"/>
      <path class="cls-11" d="M185.9,103.46c-1.87,1.11-34.78-13.75-42.13-19.63s-34.23-21.28-51.03-31.94c-14.58-9.27-32.95-27.36-35.36-32.82-.37-.82-.37-1.35,0-1.53,.09-.03,.18-.05,.27-.06,3.21-.35,25.89,3.8,42.61,17.75,10.3,8.62,30.43,14.92,44.35,21.83,12.63,6.29,37.88,38.48,41.01,45.19,.34,.69,.44,1.11,.26,1.21Z"/>
      <path class="cls-5" d="M184.48,167.39h-16.89c-3.41-8.42-5.54-17.3-6.34-26.34,0,0-1.29,9.41-1.95,18.65v.86l-.07,.85c-.13,2.08-.22,4.12-.26,5.99h-7.43c-.9-3.68-1.51-7.42-1.83-11.19,0,0-.71,5.18-1.28,11.19h-31.4l-12.68-.75-7.91-.48c.21-1.35,.37-2.67,.49-3.95h0c.09-.92,.15-1.84,.2-2.72,.14-2.74,.1-5.49-.11-8.23-.6-7.49-2.37-11.76-2.24-10.53,.46,5.6-.11,11.23-1.67,16.62h0c-.78,2.62-1.84,5.16-3.17,7.55l-.51,.87h-1.47l-4.55-.27-1.03-.07-2.47-.26h-.24l-4.1-.24c-1.3-.06,.47-1.95,2.71-4.82l.56-.75c.4-.53,.8-1.09,1.18-1.68l.09-.13c.5-.75,.99-1.54,1.43-2.35,1.34-2.23,2.05-4.77,2.07-7.36-.19-4.76-1.94-9.53-2.72-14.95,0-.38-.11-.76-.14-1.18-.59-4.6-.06-9.28,1.53-13.65,1.21-3.4,2.7-6.69,4.47-9.83,3.14-5.66,6.2-9.72,8.1-17.03h0c.17-.8,.28-1.61,.31-2.42v-.07c.07-1.76,0-4.05,0-6.67-.19-7.56-.45-18,2.28-27.06,.06-.22,.12-.44,.19-.66,.14-.45,.3-.89,.46-1.34,.15-.45,.32-.88,.5-1.32s.25-.6,.39-.89c.02-.07,.05-.14,.08-.2,1.67-3.96,4.34-7.43,7.76-10.06l.49-.34c1.89-1.35,3.97-2.4,6.18-3.13,1.92-.67,3.9-1.16,5.92-1.47,1.05-.17,2.12-.28,3.18-.34,1.18-.07,2.37-.07,3.55,0l.94,.08h.15l.56,.06,.85,.12c1.32,.19,2.62,.48,3.89,.86,.97,.27,1.92,.61,2.85,1,3.95,1.57,7.5,3.98,10.42,7.06,4.23,1.45,7.68,4.55,9.56,8.59l.08,.18c.35,.71,.65,1.44,.92,2.19,1.44,4.26,2.19,8.72,2.23,13.21v1.09c.08,5.26-.36,10.41-.64,14.46-.1,1.36-.05,2.73,.18,4.08,.28,1.66,.81,3.26,1.57,4.76,1.79,3.19,3.99,6.13,6.55,8.75h0c4.79,5.36,10.33,11.38,12.8,21.49,1.53,6.26,.75,11.63,0,16.93l-.25,1.72c-.83,5.95-1.34,11.91,1.79,18.98,0,.04,0,.07,0,.11,.2,.45,.41,.89,.64,1.34,0,.03,0,.06,0,.09,.95,1.76,2.04,3.44,3.24,5.04Z"/>
      <path class="cls-2" d="M187.14,167.39h0c-2.77-3.05-4.97-6.57-6.5-10.39-.77-2-1.17-4.13-1.18-6.27,.05-2.09,.26-4.17,.64-6.22,.06-.36,.13-.74,.19-1.11,.09-.55,.2-1.11,.3-1.66,.57-3.08,1.18-6.09,1.44-9.11,.47-3.83,.23-7.71-.72-11.45-1.05-3.7-2.89-7.13-5.39-10.06-2.65-2.99-5.48-5.81-8.49-8.45l-1.18-1.05h0c-2.71-2.43-5.05-5.23-6.96-8.32-.17-.28-.33-.58-.49-.87-1.77-3.4-2.56-7.22-2.26-11.03,.18,2.3,.71,4.57,1.59,6.71,.6,1.56,1.4,3.04,2.37,4.41,.3,.42,.6,.82,.92,1.18,2.27,2.62,4.79,5.02,7.53,7.15,3.28,2.52,6.34,5.31,9.16,8.33,2.9,3.18,5.03,6.99,6.23,11.12,1.09,4.12,1.35,8.42,.75,12.65-.59,3.81-1.38,7.59-2.37,11.32-.06,.24-.11,.48-.17,.72s-.13,.59-.2,.87c-.8,3.6-1.31,7.13-.27,10.59,1.16,3.87,2.87,7.55,5.07,10.94Z"/>
      <path class="cls-2" d="M99.08,50.43c-2.1,4.58-2.99,9.58-3.89,14.49s-1.38,9.92-1.89,14.87l-.82,7.39c-.23,2.39-.69,4.76-1.38,7.06-1.4,4.54-4.13,8.45-7.2,12.41-1.56,2.03-2.99,4.17-4.26,6.39-1.27,2.28-2.29,4.7-3.02,7.21-.65,2.49-1.11,5.04-1.36,7.6-.28,2.58-.23,5.18,.13,7.75,.36,2.56,.98,5.01,1.5,7.4,.52,2.37,.82,4.79,.89,7.22,.19,4.78-2.53,9.41-6.52,12.42,4.61-2.52,7.64-7.17,8.07-12.38,.14-2.55,.02-5.11-.36-7.63-.34-2.52-.89-4.93-1.07-7.32-.31-4.8,.26-9.61,1.68-14.21,.71-2.26,1.66-4.45,2.83-6.52,1.23-2.09,2.6-4.1,4.11-6.01,1.47-1.99,3.01-4.05,4.34-6.28,1.36-2.25,2.43-4.65,3.18-7.16,.67-2.5,1.1-5.06,1.28-7.63,.22-2.51,.37-5,.5-7.49,.3-4.98,.52-9.93,.95-14.88,.26-4.96,1.03-9.89,2.31-14.69Z"/>
      <path class="cls-13" d="M132.07,119.71h0c-.38,3.89-3.1,8.91-6.02,12.47-7.2,8.49-15.2,16.28-23.89,23.26-1.65,1.35-3.33,2.68-5.02,4.01-2.37,1.84-4.73,3.65-7.2,5.4l-1.18,.84-.57,.41-.8,.56-1.03,.73H14.97c-4.72-11.13-8.21-22.73-10.43-34.6-.12-.67-.24-1.34-.34-2.01-.34-2.06-.63-4.12-.86-6.18-.53-4.54-.76-9.11-.69-13.68,.09-4.8,43.2-3.99,44.63,2.59,.45,2.08,1.27,5.51,2.23,9.33l.95,3.71c1.75,6.76,3.73,13.83,4.86,16.65,.21,.52,2.07,0,5.04-1.08,.9-.34,1.89-.73,2.98-1.18l.65-.27,1.46-.62,.96-.42,1.94-.87,.49-.22,2.18-.99,4.36-2.02,2.46-1.18,3.11-1.49c10.65-5.13,22.26-10.88,29.33-14.12,2.69-1.28,5.46-2.4,8.29-3.36,.62-.2,1.18-.38,1.76-.53h.17c9.3-2.67,12.03,.35,11.58,4.88Z"/>
      <path class="cls-12" d="M133.77,118.31c-.27,3.75-3.42,9.81-11.22,19.22-3.74,4.48-7.73,8.73-11.97,12.75-.6,.59-1.18,1.18-1.86,1.74-2.23,2.09-4.51,4.11-6.85,6.08-1.63,1.4-3.29,2.75-4.96,4.09-1.18,.99-2.47,1.95-3.72,2.91l-3.02,2.28h0l-.83,.61c-.13-.2-.25-.41-.37-.61H13.38c-6.55-16.53-11.54-34.22-11.54-34.22l2.73-.38,45.91-6.25,3.67-.51h.19v.54c0,2.84,.3,15.87,1.66,16.34,1.42-.32,2.79-.83,4.08-1.49l3.01-1.34,.63-.29,1.38-.62,.95-.45,1.91-.88,.41-.2,2.27-1.07,4.6-2.19,2.57-1.24,3.01-1.45c12.03-5.82,24.86-12.15,29.52-14.39,2.9-1.34,5.91-2.41,9.01-3.21l1.07-.27h.07c5.04-1.18,10.13-1.44,12.27,.93,.82,.99,1.18,2.28,1.01,3.55Z"/>
      <path class="cls-1" d="M1.81,133.17l52.51-7.15s.73-4.71-.46-4.91-3.09,3.82-3.09,3.82c0,0-2.01-4.35-4.32-4.07s-2.89,5.34-2.89,5.34c0,0-2.89-5.02-4.73-4.71s-2.37,5.66-2.37,5.66c0,0-2.91-5.29-5.33-4.94s-3.86,6.01-3.86,6.01c0,0-2.57-5.11-5.43-4.36s-2.27,5.88-2.27,5.88c0,0-2.89-4.29-5.39-3.95s-3.16,5.26-3.16,5.26c0,0-2.51-4.07-4.37-3.91s-1.95,4.2-1.95,4.2c0,0-2.89-3.12-4.26-2.24s1.37,4.06,1.37,4.06Z"/>
      <path class="cls-10" d="M133.91,118.18h0c-.19,3.69-3.34,9.83-11.33,19.54-3.73,4.43-7.74,8.62-12,12.55-.6,.59-1.18,1.18-1.86,1.74-2.18,2.01-4.47,4.04-6.85,6.05-1.63,1.39-3.28,2.75-4.96,4.09-1.18,1-2.47,1.98-3.72,2.94l-3.02,2.28h0l-.83,.61c-.13-.2-.25-.41-.37-.61h-1.99c.14-.24,.28-.48,.41-.73l.56-.96v-.06c1.5-2.56,3.23-5.39,5.1-8.34h0c1.25-1.99,2.56-4.02,3.91-6.09,5.04-7.79,10.57-16.01,15.14-23.03,3.55-5.43,6.51-10.15,8.23-13.38,.02-.05,.05-.11,.08-.15,.02-.04,.04-.09,.06-.14l.26-.48c4.91-1.08,9.79-1.39,11.97,.73,.9,.91,1.35,2.18,1.21,3.45Z"/>
      <path class="cls-8" d="M88.97,167.39h-14.27c-1.01-1.69-2.01-3.38-2.98-5.02-.01-.02-.01-.04,0-.06-4.69-7.73-8.62-14.55-9.8-16.62-.31-.58-.85-1.81-1.57-3.53l-.3-.71c-1.42-3.53-3.44-8.75-5.74-14.85l-.2-.52c-.5-1.33-1.02-2.69-1.55-4.09-1.42-3.81-2.94-7.83-4.44-11.89l-2.9-7.75c-1.55-4.16-3.07-8.23-4.49-12.01-.13-.38-.26-.74-.4-1.11-1.34-3.6-2.58-6.91-3.65-9.73-.17-.44-.32-.86-.49-1.27-.44-1.18-.84-2.24-1.18-3.19-.92-2.41-1.6-4.12-1.94-4.88-.32-.77-.6-1.55-.83-2.35v-.08c-.83-2.75-1.92-7.06-3.04-12-3.22-14.12-6.73-33.28-5.74-34.99,1.48-2.52,9.71-8.89,12.75-5.38,3.76,4.34,4.98,32.08,9.18,48.23,.32,1.18,.65,2.35,1.01,3.47,.2,.62,.92,2.75,2.01,5.88,.12,.39,.26,.78,.39,1.18l3.55,10.43c0,.19,.13,.38,.19,.56l3.33,9.69c5.46,15.83,11.84,33.97,14.78,41.67,.14,.34,.26,.66,.39,.96,.33,.96,.75,1.88,1.25,2.76,.49,.54,2.58,3.85,5.43,8.48l1.53,2.49h0l2.37,3.88c2.02,3.34,4.19,6.94,6.32,10.48v.07l.25,.4c.26,.51,.52,.94,.78,1.36Z"/>
      <g class="cls-9">
        <path d="M35.32,18.12c0-.22-.41-.22-.41,0-.15,4.46-4.39,5.48-7.63,7.22-.32,.16-.21,.73,.19,.65,3.78-.81,8.19-3.62,7.86-7.87Z"/>
        <path d="M58.21,123.69c-5.36-15.18-10.65-30.39-15.94-45.56-5.44-15.46-10.29-31.05-13.02-47.23-.02-.1-.11-.18-.22-.16s-.18,.11-.16,.22h0c1.31,16.06,6.6,31.48,12.04,46.56,5.57,15.46,11.43,30.82,17.09,46.26,.08,.12,.26,.04,.21-.08Z"/>
        <path d="M84.83,167.39h-.91c-.51-.71-1.04-1.4-1.57-2.11-1.33-1.75-2.69-3.53-4.04-5.22-.58-.74-1.18-1.48-1.73-2.21-.17-.24-.36-.47-.53-.71-3.7-4.64-6.92-9.65-9.6-14.94-.35-.73-.68-1.46-.99-2.19-.13-.29-.25-.58-.37-.87-5.17-12.51-6.44-26.34-12.65-38.48,0-.07,.08-.12,.12,0,7.1,11.76,8.29,25.6,13.48,38.08,.12,.31,.24,.6,.38,.89,.31,.74,.64,1.47,.98,2.19,2.57,5.09,5.62,9.92,9.13,14.42l.62,.81,1.73,2.29c1.52,2.01,3.04,4.01,4.51,6.05,.5,.62,1.03,1.31,1.46,1.99Z"/>
        <path d="M80.78,167.39h-.33c-.28-.74-.53-1.51-.76-2.27l-.11-.34c0-.11,.14-.15,.18-.06l.14,.41c.26,.76,.56,1.52,.88,2.26Z"/>
        <path d="M80.14,157.44c-4.86-7.79-9.67-15.46-13.8-23.68,0-.09-.2,0-.15,.07,3.43,8.53,8.06,16.53,13.77,23.76,.09,.12,.27-.02,.19-.15Z"/>
        <path d="M75.96,161.88c-3.68-4.85-6.92-10.02-9.66-15.46-2.57-5.35-3.68-11.26-6.55-16.47-.08-.14-.31,0-.24,.11,2.69,5.68,3.63,11.98,6.47,17.65,2.62,5.19,6.29,9.75,9.78,14.39,.09,.07,.34-.08,.19-.21Z"/>
        <path d="M47.23,80.31c-6.85-14.33-7.79-30.3-12.68-45.23,0-.18-.34-.08-.31,.09,3.47,15.21,5.4,31.25,12.75,45.24,.07,.14,.31,.05,.24-.11Z"/>
        <path d="M55.16,101.32c-1.95-6.26-4.61-12.28-7.92-17.95,0-.07-.17,0-.12,0,2.89,5.88,5.34,11.93,7.8,18,.06,.27,.27,.11,.24-.05Z"/>
        <path d="M39.74,47.21c-.29-7.53-1.33-15.02-3.11-22.35,0-.03-.03-.06-.06-.06s-.06,.03-.06,.06h0c1.1,7.45,1.93,14.93,2.95,22.35,0,.08,.06,.14,.14,.14s.14-.06,.14-.14Z"/>
      </g>
      <path class="cls-13" d="M3.35,124.63S-.83,114.53,.15,99.86c.67-10.14,4.64-32.05,31.96-45.7,6.47-3.24,14.88,.14,8.53,6.66-6.34,6.52-11.15,7.88-14.03,12.28,0,0,14.67,1.66,17.67,8.23,1.35,2.93,4.73,9.09,6.51,15.78,0,0-1.18,2.72-3.09,3.53,0,0,2.62,6.23-1.4,15.72L3.35,124.63Z"/>
      <path class="cls-13" d="M1.72,98.04c2.66-4.62,8.47-14.33,16-20.63,8.37-6.99,26.38-18.22,31.51-12.03,3.76,4.54-2.73,9.41-2.73,9.41,0,0,8.43-3.08,10.92,1.76,2.28,4.4-2.97,7.89-2.97,7.89,0,0,5.43-1,6.81,3.67,1.65,5.61-10.03,6.78-13.3,13.89-.73,1.61-46.23-3.96-46.23-3.96Z"/>
      <path class="cls-14" d="M23.69,87.43c3.22-3.94,12.85-11.02,22.6-12.72,.22,0,.37,.12,.18,.19-8.06,3.27-15.68,7.51-22.7,12.62l-.07-.09Z"/>
      <path class="cls-14" d="M31.04,95.62c3.14-3.12,13.39-9.98,23.32-11.35,.22,0,.37,.13,.17,.2-8.2,2.87-16.05,6.66-23.39,11.29,0,0-.13-.11-.09-.14Z"/>
      <path class="cls-13" d="M183.74,167.39H104.79c-.17-.25-.32-.49-.46-.75-1.58-2.57-2.43-5.52-2.46-8.53h0v-.65c.04-.67,.12-1.33,.24-1.99,1.11-6.85,5.74-18.12,10.01-27.29,2.54-5.49,4.98-10.23,6.46-12.85,.27-.48,.52-.89,.72-1.18,.17-.29,.37-.56,.58-.82,.14-.14,.27-.29,.43-.44h0c.88-.91,1.81-1.76,2.81-2.54h.07c.75-.59,1.54-1.13,2.37-1.62,.17-.09,.33-.2,.5-.28,1.14-.65,2.36-1.18,3.62-1.55,.44-.14,.89-.25,1.34-.34,1.26-.27,2.55-.37,3.83-.31h.09c.59,.02,1.17,.09,1.75,.19h0c1.42,.23,2.81,.62,4.14,1.18h0c1.59,.68,3.1,1.51,4.52,2.48l.45,.32c.66,.47,1.34,.98,2.02,1.54,12.12,9.93,23.86,30.52,32.69,48.95,0,.04,0,.07,0,.11l.64,1.34s0,.06,0,.09c.99,1.63,1.85,3.28,2.58,4.94Z"/>
      <path class="cls-12" d="M183.74,167.39H104.79c-.17-.25-.32-.49-.46-.75-1.58-2.57-2.43-5.52-2.46-8.53h0v-.65c.04-.67,.12-1.33,.24-1.99,1.11-6.85,5.74-18.12,10.01-27.29,2.54-5.49,4.98-10.23,6.46-12.85,.27-.48,.52-.89,.72-1.18,.17-.29,.37-.56,.58-.82,.14-.14,.27-.29,.43-.44h0c.88-.91,1.81-1.76,2.81-2.54h.07c.75-.59,1.54-1.13,2.37-1.62,.17-.09,.33-.2,.5-.28,1.14-.65,2.36-1.18,3.62-1.55,.44-.14,.89-.25,1.34-.34,1.26-.27,2.55-.37,3.83-.31h.09c.59,.02,1.17,.09,1.75,.19h0c1.42,.23,2.81,.62,4.14,1.18h0c1.59,.68,3.1,1.51,4.52,2.48l.45,.32c.66,.47,1.34,.98,2.02,1.54,12.12,9.93,23.86,30.52,32.69,48.95,0,.04,0,.07,0,.11l.64,1.34s0,.06,0,.09c.99,1.63,1.85,3.28,2.58,4.94Z"/>
      <path class="cls-13" d="M140.88,109.38c-.41,1.87-9.17,14.12-17.75,13.83-2.79-.09-2.96-15.29-2.96-15.29l-.27-1.12-3.78-15.63,18.36-12.11,2.66-1.61s.75,4.35,1.62,9.76c0,.26,.08,.51,.12,.78s.12,.59,.17,.88c.14,.8,.27,1.64,.4,2.46,.09,.62,.19,1.24,.27,1.89s.17,1.32,.26,1.98c.63,4.7,.93,9.44,.9,14.18Z"/>
      <path class="cls-12" d="M120.24,110.12s.11,13,2.9,13.08c8.57,.28,17.33-11.94,17.75-13.82,.15-1.86,.11-3.73-.13-5.58-.46,.32-9.79,7.16-20.52,6.32Z"/>
      <path class="cls-1" d="M140.75,103.83s-10.06,7.46-20.51,6.29c0,0-1.18-2-.64-2.66s2.24,1.95,2.24,1.95c0,0,.2-2.06,1.34-2.51s2.72,2.06,2.72,2.06c0,0,.59-2.69,2.12-2.94s2.54,1.85,2.54,1.85c0,0,.69-3.16,2.02-3.45s2.37,1.75,2.37,1.75c0,0,.73-2.66,1.59-2.96s1.87,1.31,1.87,1.31c0,0,1.25-2.64,1.95-2.71s.39,2.01,.39,2.01Z"/>
      <path class="cls-14" d="M116.15,91.2l3.2,13.26c10.17-1.18,17.04-10.81,19.74-15.39,0-.06,0-.12,0-.18,0-.27-.11-.56-.17-.87s-.07-.52-.12-.78c-.88-5.41-1.62-9.75-1.62-9.75l-2.66,1.6-18.37,12.11Z"/>
      <path class="cls-13" d="M94.78,66.56c-3.28,28.02,13.22,33.15,19.31,33.9,5.53,.64,24.41,2.11,30.59-25.43s-5.92-37.92-18.43-40-28.17,3.51-31.46,31.53Z"/>
      <path class="cls-14" d="M105.4,61.35c.65,0,1.25-.15,1.91-.24,.71,.01,1.39-.22,1.95-.65,.29-.33,.33-.81,.09-1.18-.59-.66-1.5-.95-2.37-.76-.9,.06-1.74,.44-2.37,1.08-.39,.43-.35,1.09,.09,1.48,.19,.17,.44,.26,.69,.26Z"/>
      <path class="cls-14" d="M125.41,62.96c-.65-.13-1.18-.35-1.85-.54-.68-.1-1.3-.43-1.78-.92-.24-.37-.19-.85,.11-1.18,.69-.56,1.63-.71,2.45-.38,.88,.19,1.65,.71,2.15,1.45,.3,.5,.13,1.14-.37,1.43-.22,.13-.47,.17-.72,.13Z"/>
      <path class="cls-14" d="M120.47,69.37c0-.07,.14,.11,.13,.18-.26,1.87-.24,4.05,1.4,4.85,.06,0,0,.12,0,.11-2.08-.51-2.08-3.45-1.53-5.13Z"/>
      <path class="cls-14" d="M122.35,67.58c3.05,.09,2.66,6.15-.17,6.07s-2.39-6.13,.17-6.07Z"/>
      <path class="cls-14" d="M123.53,67.98c.51,.38,.99,1.02,1.63,1.18s1.34-.48,1.86-1.06c.06-.06,.11,0,.11,.07-.06,1.18-.59,2.35-1.86,2.42s-1.91-1-2.12-2.19c-.04-.27,.17-.58,.38-.42Z"/>
      <path class="cls-14" d="M108.98,68.16c0-.08-.15,.07-.15,.15,0,1.88-.43,4.04-2.17,4.55-.06,0-.06,.12,0,.11,2.11-.16,2.59-3.02,2.32-4.81Z"/>
      <path class="cls-14" d="M107.41,66.1c-3.03-.41-3.61,5.63-.8,6.01s3.35-5.68,.8-6.01Z"/>
      <path class="cls-14" d="M106.11,66.35c-.52,.27-1.05,.81-1.62,.8s-1.1-.73-1.47-1.4c0-.07-.09,0-.09,.06-.15,1.18,.12,2.35,1.18,2.73s1.85-.62,2.24-1.75c.09-.18-.04-.52-.24-.44Z"/>
      <path class="cls-14" d="M117.44,84.89c-.46,.42-.94,1.02-1.62,1.07-.7-.03-1.39-.2-2.02-.52-.06,0-.12,0-.08,.09,.53,.77,1.44,1.18,2.37,1.07,.8-.19,1.4-.83,1.53-1.64,.05-.11-.06-.15-.17-.08Z"/>
      <path class="cls-14" d="M110.06,77.5s-.6,2.78-.71,4.09c0,.12,.31,.21,.76,.27h0c2.29,.6,4.73-.12,6.32-1.87,.04-.07,.02-.15-.04-.2-.04-.03-.1-.03-.15,0-1.79,1.02-3.87,1.44-5.92,1.18-.07-.38,1.18-4.71,.98-4.71-1.04,.01-2.07,.17-3.07,.46,1.09-5.82,3.11-11.41,4.12-17.21,0-.21-.27-.29-.34-.12-2.53,5.72-3.94,12.38-5.23,18.35-.08,.72,2.73-.07,3.28-.25Z"/>
      <path class="cls-14" d="M110.3,81.64c.74,1.15,1.75,2.09,2.96,2.73,.66,.32,1.41,.44,2.14,.33,1.61-.27,1.78-1.69,1.6-2.94-.1-.67-.28-1.32-.53-1.94-1.81,1.25-3.97,1.89-6.17,1.82Z"/>
      <path class="cls-6" d="M113.26,84.35c.66,.32,1.41,.44,2.14,.33,1.61-.27,1.78-1.69,1.6-2.94-1.71-.1-3.26,.98-3.74,2.61Z"/>
      <path class="cls-2" d="M142.21,77.02c-4.04,.29-3.79-16.53-3.79-16.53-5.29-1.33-9.71-4.93-12.05-9.82,0,0-8.76,4.95-21.39,2.58-8.65-1.62-11.23-8.85-9.61-14.19,2.26-7.46,12.24-10.88,22.56-9.71,13.02,1.49,21.51,11.76,21.51,11.76,0,0,5.59,1.88,8.91,9.8,2.51,6.02-1.3,25.74-6.14,26.1Z"/>
      <path class="cls-13" d="M143.51,85.31c-.43,.15-.87,.25-1.33,.29-.44,.06-.89,.06-1.34,0-.58-.07-1.13-.27-1.62-.58-.39-.24-.74-.52-1.04-.86-.44-.47-.79-1.02-1.03-1.61l1.8-7.49s6.46-8.61,10.4-6.29c3.94,2.32-1.04,14.94-5.85,16.54Z"/>
      <path class="cls-14" d="M147.83,72.35c.07,0,.08,.09,0,.12-3.35,1.24-5.18,4.24-6.5,7.36,.77-1.24,2.41-1.62,3.65-.85,.12,.07,.23,.16,.34,.25,.08,.06,0,.19-.09,.16-1.18-.41-2.49-.04-3.28,.93-.63,.79-1.18,1.65-1.63,2.56-.17,.29-.7,.12-.58-.21v-.08c.09-4.19,3.55-9.96,8.1-10.25Z"/>
      <path class="cls-12" d="M185.99,103.13c-3.14-6.68-30.08-39.92-42.61-46.17-13.86-6.89-33.91-13.16-44.17-21.74-16.57-13.91-38.26-18.09-41.43-17.74,10.17-2.16,50.4,9.41,50.4,9.41,0,0,1.99,0,25.5,11.94,24.86,12.61,35.51,28.05,36.79,29.97,9.1,13.59,14.62,30.01,15.53,34.33Z"/>
      <path class="cls-12" d="M200.11,40.78c-.69,2.91-2.07-2.28-2.56-7.67-.3-3.31-.92-6.39-2.25-7.6-3.01-2.71-11.09-10.07-11.09-10.07,0,0,.65,6.41-3.31,6.47-3.97,.06-4.2,.41-4.2,.41,0,0-.84,5.16-2.85,6.42s-6.91,1.8-6.34,5.33-5.85,24.88-5.85,24.88c-1.59-2.41-52.52-31.68-52.52-31.68,0,0,46.93-25.79,54.77-26.83,8.17-1.11,19.16-.22,23.67,3.42,4.51,3.65,13.08,18.73,13.2,21.05,.12,2.32,.41,11.27-.66,15.87Z"/>
      <path class="cls-4" d="M167.5,32.84c-.08-.67-.27-1.32-.57-1.93-.23-.9-.57-1.77-1.01-2.59-.83-1.57-1.42-3.26-1.75-5h0c.15,1.47,.46,2.91,.94,4.31,.21,.53,.47,1.04,.71,1.54-.45-.51-.96-.97-1.52-1.38-2.05-1.45-4.18-2.77-6.4-3.94-.07,0-.13,.09-.06,.14,3.48,2.35,7.46,4.27,9.37,8.93,.04,.22,.32,.19,.28-.08Z"/>
      <path class="cls-4" d="M176.72,22.28c-1.69-2.51-4.28-3.18-6.05-5.61h0c.62,1.17,1.45,2.22,2.45,3.09,.56,.46,1.18,.76,1.75,1.18s1.18,1.01,1.79,1.44c.06,.11,.17-.01,.06-.09Z"/>
      <path class="cls-14" d="M161.83,58.37s-18.94-18.46-52.7-31.09c-.79-.29,9.34-6.39,10.08-6.65s28.41,10.72,44.92,29.62c.75,.8-2.31,8.12-2.31,8.12Z"/>
      <path class="cls-7" d="M135.76,26.97c-.19-.28-.71-1.06-6.11-3.95-4.94-2.66-6.31-2.88-6.83-2.88h-.17c-.34,0-.65,0-1.62,1.04-.57,.56-1.36,1.46-2.53,2.87-1.33,1.57-2.56,3.21-3.68,4.93l-.08,.15-.13,.29v.11c-.1,.24-.16,.5-.19,.76-.03,.3,0,.6,.06,.89,.21,.94,.45,1.36,3.91,3.53l.7,.44,.41,.26c2.11,1.29,4.4,2.62,6.11,3.53,.85,.47,1.74,.86,2.65,1.18,.53,.23,1.14,.16,1.6-.19,.16-.14,.3-.29,.43-.46,.32-.39,.77-1,1.28-1.74,0-.09,.12-.19,.18-.28l.56-.84,.3-.45,.5-.81c1.52-2.46,3.01-5.21,3.15-6.46,.01-.15,.01-.31,0-.46-.02-.52-.18-1.03-.47-1.46Zm-7.1,8.4v.07c-.07,.12-.15,.24-.22,.33h0c-.33-.15-.77-.36-1.27-.62l-.25-.14-1.11-.6c-2.37-1.32-5.4-3.14-7.18-4.32,.14-.2,.31-.4,.47-.62,1.31-1.73,2.71-3.39,4.2-4.98,3.17,1.33,6.24,2.9,9.16,4.71-.58,1.18-1.55,2.79-2.46,4.22-.52,.74-.97,1.42-1.34,1.95Z"/>
      <path class="cls-13" d="M200.6,167.39h-37.95c-1.18-2.35-2.32-4.68-3.42-6.98-1.83-3.79-3.55-7.45-5.23-10.93-.46-1-.91-1.98-1.36-2.93l-1.02-2.2c-.99-2.16-1.93-4.21-2.78-6.12-.31-.67-.59-1.34-.88-1.99-.03-.05-.06-.1-.07-.15-1.05-2.35-2-4.62-2.83-6.66-1.32-3.13-2.41-6.36-3.27-9.65,0-.12-.06-.24-.08-.35-1.95-8.23,.24-10.89,4.21-9.18,1.27,.57,2.44,1.33,3.49,2.24,8.91,7.35,19.07,17.65,29.44,29.28,.49,.53,.97,1.07,1.44,1.62,.73,.82,1.47,1.65,2.19,2.48,6.07,6.92,12.18,14.2,18.11,21.5Z"/>
      <path class="cls-12" d="M202.1,167.39h-39.58c-1.11-2.35-2.2-4.63-3.25-6.83-1.85-3.87-3.61-7.59-5.23-11.07-.46-1-.91-1.98-1.36-2.93l-1.02-2.2c-.99-2.16-1.93-4.21-2.78-6.12l-1.18-2.73h0c-2.05-4.71-3.55-8.23-4.24-10.35-.59-1.78-1.18-3.53-1.55-5.32,0-.12-.06-.24-.08-.35-1.47-6.22-1.3-11.28,3.76-9.49,.7,.25,1.39,.56,2.04,.93,8.05,4.47,19.38,15.49,31.59,29.19l1.49,1.68c.76,.84,1.5,1.69,2.26,2.55,6.24,7.23,12.76,15.1,19.14,23.05Z"/>
      <path class="cls-1" d="M166,167.72h-.95l-1.29-2.66-1.57-3.33c-2.02-4.27-4.04-8.54-6-12.82-1.3-2.88-2.63-5.76-3.89-8.67-.14-.33-.3-.67-.44-1.01h0c-.96-2.21-1.88-4.44-2.75-6.68,.49,1.09,.98,2.18,1.5,3.26h0c.09,.2,.18,.39,.28,.59,.01,.05,.04,.11,.07,.15,.64,1.34,1.29,2.68,1.94,4.01l3.88,8.02,5.5,11.41,2.24,4.65,1.47,3.08Z"/>
    </g>
  </g>
</svg>