<?xml version="1.0" encoding="UTF-8"?>
<svg id="Camada_2" data-name="Camada 2" xmlns="http://www.w3.org/2000/svg" viewBox="0 0 277.81 277.75">
  <defs>
    <style>
      .cls-1 {
        fill: #dfebed;
      }
    </style>
  </defs>
  <g id="Camada_1-2" data-name="Camada 1">
    <path class="cls-1" d="M138.94,67.66c-39.42,0-71.21,31.79-71.21,71.21s31.79,71.21,71.21,71.21,71.21-31.79,71.21-71.21-31.79-71.21-71.21-71.21Zm0,117.51c-25.47,0-46.3-20.76-46.3-46.3s20.76-46.3,46.3-46.3,46.3,20.76,46.3,46.3-20.82,46.3-46.3,46.3h0Zm90.73-120.42c0,9.23-7.44,16.61-16.61,16.61s-16.61-7.44-16.61-16.61,7.44-16.61,16.61-16.61,16.61,7.44,16.61,16.61Zm47.16,16.86c-1.05-22.25-6.14-41.96-22.44-58.2C238.16,7.17,218.45,2.09,196.2,.98,173.27-.33,104.54-.33,81.61,.98c-22.19,1.05-41.9,6.14-58.2,22.37C7.11,39.59,2.09,59.3,.98,81.55-.33,104.48-.33,173.21,.98,196.14c1.05,22.25,6.14,41.96,22.44,58.2,16.3,16.24,35.95,21.32,58.2,22.44,22.93,1.3,91.66,1.3,114.6,0,22.25-1.05,41.96-6.14,58.2-22.44,16.24-16.24,21.32-35.95,22.44-58.2,1.3-22.93,1.3-91.6,0-114.53h0Zm-29.62,139.14c-4.83,12.15-14.19,21.51-26.4,26.4-18.28,7.25-61.67,5.58-81.87,5.58s-63.65,1.61-81.87-5.58c-12.15-4.83-21.51-14.19-26.4-26.4-7.25-18.28-5.58-61.67-5.58-81.87s-1.61-63.65,5.58-81.87c4.83-12.15,14.19-21.51,26.4-26.4,18.28-7.25,61.67-5.58,81.87-5.58s63.65-1.61,81.87,5.58c12.15,4.83,21.51,14.19,26.4,26.4,7.25,18.28,5.58,61.67,5.58,81.87s1.67,63.65-5.58,81.87Z"/>
  </g>
</svg>