<?xml version="1.0" encoding="UTF-8"?>
<svg id="Camada_2" data-name="Camada 2" xmlns="http://www.w3.org/2000/svg" viewBox="0 0 297.58 241.69">
  <defs>
    <style>
      .cls-1 {
        fill: #dfebed;
      }
    </style>
  </defs>
  <g id="Camada_1-2" data-name="Camada 1">
    <path class="cls-1" d="M266.99,60.23c.19,2.64,.19,5.29,.19,7.93,0,80.63-61.37,173.53-173.53,173.53-34.55,0-66.65-10.01-93.65-27.38,4.91,.57,9.63,.76,14.73,.76,28.51,0,54.76-9.63,75.72-26.06-26.81-.57-49.28-18.13-57.02-42.3,3.78,.57,7.55,.94,11.52,.94,5.48,0,10.95-.76,16.05-2.08-27.95-5.67-48.91-30.21-48.91-59.86v-.75c8.12,4.53,17.56,7.36,27.57,7.74-16.43-10.95-27.19-29.64-27.19-50.79,0-11.33,3.02-21.71,8.31-30.78,30.02,37.01,75.15,61.18,125.75,63.82-.94-4.53-1.51-9.25-1.51-13.97C145.01,27.38,172.2,0,206,0c17.56,0,33.42,7.36,44.56,19.26,13.78-2.64,27-7.74,38.71-14.73-4.53,14.16-14.16,26.06-26.81,33.61,12.27-1.32,24.17-4.72,35.12-9.44-8.31,12.08-18.69,22.85-30.59,31.53h0Z"/>
  </g>
</svg>