<?xml version="1.0" encoding="UTF-8"?>
<svg id="Camada_2" data-name="Camada 2" xmlns="http://www.w3.org/2000/svg" viewBox="0 0 291.94 291.94">
  <defs>
    <style>
      .cls-1 {
        fill: #dfebed;
      }
    </style>
  </defs>
  <g id="Camada_1-2" data-name="Camada 1">
    <path class="cls-1" d="M145.97,0C65.35,0,0,65.35,0,145.97s65.35,145.97,145.97,145.97,145.97-65.35,145.97-145.97S226.59,0,145.97,0Zm67.66,99.27c-2.2,23.08-11.7,79.09-16.54,104.95-2.05,10.94-6.08,14.61-9.98,14.96-8.48,.78-14.91-5.6-23.12-10.98-12.85-8.42-20.11-13.66-32.58-21.88-14.41-9.5-5.07-14.71,3.14-23.25,2.15-2.23,39.5-36.2,40.22-39.29,.09-.39,.18-1.82-.68-2.58-.86-.76-2.11-.5-3.02-.29-1.29,.29-21.81,13.86-61.57,40.7-5.83,4-11.1,5.95-15.83,5.85-5.21-.11-15.24-2.95-22.69-5.37-9.14-2.97-16.41-4.54-15.77-9.59,.33-2.63,3.95-5.32,10.86-8.06,42.55-18.54,70.93-30.76,85.13-36.67,40.54-16.86,48.96-19.79,54.45-19.89,1.21-.02,3.91,.28,5.66,1.7,1.16,1.01,1.9,2.42,2.08,3.95,.3,1.9,.38,3.83,.25,5.75Z"/>
  </g>
</svg>