<svg class="animated" id="freepik_stories-honey" xmlns="http://www.w3.org/2000/svg" viewBox="0 0 500 500" version="1.1" xmlns:xlink="http://www.w3.org/1999/xlink" xmlns:svgjs="http://svgjs.com/svgjs"><style>svg#freepik_stories-honey:not(.animated) .animable {opacity: 0;}svg#freepik_stories-honey.animated #freepik--flower-3--inject-3 {animation: 6s Infinite  linear wind;animation-delay: 0s;}svg#freepik_stories-honey.animated #freepik--bee-2--inject-3 {animation: 6s Infinite  linear floating;animation-delay: 0s;}svg#freepik_stories-honey.animated #freepik--flower-1--inject-3 {animation: 6s Infinite  linear wind;animation-delay: 0s;}svg#freepik_stories-honey.animated #freepik--flower-2--inject-3 {animation: 6s Infinite  linear wind;animation-delay: 0s;}svg#freepik_stories-honey.animated #freepik--bee-1--inject-3 {animation: 6s Infinite  linear floating;animation-delay: 0s;}svg#freepik_stories-honey.animated #freepik--honey-stick--inject-3 {animation: 6s Infinite  linear floating;animation-delay: 0s;}            @keyframes wind {                0% {                    transform: rotate( 0deg );                }                25% {                    transform: rotate( 1deg );                }                75% {                    transform: rotate( -1deg );                }            }                    @keyframes floating {                0% {                    opacity: 1;                    transform: translateY(0px);                }                50% {                    transform: translateY(-10px);                }                100% {                    opacity: 1;                    transform: translateY(0px);                }            }        </style><g id="freepik--background-simple--inject-3" class="animable" style="transform-origin: 252.671px 240.45px;"><path d="M90.79,124c27.92-59.45,127.06-51.06,165.31-9.25s50.7,68.59,85.21,53,78.52-11.44,81,38.16S384.44,314.14,320.26,331.49s-64.16,78.76-149.1,66.37c-46.31-6.76-47.36-56.86-40.82-98.31S58.41,192.92,90.79,124Z" style="fill: rgb(166, 104, 144); transform-origin: 252.671px 240.45px;" id="elaja463wqx7" class="animable"></path><g id="el69o3chehctr"><path d="M90.79,124c27.92-59.45,127.06-51.06,165.31-9.25s50.7,68.59,85.21,53,78.52-11.44,81,38.16S384.44,314.14,320.26,331.49s-64.16,78.76-149.1,66.37c-46.31-6.76-47.36-56.86-40.82-98.31S58.41,192.92,90.79,124Z" style="fill: rgb(255, 255, 255); opacity: 0.9; transform-origin: 252.671px 240.45px;" class="animable"></path></g></g><g id="freepik--Shadow--inject-3" class="animable" style="transform-origin: 250px 416.24px;"><ellipse id="freepik--path--inject-3" cx="250" cy="416.24" rx="193.89" ry="11.32" style="fill: rgb(245, 245, 245); transform-origin: 250px 416.24px;" class="animable"></ellipse></g><g id="freepik--flower-3--inject-3" class="animable" style="transform-origin: 378.253px 380.158px;"><path d="M409.26,347.81c10.06-4.59,8,2.86,8,2.86s5.31-2.44,9.43-1.64,2.21,4.78,2.21,4.78,5.23.68,7.23,3-2.47,4.71-2.47,4.71,3.55-.09,7.24,3.63-1.11,5.29-1.11,5.29,5,1.05,5.79,4.49-2.77,6.9-2.77,6.9,1.82-.58,3.72,3.51-3,7.19-3,7.19,3.71-1,4.13,2.39-6.52,6.14-6.52,6.14,2.82,1.5,2.56,3.69-6.9,3.29-6.9,3.29,6.39.23,4.44,1.92-35.88,9.71-52.09-6.5S392.73,355.36,409.26,347.81Z" style="fill: rgb(38, 50, 56); transform-origin: 415.397px 379.875px;" id="elz1a8dntor9m" class="animable"></path><g id="elw3skw8yrt4"><path d="M409.26,347.81c10.06-4.59,8,2.86,8,2.86s5.31-2.44,9.43-1.64,2.21,4.78,2.21,4.78,5.23.68,7.23,3-2.47,4.71-2.47,4.71,3.55-.09,7.24,3.63-1.11,5.29-1.11,5.29,5,1.05,5.79,4.49-2.77,6.9-2.77,6.9,1.82-.58,3.72,3.51-3,7.19-3,7.19,3.71-1,4.13,2.39-6.52,6.14-6.52,6.14,2.82,1.5,2.56,3.69-6.9,3.29-6.9,3.29,6.39.23,4.44,1.92-35.88,9.71-52.09-6.5S392.73,355.36,409.26,347.81Z" style="fill: rgb(255, 255, 255); opacity: 0.8; transform-origin: 415.397px 379.875px;" class="animable"></path></g><g id="elyu6yvghj18l"><g style="opacity: 0.7; transform-origin: 414.776px 380.361px;" class="animable"><path d="M387.22,389.67s.23-.43.65-1.16l.24.19c-.16.22-.24.35-.24.35l1.07,1.28.33,2a2.46,2.46,0,0,0,1.44.58c-.95.34-1.37.77-.88,1.3,1.23,1.32,23.05,2.93,29.21,2s19.91-2.66,23.16-4,5.06-5.41,3.58-6.94c-3.36-3.47-11.52-.33-15.44,0s-14.66,2.91-20.06,4.43-8.59,2.29-13,2.37h0c.79-.22,1.63-.49,2.58-.83,8.85-3.17,37.7-9.18,40.3-9.29s4.16-4,4.47-6.19c.42-2.92-5.48-4.92-8.84-4.25s-24.22,5.78-28.42,6.75c-2.77.64-10,5.41-14.55,8.59a49.23,49.23,0,0,1,16.68-10.53c13.2-4.92,29.65-4.47,31.33-8.28.95-2.15-3.38-6-9.18-6.15s-19.69,2.5-28,9.14a58.84,58.84,0,0,0-6.34,6c3.81-5.2,9.06-10.35,15.66-12.07,14.92-3.88,21.7-5,21.89-7,.28-2.92-1.24-4.59-11.27-2h0a25.13,25.13,0,0,0,4-1.92c2.18-1.75,1.11-4.91-3.28-4.63-3.61.23-13.1,4.68-19.46,9.67a73.38,73.38,0,0,1,11.26-7.87s1.94-3.61-2.39-3.84-26.14,11.11-30.6,38.61l.91,5.25a33.46,33.46,0,0,1,1-3.39Zm14.09-27.32c-5.55,6.14-16.18,25.33-16.26,25.46A65.17,65.17,0,0,1,401.31,362.35Z" style="fill: rgb(255, 255, 255); transform-origin: 414.711px 371.926px;" id="el58pz3onlcp3" class="animable"></path><path d="M439.29,401c2.69-1.34,8.08-4.31,7-6s-8.8-.41-15.18,1.13-15.89,2.15-25.85,1.26a71.3,71.3,0,0,1-16.44-3.27l-1,2.28.83.41-1.55.53s10.29,8.78,19.13,10.79,24.84,1,28.67,0,8.64-2.76,7.7-4.33c-1.46-2.42-7.39-.93-12.31-.43s-20.14-.39-24.73-1a43.53,43.53,0,0,1-8.09-2.52C414.35,403.94,437.07,402.13,439.29,401Z" style="fill: rgb(255, 255, 255); transform-origin: 416.766px 401.704px;" id="el4o9ykcjvhmc" class="animable"></path><path d="M433.14,409.35c-4.59.6-16.45,1.74-26.24-.61s-17.74-9.51-19-10-1.84,0-1.84,0c6.71,11.11,19.13,13.18,28.4,14.36s24.41-2,24.64-4.21C439.12,408.35,437.72,408.74,433.14,409.35Z" style="fill: rgb(255, 255, 255); transform-origin: 412.58px 405.938px;" id="elwpt7mim6l6" class="animable"></path></g></g><path d="M389.69,400.82a5.81,5.81,0,0,1-.4-.57,1.19,1.19,0,0,1-.36-.61l-.08-.1a.41.41,0,0,1,0-.53c-1.29-1.23,5.13,1.53,5.13,1.53s-3.88-2.88-4.32-4,4.35.33,2.34-.79-2.13-1.59-.44-2.8,1.09-.54-.12-.78c-1-.21-.87-.62.06-1.14a.22.22,0,0,1,.05-.12,5.31,5.31,0,0,1,1.65-1.4l.21-.15.12-.08,0,0a3.33,3.33,0,0,0,.4-.36l-.05-.1-.71.08a3.32,3.32,0,0,1-1.68-.27.41.41,0,0,1-.14-.12,5.85,5.85,0,0,1-2.32-.36c-.61-.34.12-1,.41-1.3s.53-.64.85-1a.49.49,0,0,1,.19-.26l.08-.06.15-.12.16-.17-.78.1c-.24.05-.59.24-.84.19-.42-.09-.46-.33-.41-.76a2.84,2.84,0,0,1,.6-1,.33.33,0,0,1,0-.17,4.6,4.6,0,0,1,.29-.59,4.35,4.35,0,0,1,.61-1.6c-1.68.74-4.09,4.18-4.32,3.69-.13-.27.82-2.26,1.59-4a.65.65,0,0,0,0-.13.43.43,0,0,1,0-.16,10.15,10.15,0,0,0,.2-2.27c-1.25,1.26-2.9,5.65-3.51,5.09s-.3-2.25-.28-2.9.56-3.18,0-3.62a7.63,7.63,0,0,0-.88,2.38,24,24,0,0,0-.6,2.64,38.66,38.66,0,0,1-1,4.31,19.33,19.33,0,0,1-2.12,4.33c-.91,1.52-2.14,1.71-3.7,2.45-1.18.57-2.36,1.16-3.52,1.76-3.29,1.7-6.54,3.48-9.78,5.29-19.33,10.8-35.34,13.53-51.92,8.86a1.31,1.31,0,1,0-.71,2.53A59.49,59.49,0,0,0,326.1,414c11.86,0,24-3.73,37.73-11.4,2.93-1.63,5.87-3.24,8.84-4.79,1.86-1,4.47-3.09,6.7-2.78,1.25.17,2.67,1.76,3.57,2.58a4.68,4.68,0,0,1,1.52,2.27c.58.86,1,1.82,1.56,2.68.23.34.47.67.71,1,.18-.39-.15-1-.23-1.38-.13-.58-.41-1.85.38-1.78a3.87,3.87,0,0,1,1.36.75c1.06.7,2,1.55,3.16,2.15.17.09.27.09.31,0-.31-.34-.61-.7-.92-1.06S390,401.31,389.69,400.82Z" style="fill: rgb(38, 50, 56); transform-origin: 351.403px 395.555px;" id="el2lqpzw19g4s" class="animable"></path><g id="el052s0mvm51ej"><path d="M389.69,400.82a5.81,5.81,0,0,1-.4-.57,1.19,1.19,0,0,1-.36-.61l-.08-.1a.41.41,0,0,1,0-.53c-1.29-1.23,5.13,1.53,5.13,1.53s-3.88-2.88-4.32-4,4.35.33,2.34-.79-2.13-1.59-.44-2.8,1.09-.54-.12-.78c-1-.21-.87-.62.06-1.14a.22.22,0,0,1,.05-.12,5.31,5.31,0,0,1,1.65-1.4l.21-.15.12-.08,0,0a3.33,3.33,0,0,0,.4-.36l-.05-.1-.71.08a3.32,3.32,0,0,1-1.68-.27.41.41,0,0,1-.14-.12,5.85,5.85,0,0,1-2.32-.36c-.61-.34.12-1,.41-1.3s.53-.64.85-1a.49.49,0,0,1,.19-.26l.08-.06.15-.12.16-.17-.78.1c-.24.05-.59.24-.84.19-.42-.09-.46-.33-.41-.76a2.84,2.84,0,0,1,.6-1,.33.33,0,0,1,0-.17,4.6,4.6,0,0,1,.29-.59,4.35,4.35,0,0,1,.61-1.6c-1.68.74-4.09,4.18-4.32,3.69-.13-.27.82-2.26,1.59-4a.65.65,0,0,0,0-.13.43.43,0,0,1,0-.16,10.15,10.15,0,0,0,.2-2.27c-1.25,1.26-2.9,5.65-3.51,5.09s-.3-2.25-.28-2.9.56-3.18,0-3.62a7.63,7.63,0,0,0-.88,2.38,24,24,0,0,0-.6,2.64,38.66,38.66,0,0,1-1,4.31,19.33,19.33,0,0,1-2.12,4.33c-.91,1.52-2.14,1.71-3.7,2.45-1.18.57-2.36,1.16-3.52,1.76-3.29,1.7-6.54,3.48-9.78,5.29-19.33,10.8-35.34,13.53-51.92,8.86a1.31,1.31,0,1,0-.71,2.53A59.49,59.49,0,0,0,326.1,414c11.86,0,24-3.73,37.73-11.4,2.93-1.63,5.87-3.24,8.84-4.79,1.86-1,4.47-3.09,6.7-2.78,1.25.17,2.67,1.76,3.57,2.58a4.68,4.68,0,0,1,1.52,2.27c.58.86,1,1.82,1.56,2.68.23.34.47.67.71,1,.18-.39-.15-1-.23-1.38-.13-.58-.41-1.85.38-1.78a3.87,3.87,0,0,1,1.36.75c1.06.7,2,1.55,3.16,2.15.17.09.27.09.31,0-.31-.34-.61-.7-.92-1.06S390,401.31,389.69,400.82Z" style="fill: rgb(255, 255, 255); opacity: 0.2; transform-origin: 351.403px 395.555px;" class="animable"></path></g></g><g id="freepik--honey-jar-2--inject-3" class="animable" style="transform-origin: 305.215px 312.73px;"><path d="M352.09,235.83v-22.9H258.34v22.9h0a44,44,0,0,0-28.12,41V407.91a7.54,7.54,0,0,0,7.54,7.54H372.67a7.54,7.54,0,0,0,7.54-7.54V276.85a44,44,0,0,0-28.12-41Z" style="fill: rgb(166, 104, 144); transform-origin: 305.215px 314.19px;" id="elqneepv83un" class="animable"></path><g id="elrp0yvk4ymyl"><path d="M380.2,276.85V407.92a7.54,7.54,0,0,1-7.53,7.54H237.76a7.55,7.55,0,0,1-7.54-7.54V276.85a43.69,43.69,0,0,1,4.62-19.59,40.93,40.93,0,0,1,3.09-5.28,43.81,43.81,0,0,1,20.41-16.15v-22.9H352.1v22.9a44,44,0,0,1,28.1,41Z" style="fill: rgb(255, 255, 255); opacity: 0.7; transform-origin: 305.21px 314.195px;" class="animable"></path></g><path d="M376.58,277.68V407.92a3.92,3.92,0,0,1-3.91,3.91H237.76a3.93,3.93,0,0,1-3.92-3.91V277.49C258.16,275.63,340.15,282.42,376.58,277.68Z" style="fill: rgb(166, 104, 144); transform-origin: 305.21px 344.494px;" id="elzn8bu763lpl" class="animable"></path><g id="elxd1erbyqsl"><path d="M376.58,277.68V407.92a3.92,3.92,0,0,1-3.91,3.91H237.76a3.93,3.93,0,0,1-3.92-3.91V277.49C258.16,275.63,340.15,282.42,376.58,277.68Z" style="fill: rgb(255, 255, 255); opacity: 0.2; transform-origin: 305.21px 344.494px;" class="animable"></path></g><path d="M233.84,277.68V407.92a3.92,3.92,0,0,0,3.92,3.91H372.67a3.92,3.92,0,0,0,3.91-3.91V277.49C353,271,269,296.77,233.84,277.68Z" style="fill: rgb(166, 104, 144); transform-origin: 305.21px 344.122px;" id="elgn0g2mux5o" class="animable"></path><g id="eljv53ykypoya"><path d="M288.68,279.3c-5.51-.22-11-.46-16.54-.6,0,0-12.41-.34-16.55-.49-9.18-.33-18.43-.13-18.43-.13l1.65.75a40.09,40.09,0,0,0,6.76,2.27c2.29.57,4.62,1,7,1.33s4.68.55,7,.72,4.7.27,7,.25a125.5,125.5,0,0,1-14-1.62A60,60,0,0,1,241.81,279l13.76.42,16.54.38c5.52.14,11,.2,16.55.26s11,.09,16.56.07C299.71,279.8,294.2,279.51,288.68,279.3Z" style="fill: rgb(255, 255, 255); opacity: 0.2; transform-origin: 271.19px 280.711px;" class="animable"></path></g><g id="elsnemvh17nk"><path d="M273,285.71a216.86,216.86,0,0,0,25.49-.89c8.48-.69,16.95-1.61,25.39-2.68l12.64-1.7,6.34-.82c2.12-.25,4.24-.48,6.36-.67,4.25-.41,8.51-.71,12.78-.79a79.11,79.11,0,0,1,12.78.56l0,.12a93.24,93.24,0,0,0-12.73.05c-4.24.26-8.47.65-12.69,1.13s-8.43,1.07-12.65,1.66-8.45,1.06-12.69,1.51c-8.47.91-17,1.72-25.46,2.27a211.49,211.49,0,0,1-25.55.37Z" style="fill: rgb(255, 255, 255); opacity: 0.2; transform-origin: 323.89px 282.079px;" class="animable"></path></g><g id="el5s50qb27bwe"><g style="opacity: 0.2; transform-origin: 307.295px 348.41px;" class="animable"><circle cx="317.88" cy="335.32" r="1.54" id="el5nh0kvpzao5" class="animable" style="transform-origin: 317.88px 335.32px;"></circle><circle cx="346.67" cy="367.57" r="1.54" id="el3k96ajkuwhl" class="animable" style="transform-origin: 346.67px 367.57px;"></circle><circle cx="248.49" cy="297.9" r="1.54" id="el1njhh8r5lpe" class="animable" style="transform-origin: 248.49px 297.9px;"></circle><circle cx="248.49" cy="390.24" r="1.54" id="elasqfapa9n16" class="animable" style="transform-origin: 248.49px 390.24px;"></circle><circle cx="305.21" cy="306.22" r="1.54" id="el1fh4i4up9zp" class="animable" style="transform-origin: 305.21px 306.22px;"></circle><circle cx="275.43" cy="322.25" r="2.48" id="el7dse003ksak" class="animable" style="transform-origin: 275.43px 322.25px;"></circle><circle cx="347.6" cy="326.02" r="2.48" id="elq2zsnse09i" class="animable" style="transform-origin: 347.6px 326.02px;"></circle><circle cx="280.31" cy="359.83" r="0.77" id="el9kmjb2cjq0h" class="animable" style="transform-origin: 280.31px 359.83px;"></circle><circle cx="250.03" cy="329.92" r="0.77" id="elonrqxzf4jpi" class="animable" style="transform-origin: 250.03px 329.92px;"></circle><circle cx="314.69" cy="381.94" r="0.77" id="ell3u5z342lt9" class="animable" style="transform-origin: 314.69px 381.94px;"></circle><circle cx="366.87" cy="296.36" r="0.77" id="eldilw5pq0lys" class="animable" style="transform-origin: 366.87px 296.36px;"></circle><circle cx="353.19" cy="365.26" r="0.77" id="elvexsra41zp" class="animable" style="transform-origin: 353.19px 365.26px;"></circle><circle cx="360.9" cy="400.46" r="0.77" id="elpj87o4u36e" class="animable" style="transform-origin: 360.9px 400.46px;"></circle><circle cx="254.09" cy="399.69" r="0.77" id="elyhp0jmumcfa" class="animable" style="transform-origin: 254.09px 399.69px;"></circle><circle cx="344.35" cy="330.69" r="0.77" id="el8wzzmmernkt" class="animable" style="transform-origin: 344.35px 330.69px;"></circle></g></g><g id="elac76ciz6uc"><ellipse cx="304.47" cy="408.92" rx="63.17" ry="1.34" style="fill: rgb(255, 255, 255); opacity: 0.2; transform-origin: 304.47px 408.92px;" class="animable"></ellipse></g><g id="elom0sw6vd0y"><path d="M250.76,400.18v-8.63H238.68v6.17a2.46,2.46,0,0,0,2.46,2.46Z" style="fill: rgb(255, 255, 255); opacity: 0.2; transform-origin: 244.72px 395.865px;" class="animable"></path></g><g id="el6k1z7d44pnn"><rect x="238.68" y="334.6" width="12.08" height="46.05" style="fill: rgb(255, 255, 255); opacity: 0.2; transform-origin: 244.72px 357.625px;" class="animable"></rect></g><g id="elovxr20goycq"><path d="M266.8,212.93v22.9a44,44,0,0,0-28.12,41v54.46h12.08V281.68a44,44,0,0,1,28.12-41V212.93Z" style="fill: rgb(255, 255, 255); opacity: 0.2; transform-origin: 258.78px 272.11px;" class="animable"></path></g><g id="eltwrbdy3787b"><path d="M375,256.09a24.7,24.7,0,0,1-4.75.3c-8.48-.29-10.78,2-17.28,5.77s-13.08,6.39-33.55,4.81-21.33,2-41.51.65-25-9.09-33.19-10.74c-6-1.19-8.13.14-9.88.38a40.93,40.93,0,0,1,3.09-5.28,43.81,43.81,0,0,1,20.41-16.15v-22.9H352.1v22.9A44,44,0,0,1,375,256.09Z" style="opacity: 0.1; transform-origin: 304.92px 240.43px;" class="animable"></path></g><path d="M256.64,210h96.1a2.8,2.8,0,0,1,2.67,2c.8,2.58,1.41,8.33-1,20.66,0,0,12.24,4.09,22.11,19.31a18.47,18.47,0,0,1-11.4,3.77c-14.84,0-14.68,6.75-23.46,9.4-10.9,3.29-20.16-2.67-28.8-3.28-8.33-.6-21.78,6.77-33.91,4.82s-11.92-9.35-19.94-11-17.48,4.52-26.11-3.5c0,0,5.55-10.69,23.85-18.3,0,0-5.42-14-2.73-22A2.81,2.81,0,0,1,256.64,210Z" style="fill: rgb(166, 104, 144); transform-origin: 304.71px 238.505px;" id="el9w28aj3wkt5" class="animable"></path><g id="elikjdft2jwb8"><path d="M376.48,251.93a18.42,18.42,0,0,1-11.39,3.77c-14.84,0-14.67,6.75-23.47,9.41-10.89,3.29-20.15-2.68-28.79-3.3-8.32-.59-21.78,6.78-33.91,4.83s-11.92-9.35-19.94-11-17.48,4.52-26.11-3.5c0,0,4.73-9.11,19.85-16.5q1.89-.93,4-1.8a63.25,63.25,0,0,1-2.9-10.69c-.68-3.85-.9-8.06.18-11.27a2.78,2.78,0,0,1,2.65-1.88h96.1a2.78,2.78,0,0,1,2.67,2c.59,1.91,1.08,5.58.3,12.4-.28,2.35-.7,5.08-1.33,8.26a35.34,35.34,0,0,1,8.5,4.76A54.35,54.35,0,0,1,376.48,251.93Z" style="fill: rgb(255, 255, 255); opacity: 0.5; transform-origin: 304.675px 238.485px;" class="animable"></path></g><g id="eleztsevgsvli"><path d="M362.88,237.38c-2.5-1.2-5.23-2.24-6.35-1.8-2.31.89-4.16,5.07-9.71,2.91s-4.78-4.74-10-2.91-9.25,7.38-15.26,3.67-10.79-4.47-14.64-4.31-8.48,5.44-16.05,5.11-8.74-4.65-12.93-5.27-10.35,2.16-13.43,2.16c-2.18,0-4.67-1.77-11.76-1.29q1.89-.93,4-1.8a63.25,63.25,0,0,1-2.9-10.69c1.9,3.47,5.26,7.53,7.33,8,3.23.77,38.8-6.43,57-5.34s-10.18,3.69-19,3.61,0,1.78,12.49,1.63,21,1.16,28.84-2.11,7.25-8.69,9.4-8.38-3.38,8.11-1.39,8.38c1.36.17,4.94-1.69,7.2-4.61-.28,2.35-.7,5.08-1.33,8.26A35.34,35.34,0,0,1,362.88,237.38Z" style="opacity: 0.1; transform-origin: 307.815px 230.529px;" class="animable"></path></g><path d="M255.17,234.44a1.21,1.21,0,0,1,0-2.41l101.36-1.23a1.25,1.25,0,0,1,1.22,1.19,1.2,1.2,0,0,1-1.19,1.22l-101.36,1.23Z" style="fill: rgb(166, 104, 144); transform-origin: 305.91px 232.62px;" id="el38dhi2pbr1g" class="animable"></path><g id="elkcpfswx0c3p"><g style="opacity: 0.2; transform-origin: 305.91px 232.62px;" class="animable"><path d="M255.17,234.44a1.21,1.21,0,0,1,0-2.41l101.36-1.23a1.25,1.25,0,0,1,1.22,1.19,1.2,1.2,0,0,1-1.19,1.22l-101.36,1.23Z" id="elg5pfvz9i7tj" class="animable" style="transform-origin: 305.91px 232.62px;"></path></g></g><path d="M363.19,231c-3.23-2.06-8.48-3-12.64-.32-1.88-.26-8.59-.88-12,2.44-1.65,1.6-2.29,3.84-1.91,6.64a4.22,4.22,0,0,0,4.29,3.91c2.55.08,5.55-1.55,7.83-4.34,0,0,0,0,0,0a15.23,15.23,0,0,0,1.19-1.68,0,0,0,0,0,0,0,.53.53,0,0,1,0,.12.12.12,0,0,1,0,.08.76.76,0,0,1,0,.16v0a28.13,28.13,0,0,1-4.28,12.37,1.21,1.21,0,0,0,1,1.84,1.18,1.18,0,0,0,1-.58A29.45,29.45,0,0,0,352.44,235c5.09,5.51,7.74,14.8,7.76,14.89a1.21,1.21,0,1,0,2.33-.64,50.87,50.87,0,0,0-4.19-10c2.27,1.29,4.56,2.12,6.21,1.57a3.41,3.41,0,0,0,2.32-2.88C367.36,235.38,366,232.82,363.19,231ZM341,241.28H341a2,2,0,0,1-1.21-.38l0,0a.75.75,0,0,1-.19-.17,2.39,2.39,0,0,1-.51-1.26c-.28-2,.1-3.51,1.19-4.56,1.62-1.57,4.6-2,7.08-2,.75,0,1.46,0,2.08.09C347.88,238.2,343.71,241.28,341,241.28Zm23.47-3.86c-.18.91-.55,1-.69,1.07-1.29.41-4-1-6.71-3C356,234.78,355,234,354,233.11c-.33-.34-.65-.66-1-1a9.87,9.87,0,0,1,8.91.93c1.66,1.06,2.62,2.42,2.67,3.71A4.62,4.62,0,0,1,364.5,237.42Z" style="fill: rgb(166, 104, 144); transform-origin: 351.751px 240.626px;" id="el3pvevnilkzx" class="animable"></path><g id="elpbwdx6xnd5l"><path d="M351,231.46c-1,.06-1.58,1.53-1.58,1.53-.62-.06-1.33-.09-2.08-.09-2.48,0-5.46.41-7.08,2-1.09,1.05-1.47,2.54-1.19,4.56a2.39,2.39,0,0,0,.51,1.26c-2-2-.84-5.74,1.43-7.12C344.25,231.59,351,231.46,351,231.46Z" style="opacity: 0.2; transform-origin: 344.776px 236.09px;" class="animable"></path></g><g id="elja5avvm3eij"><path d="M350.68,231.8a30.14,30.14,0,0,0-.73,5.67,1.09,1.09,0,0,1,0,.18,15.23,15.23,0,0,1-1.19,1.68,5.71,5.71,0,0,0,.19-1.35C349,236.05,349.28,233,350.68,231.8Z" style="opacity: 0.2; transform-origin: 349.72px 235.565px;" class="animable"></path></g><g id="elnpfnt22byv9"><path d="M364.55,236.77c-.05-1.29-1-2.65-2.67-3.71a9.87,9.87,0,0,0-8.91-.93c.35.32.67.64,1,1,1,.84,2.06,1.67,3.13,2.42a9,9,0,0,1,1.24,3.68s-2.92-4.88-5.16-6.31a15.69,15.69,0,0,1-2.1-2.52,2.92,2.92,0,0,1,2,.33,7.71,7.71,0,0,1,2.65-.33C358.78,230.47,364.55,232.53,364.55,236.77Z" style="opacity: 0.2; transform-origin: 357.815px 234.788px;" class="animable"></path></g><path d="M353.7,234a1.8,1.8,0,0,1-1.26,1,6.59,6.59,0,0,0-3.5-4.47l0,0c0-.19.26-1,2.07-.48a4.27,4.27,0,0,1,2.55,2.65h0A2.25,2.25,0,0,1,353.7,234Z" style="fill: rgb(166, 104, 144); transform-origin: 351.34px 232.439px;" id="elioifcx33zo" class="animable"></path><g id="elcxthzlzt9r9"><path d="M353.7,234a1.8,1.8,0,0,1-1.26,1,6.59,6.59,0,0,0-3.5-4.47l0,0c0-.06.2-.27,1.07.15a5.43,5.43,0,0,1,2.62,3.9,1.57,1.57,0,0,0,.93-1.87A2.25,2.25,0,0,1,353.7,234Z" style="opacity: 0.2; transform-origin: 351.339px 232.712px;" class="animable"></path></g></g><g id="freepik--bee-2--inject-3" class="animable" style="transform-origin: 358.664px 208.433px;"><path d="M368,212.73a7.33,7.33,0,0,1,0,.81,8.44,8.44,0,0,1-.54,2.31s0,.05,0,.08a11,11,0,0,1-.59,1.34,16.72,16.72,0,0,1-1.19,2,8.87,8.87,0,0,1-1.38-.81c-.19-.12-.37-.25-.55-.38s-.48-.34-.71-.53l-.45-.39-.45-.39a1.85,1.85,0,0,1-.14-.14c-.28-.26-.57-.53-.85-.83l-.2-.22c-.12-.14-.25-.26-.37-.4s-.31-.37-.45-.56-.31-.36-.45-.55-.27-.35-.41-.54-.4-.55-.58-.82-.3-.45-.43-.67-.33-.54-.47-.8-.16-.28-.23-.42a12.54,12.54,0,0,1-.68-1.54,5.88,5.88,0,0,1-.48-2.12,1.6,1.6,0,0,1,.85-1.71,4.82,4.82,0,0,1,.95-.3,7.85,7.85,0,0,1,2.11-.17c.2,0,.41,0,.61.06a7.4,7.4,0,0,1,.82.15,7.78,7.78,0,0,1,1.78.6l.27.12h0a8.43,8.43,0,0,1,1.1.69l.35.28a6.76,6.76,0,0,1,1,1,7.39,7.39,0,0,1,1.08,1.83.42.42,0,0,1,0,.1,7.94,7.94,0,0,1,.55,2.28.78.78,0,0,1,0,.22A1.86,1.86,0,0,1,368,212.73Z" style="fill: rgb(38, 50, 56); transform-origin: 362.193px 212.119px;" id="eluybn1i62hv8" class="animable"></path><path d="M361.23,209.61a4.92,4.92,0,0,1-3,2.48c-.17-.26-.33-.54-.47-.8s-.16-.28-.23-.42A3.71,3.71,0,0,0,360,209a5.94,5.94,0,0,0,.29-4c.2,0,.41,0,.61.06a7.4,7.4,0,0,1,.82.15A7,7,0,0,1,361.23,209.61Z" style="fill: rgb(166, 104, 144); transform-origin: 359.703px 208.545px;" id="ell7f8qh7p54" class="animable"></path><path d="M360.11,214.67c-.16-.18-.31-.36-.45-.55s-.27-.35-.41-.54a7.63,7.63,0,0,0,2.43-1.86,8.05,8.05,0,0,0,1.82-5.88l.27.12h0a8.43,8.43,0,0,1,1.1.69,8.85,8.85,0,0,1-4.78,8Z" style="fill: rgb(166, 104, 144); transform-origin: 362.061px 210.255px;" id="elut9756v5ryg" class="animable"></path><path d="M367.35,209.8a12.12,12.12,0,0,1-1.68,4.15,7.83,7.83,0,0,1-3.69,2.73c-.28-.26-.57-.53-.85-.83l-.2-.22a7,7,0,0,0,3.62-2.46,12.18,12.18,0,0,0,1.72-5.2,7.39,7.39,0,0,1,1.08,1.83Z" style="fill: rgb(166, 104, 144); transform-origin: 364.14px 212.325px;" id="elg086j8w22eb" class="animable"></path><path d="M368,212.73a7.33,7.33,0,0,1,0,.81,8.44,8.44,0,0,1-.54,2.31,9.61,9.61,0,0,1-3.18,2.66c-.19-.12-.37-.25-.55-.38s-.48-.34-.71-.53a8.49,8.49,0,0,0,3.81-3.23,20.65,20.65,0,0,0,1.14-2A1.86,1.86,0,0,1,368,212.73Z" style="fill: rgb(166, 104, 144); transform-origin: 365.516px 215.44px;" id="elym72o8qb7i" class="animable"></path><path d="M353.82,204.22s8-6.8,12.18-6.62-1.2,3.41-11.9,7Z" style="fill: rgb(166, 104, 144); transform-origin: 360.619px 201.098px;" id="el1ayprdqhkr5" class="animable"></path><g id="elnru1ny601f"><path d="M353.82,204.22s8-6.8,12.18-6.62-1.2,3.41-11.9,7Z" style="fill: rgb(255, 255, 255); opacity: 0.7; transform-origin: 360.619px 201.098px;" class="animable"></path></g><path d="M357.14,202.37a.85.85,0,0,0-.54.21c-.13-.52-.83-.62-1.36-.52a4.9,4.9,0,0,0-2,.89,1,1,0,0,1-.36.22c-.36.12-.72-.16-1-.42a2.28,2.28,0,0,1-.34,1.34,3.59,3.59,0,0,0-.37.63,1.91,1.91,0,0,0,0,.89,2.93,2.93,0,0,0,.24,1,1,1,0,0,0,.83.57.75.75,0,0,0-.33.58c0,.23.22.46.44.4-.27.1-.18.54.06.71s.56.21.77.41.17.23.28.33a1.24,1.24,0,0,0,1.13.21,4.8,4.8,0,0,0,2.09-.92c-.43.33.74,0,.71,0a8.9,8.9,0,0,0,1.29-.2,1.86,1.86,0,0,0,1-1.48c0-.7-.92-3.63-1.7-3.23C357.7,203.48,357.46,202.91,357.14,202.37Z" style="fill: rgb(38, 50, 56); transform-origin: 355.399px 205.95px;" id="elswrot2pfea9" class="animable"></path><g id="elnafb3mlbjt9"><path d="M357.14,202.37a.85.85,0,0,0-.54.21c-.13-.52-.83-.62-1.36-.52a4.9,4.9,0,0,0-2,.89,1,1,0,0,1-.36.22c-.36.12-.72-.16-1-.42a2.28,2.28,0,0,1-.34,1.34,3.59,3.59,0,0,0-.37.63,1.91,1.91,0,0,0,0,.89,2.93,2.93,0,0,0,.24,1,1,1,0,0,0,.83.57.75.75,0,0,0-.33.58c0,.23.22.46.44.4-.27.1-.18.54.06.71s.56.21.77.41.17.23.28.33a1.24,1.24,0,0,0,1.13.21,4.8,4.8,0,0,0,2.09-.92c-.43.33.74,0,.71,0a8.9,8.9,0,0,0,1.29-.2,1.86,1.86,0,0,0,1-1.48c0-.7-.92-3.63-1.7-3.23C357.7,203.48,357.46,202.91,357.14,202.37Z" style="fill: rgb(255, 255, 255); opacity: 0.3; transform-origin: 355.399px 205.95px;" class="animable"></path></g><path d="M357.15,204.23a5.6,5.6,0,0,0,.66-.63c2.83-.89,9.42-2.71,12.38-1.45,3.72,1.59-2,2.7-12.75,2.33A.64.64,0,0,0,357.15,204.23Z" style="fill: rgb(166, 104, 144); transform-origin: 364.238px 203.135px;" id="elahoop8fx4gw" class="animable"></path><g id="el705by256yzj"><path d="M357.15,204.23a5.6,5.6,0,0,0,.66-.63c2.83-.89,9.42-2.71,12.38-1.45,3.72,1.59-2,2.7-12.75,2.33A.64.64,0,0,0,357.15,204.23Z" style="fill: rgb(255, 255, 255); opacity: 0.8; transform-origin: 364.238px 203.135px;" class="animable"></path></g><path d="M354.19,208.16c.13,1.45-1.81,2.34-2.56,3.21-.78,1-1.48,2.35-2.38,3.37a9.4,9.4,0,0,1,1.6-4c1-1.2,2.53-1.28,3.34-2.55Z" style="fill: rgb(38, 50, 56); transform-origin: 351.723px 211.45px;" id="elhh5jgh43rju" class="animable"></path><path d="M354.89,207.89c2.06,2.65,2.57,5.14-.28,7.49.16-1.34.92-2.39,1-3.67s-.59-2.53-.76-3.82Z" style="fill: rgb(38, 50, 56); transform-origin: 355.601px 211.635px;" id="eltvehgsgin5g" class="animable"></path><path d="M356.38,208.16a5,5,0,0,1,1.88,3.3,11.77,11.77,0,0,1-1.88,6,17,17,0,0,1,.45-4.86,3.93,3.93,0,0,0,.14-1,14.33,14.33,0,0,0-.59-3.44Z" style="fill: rgb(38, 50, 56); transform-origin: 357.309px 212.81px;" id="elwrqf3neh9mm" class="animable"></path><path d="M353.37,204c.18-1.58-.42-2.82-2.36-2.49-2.57.44-2.87,3.8-1.22,6S353.21,205.44,353.37,204Z" style="fill: rgb(38, 50, 56); transform-origin: 351.083px 204.792px;" id="eltudk894y09r" class="animable"></path><path d="M349.86,203a.14.14,0,0,1-.1,0,1.92,1.92,0,0,1-.5-1.33c-.09-.67-.17-1.12-.52-1.17a8.08,8.08,0,0,0-2.49.39.17.17,0,1,1-.1-.32,7.59,7.59,0,0,1,2.64-.4c.63.09.73.81.81,1.45.06.46.13.94.36,1.11a.16.16,0,0,1,0,.24A.19.19,0,0,1,349.86,203Z" style="fill: rgb(38, 50, 56); transform-origin: 348.009px 201.588px;" id="eld8i0law41s" class="animable"></path><path d="M350.43,202.69h0a.16.16,0,0,1-.16-.18,5.28,5.28,0,0,1,.7-2.39.15.15,0,0,0,0-.22,1.86,1.86,0,0,0-1.65-.41.17.17,0,0,1-.14-.3,2.1,2.1,0,0,1,2.06.5.49.49,0,0,1,0,.66,4.86,4.86,0,0,0-.61,2.19A.16.16,0,0,1,350.43,202.69Z" style="fill: rgb(38, 50, 56); transform-origin: 350.241px 200.898px;" id="elhe7q576a6hl" class="animable"></path></g><g id="freepik--flower-1--inject-3" class="animable" style="transform-origin: 99.7376px 371.39px;"><path d="M126.63,331.93c-3.17-7.35-5.67-2.34-5.67-2.34s-1.67-3.9-4.27-5.46-3.51,1.48-3.51,1.48-3.14-2.17-5.33-1.91-1,3.73-1,3.73a7.83,7.83,0,0,0-5.65-1.57c-3.8.2-2,3.38-2,3.38s-3.21-1.88-5.29-.4-1.87,5.05-1.87,5.05-.69-1.2-3.7.08-1.88,5.32-1.88,5.32S85,337,83.13,338.57s.51,6.47.51,6.47-2.24-.57-3.17.73,2.11,5.12,2.11,5.12-3.54-3-3.32-1.12,14.55,22.66,31.14,21.83S131.84,344,126.63,331.93Z" style="fill: rgb(38, 50, 56); transform-origin: 103.938px 347.651px;" id="eln5kx64d4n6d" class="animable"></path><g id="elehfeqbvyna"><path d="M126.63,331.93c-3.17-7.35-5.67-2.34-5.67-2.34s-1.67-3.9-4.27-5.46-3.51,1.48-3.51,1.48-3.14-2.17-5.33-1.91-1,3.73-1,3.73a7.83,7.83,0,0,0-5.65-1.57c-3.8.2-2,3.38-2,3.38s-3.21-1.88-5.29-.4-1.87,5.05-1.87,5.05-.69-1.2-3.7.08-1.88,5.32-1.88,5.32S85,337,83.13,338.57s.51,6.47.51,6.47-2.24-.57-3.17.73,2.11,5.12,2.11,5.12-3.54-3-3.32-1.12,14.55,22.66,31.14,21.83S131.84,344,126.63,331.93Z" style="fill: rgb(255, 255, 255); opacity: 0.8; transform-origin: 103.938px 347.651px;" class="animable"></path></g><g id="el6lkpnlmrnrt"><g style="opacity: 0.7; transform-origin: 104.602px 347.625px;" class="animable"><path d="M120.18,365.19a23.42,23.42,0,0,1-1.13,2.29l3-2.38c11-16.94,4.77-33.63,2.34-35.61s-3.15.9-3.15.9a54.46,54.46,0,0,1,2.22,9.7c-1-5.77-3.93-12.78-5.76-14.65-2.22-2.29-4.33-1.11-4,.89a18.25,18.25,0,0,0,1.22,3h0c-4.13-6.26-5.76-6.11-7-4.4-.87,1.17,2.22,5.07,8.35,14.41,2.71,4.13,3,9.44,2.54,14.09a42.31,42.31,0,0,0-.47-6.31c-1.22-7.59-7.39-15.77-10.58-18.51s-7.38-2.78-7.92-1.16c-1,2.86,8.1,10.62,12.8,19.68a35.69,35.69,0,0,1,3.84,13.76c-.92-3.93-2.47-10-3.64-11.69-1.78-2.56-10.51-15.45-12-17.44s-5.62-3.79-6.82-2c-.9,1.33-2,4.17-.61,5.49s13.92,18.58,17.13,24.59c.35.64.67,1.2,1,1.7h0a34,34,0,0,1-5.81-7.57,121,121,0,0,0-8.62-12.13c-1.94-2.09-4.8-7.74-8.29-7.51-1.54.1-2.54,3.17-1.45,5.47s7.64,9.92,10.49,13.41,15.36,13.23,16.66,13.12c.53,0,.51-.48.17-1.13a1.77,1.77,0,0,0,1,.39l1.13-.89,1.2-.17s0-.11,0-.3h.22c-.13.6-.22.94-.22.94Zm0,0c0-.11,3.65-15.59,3.65-21.59A47.17,47.17,0,0,1,120.18,365.19Z" style="fill: rgb(255, 255, 255); transform-origin: 107.633px 345.698px;" id="elpv428fcj6ti" class="animable"></path><path d="M84.63,345.91c-.79-2-2.25-6.24-.86-6.62s4.92,4.07,7.6,8a61.87,61.87,0,0,0,13.27,13.24,51.19,51.19,0,0,0,10.42,6.25l-.59,1.69-.65-.19.58,1s-9.8-.29-15.52-3.5-13.83-11.54-15.4-13.94-3.3-5.68-2-6.07c2-.59,4.42,3.09,6.82,5.75s11,9.59,13.78,11.48a32.77,32.77,0,0,0,5.57,2.58C96.6,359.6,85.28,347.58,84.63,345.91Z" style="fill: rgb(255, 255, 255); transform-origin: 98.0416px 354.274px;" id="ely7la4uosd7k" class="animable"></path><path d="M83.89,353.37c2.17,2.56,8,8.94,14.39,12.44s14.14,3.51,15.1,3.85,1,.9,1,.9c-9,2.7-16.67-2.22-22.23-6.09S80,351.5,80.94,350.23C81.16,349.93,81.72,350.82,83.89,353.37Z" style="fill: rgb(255, 255, 255); transform-origin: 97.6149px 360.755px;" id="elkrvgr8qixci" class="animable"></path></g></g><path d="M111.37,369.92l.49-.11a1,1,0,0,0,.49-.15l.09,0a.31.31,0,0,0,.28-.27c1.29,0-3.5-1.67-3.5-1.67s3.49.34,4.26-.05-2.5-1.93-.87-1.55,1.91.18,1.6-1.29-.33-.82.44-.37.77.1.52-.64a.25.25,0,0,0,0-.09,4.12,4.12,0,0,0-.21-1.55c0-.06,0-.12,0-.18a.36.36,0,0,1,0-.1v0a2.45,2.45,0,0,1,0-.39l.08,0,.34.39a2.4,2.4,0,0,0,1,.67h.13a4.19,4.19,0,0,0,1.42.94c.49.11.41-.58.41-.9s0-.6,0-.93a.36.36,0,0,0,0-.23s0,0,0-.07a.68.68,0,0,1,0-.14.91.91,0,0,1,0-.17,5.07,5.07,0,0,1,.37.44c.11.14.21.41.36.5s.41.05.59-.2a2.08,2.08,0,0,0,.16-.83.2.2,0,0,0,.07-.09,4.19,4.19,0,0,0,.14-.47,2.87,2.87,0,0,0,.44-1.15c.55,1.21.17,4.23.53,4.08a14.74,14.74,0,0,0,1.11-2.94.36.36,0,0,0,0-.09.34.34,0,0,0,.08-.09,7.9,7.9,0,0,1,1-1.31c.07,1.28-1.18,4.44-.58,4.44s1.25-1.06,1.56-1.43,1.24-2,1.73-2a5,5,0,0,1-.68,1.7,16.06,16.06,0,0,1-1,1.72,26.48,26.48,0,0,0-1.57,2.78,13.66,13.66,0,0,0-1,3.35c-.26,1.27.32,2,.79,3.12.36.88.7,1.77,1,2.66.94,2.51,1.82,5,2.68,7.59,5.13,15.2,12.4,24.45,23.57,30a1,1,0,0,1-.84,1.71,43.25,43.25,0,0,1-9.81-6.63c-6.37-5.77-11.08-13.68-14.73-24.47-.77-2.3-1.57-4.59-2.42-6.87-.52-1.42-.89-3.83-2.24-4.75-.75-.52-2.29-.36-3.17-.35a3.38,3.38,0,0,0-1.92.48c-.73.18-1.41.51-2.14.68l-.87.19c.09-.29.58-.47.8-.63s1.12-.79.66-1.13a2.78,2.78,0,0,0-1.1-.27c-.91-.14-1.85-.16-2.74-.38-.14,0-.19-.08-.19-.13.34,0,.67-.08,1-.12S111,370,111.37,369.92Z" style="fill: rgb(38, 50, 56); transform-origin: 129.488px 386.745px;" id="el2i3vlngnctd" class="animable"></path><g id="elok9bkxk0f3"><path d="M111.37,369.92l.49-.11a1,1,0,0,0,.49-.15l.09,0a.31.31,0,0,0,.28-.27c1.29,0-3.5-1.67-3.5-1.67s3.49.34,4.26-.05-2.5-1.93-.87-1.55,1.91.18,1.6-1.29-.33-.82.44-.37.77.1.52-.64a.25.25,0,0,0,0-.09,4.12,4.12,0,0,0-.21-1.55c0-.06,0-.12,0-.18a.36.36,0,0,1,0-.1v0a2.45,2.45,0,0,1,0-.39l.08,0,.34.39a2.4,2.4,0,0,0,1,.67h.13a4.19,4.19,0,0,0,1.42.94c.49.11.41-.58.41-.9s0-.6,0-.93a.36.36,0,0,0,0-.23s0,0,0-.07a.68.68,0,0,1,0-.14.91.91,0,0,1,0-.17,5.07,5.07,0,0,1,.37.44c.11.14.21.41.36.5s.41.05.59-.2a2.08,2.08,0,0,0,.16-.83.2.2,0,0,0,.07-.09,4.19,4.19,0,0,0,.14-.47,2.87,2.87,0,0,0,.44-1.15c.55,1.21.17,4.23.53,4.08a14.74,14.74,0,0,0,1.11-2.94.36.36,0,0,0,0-.09.34.34,0,0,0,.08-.09,7.9,7.9,0,0,1,1-1.31c.07,1.28-1.18,4.44-.58,4.44s1.25-1.06,1.56-1.43,1.24-2,1.73-2a5,5,0,0,1-.68,1.7,16.06,16.06,0,0,1-1,1.72,26.48,26.48,0,0,0-1.57,2.78,13.66,13.66,0,0,0-1,3.35c-.26,1.27.32,2,.79,3.12.36.88.7,1.77,1,2.66.94,2.51,1.82,5,2.68,7.59,5.13,15.2,12.4,24.45,23.57,30a1,1,0,0,1-.84,1.71,43.25,43.25,0,0,1-9.81-6.63c-6.37-5.77-11.08-13.68-14.73-24.47-.77-2.3-1.57-4.59-2.42-6.87-.52-1.42-.89-3.83-2.24-4.75-.75-.52-2.29-.36-3.17-.35a3.38,3.38,0,0,0-1.92.48c-.73.18-1.41.51-2.14.68l-.87.19c.09-.29.58-.47.8-.63s1.12-.79.66-1.13a2.78,2.78,0,0,0-1.1-.27c-.91-.14-1.85-.16-2.74-.38-.14,0-.19-.08-.19-.13.34,0,.67-.08,1-.12S111,370,111.37,369.92Z" style="fill: rgb(255, 255, 255); opacity: 0.2; transform-origin: 129.488px 386.745px;" class="animable"></path></g><path d="M98.73,407.53c-7.55-2.68-14.3-4.37-20.75.55s-9.24,5.55-11.42,6.11,2.22,3.66,14,4.82,16.44-9.1,25-7.65A31.75,31.75,0,0,0,98.73,407.53Z" style="fill: rgb(38, 50, 56); transform-origin: 85.791px 412.02px;" id="elax8wlz9rrpe" class="animable"></path><path d="M123.2,414.9c-6.06-2.69-10.53-8.51-7.37-21.75s3.08-14.1,3.08-14.1,6,3.19,8.74,12.44-3.43,21.66,3.52,24.1A13.23,13.23,0,0,1,123.2,414.9Z" style="fill: rgb(38, 50, 56); transform-origin: 122.978px 397.481px;" id="el3f945q6v22v" class="animable"></path><g id="el5hprwacnm4x"><path d="M106.19,411.18a49.86,49.86,0,0,0-9.37-.93,54.11,54.11,0,0,0-9.42.78,53,53,0,0,0-9.17,2.36,27.72,27.72,0,0,1-4.55,1.37,10.94,10.94,0,0,1-4.73.05,11,11,0,0,0,4.7-.15,29,29,0,0,0,4.51-1.47,54.67,54.67,0,0,1,9.16-2.59,56.06,56.06,0,0,1,9.49-1,50,50,0,0,1,9.54.73Z" style="opacity: 0.2; transform-origin: 87.65px 412.317px;" class="animable"></path></g><g id="elz7pazoxpzc"><path d="M128.81,416.15a21.57,21.57,0,0,1-4.55-1.78,7.27,7.27,0,0,1-1.92-1.63,11.76,11.76,0,0,1-1.28-2.11,20.9,20.9,0,0,1-1.7-9.5c.06-3.22.51-6.4.87-9.58.19-1.59.43-3.18.47-4.77a11.1,11.1,0,0,0-.76-4.7,11.09,11.09,0,0,1,.86,4.7,48,48,0,0,1-.36,4.79c-.28,3.19-.67,6.38-.66,9.56a20.39,20.39,0,0,0,1.86,9.21,10.66,10.66,0,0,0,1.24,2,6.25,6.25,0,0,0,1.76,1.42,20.48,20.48,0,0,0,4.41,1.61Z" style="opacity: 0.2; transform-origin: 124.189px 399.115px;" class="animable"></path></g><path d="M128.59,417.14a76.12,76.12,0,0,1-9.91-1.5,92.24,92.24,0,0,1-41.3-21.18,1.28,1.28,0,1,1,1.79-1.84,91.41,91.41,0,0,0,40.06,20.52A75.28,75.28,0,0,0,163,409.46a1.28,1.28,0,0,1,1.08,2.32A75.41,75.41,0,0,1,128.59,417.14Z" style="fill: rgb(38, 50, 56); transform-origin: 120.89px 404.852px;" id="elugkg37mf9ko" class="animable"></path><g id="elq6aw3ya5s5s"><g style="opacity: 0.2; transform-origin: 120.89px 404.852px;" class="animable"><path d="M128.59,417.14a76.12,76.12,0,0,1-9.91-1.5,92.24,92.24,0,0,1-41.3-21.18,1.28,1.28,0,1,1,1.79-1.84,91.41,91.41,0,0,0,40.06,20.52A75.28,75.28,0,0,0,163,409.46a1.28,1.28,0,0,1,1.08,2.32A75.41,75.41,0,0,1,128.59,417.14Z" style="fill: rgb(255, 255, 255); transform-origin: 120.89px 404.852px;" id="elfzyf3u66v4k" class="animable"></path></g></g><path d="M62.42,412.06c-3.56,2.07-3-.19-3-.19s-4.49,3.38-7.81,2.79-2-2.72-2-2.72-6,1.71-7.35.29,1.68-4,1.68-4-4.66,0-5.51-2.75c-1-3.13.72-4.55.72-4.55a4,4,0,0,1-3.44-4.6c.19-2.94,1.73-3.63,1.73-3.63s-3.57-2-2.58-5,2.64-3.3,2.64-3.3a11.72,11.72,0,0,1-1.18-6.37,3.11,3.11,0,0,1,3.63-2.72s-.79-5.8.42-7.7,4.51-1.43,4.51-1.43-.34-4.38,1-5.89c2.9-3.16,6.45-.57,6.45-.57s-1.09-3.39,1.3-4.52c2.61-1.22,5,2.1,5,2.1s-.33-4,1.9-4.67c2.69-.76,5.19,1.31,5.64,4.69,0,0-.58-5.38,3-4.86s5,8.83,5,8.83,0-4.21,2.56-2.31,5.51,19.69,1.82,35.27C78.5,394.28,72.93,406,62.42,412.06Z" style="fill: rgb(38, 50, 56); transform-origin: 57.4869px 383.577px;" id="el7bqrx6l1rnc" class="animable"></path><g id="elbbk4cuuf709"><path d="M78.5,394.28S72.93,406,62.42,412.06c-3.56,2.08-3-.2-3-.2s-.39.3-1,.7c-1.52,1-4.44,2.51-6.77,2.1-3.31-.59-2-2.72-2-2.72s-6,1.71-7.36.3,1.68-4,1.68-4-4.66,0-5.51-2.75c-1-3.13.72-4.55.72-4.55a4,4,0,0,1-3.44-4.59c.19-2.95,1.73-3.65,1.73-3.65s-3.57-2-2.59-4.95,2.65-3.3,2.65-3.3a11.69,11.69,0,0,1-1.18-6.37,3.11,3.11,0,0,1,3.63-2.72s-.79-5.8.42-7.7,4.52-1.43,4.52-1.43-.35-4.38,1-5.89c2.9-3.17,6.45-.57,6.45-.57s-1.08-3.39,1.3-4.51c2.61-1.24,5,2.09,5,2.09s-.33-4,1.9-4.67c2.68-.77,5.19,1.29,5.64,4.67,0-.35-.46-5.34,3-4.84,2.67.39,4.15,5.27,4.7,7.61.15.65.24,1.1.26,1.21,0-.3.09-4.13,2.56-2.3S82.19,378.7,78.5,394.28Z" style="fill: rgb(255, 255, 255); opacity: 0.8; transform-origin: 57.47px 383.602px;" class="animable"></path></g><g id="elhnigrlw08zk"><g style="opacity: 0.7; transform-origin: 56.6941px 383.26px;" class="animable"><path d="M77.09,385.16C77,380.84,75.4,355,68.75,353c-1.65-.48-2.66,3.65-2.32,5.13s7.91,21.61,8.75,27.4a228.33,228.33,0,0,0-9.41-27.38c-3-6.78-5.09-5.43-6.13-4.15-.39.46-1.68,2.51-.25,4.3s9.26,15.16,12.86,28.1c1.66,6,3.58,6.43,3.47,2.27h0C76.32,390,77.19,388.36,77.09,385.16Z" style="fill: rgb(255, 255, 255); transform-origin: 67.9152px 372.184px;" id="elpy1t1lojs3r" class="animable"></path><path d="M71.53,397.62a2.37,2.37,0,0,0-.85.4.74.74,0,0,0-.32-.75l-.18-.08c.72-.66.61-.89.09-1.45-.25-.28-.78-.26-1.48-.05.59-.7.71-1.26.5-1.5h0c2.13-1.6,1.32-2.61-.22-2.74.55-.18.76-.93.1-2,.4.13.55-.4.4-1.9h0c1.17,2.33,1.9,3.37,2,2.26.3-2.43-1.74-12.17-5.52-19.09-3.93-7.18-9.4-14.66-11.7-14.87S52.72,358.5,53,360c.45,2.14,4.46,4.6,8.35,10.76-.24-.29-.47-.58-.7-.84-3.47-4.05-10.3-10.25-13.28-9.53s-2.43,4.52-1.84,5.68C46.87,368.66,54.2,370,62.77,381c.43.56.85,1.13,1.26,1.68a58.89,58.89,0,0,0-19.56-15.56c-1.59-.78-6.36,1.48-4,7.76.54,1.47,16.14,8.47,23.22,12.63-3.4-1.08-17.92-7.74-20.91-10.08s-4.68-1.13-5.63,1.69a5.72,5.72,0,0,0,1.1,5.18c3.94,3.84,22.62,7.33,28.55,7.24a55.5,55.5,0,0,1-28.3-6.08c-1.08-.56-4.09,4.15-.5,6.74,2.13,1.52,10.8,3,18.38,3.54h0c-7.36,0-17.15-2.35-18-1.56s-3.45,4.51,1.56,6.27c4.75,1.66,13.22.91,20-.63a28.6,28.6,0,0,1-3,1.09c-5.92,1.75-15.09.08-16.19.42s-2.63,4.8,3.34,6c3.52.69,9.23-.78,14.21-2.79A15.54,15.54,0,0,1,55,406.11c-5.53,1.78-9,1.05-10,2.16s-2.22,1.89-.83,2.56,4.4.82,7.15.1a65.29,65.29,0,0,0,7.5-2.91,16,16,0,0,1-2.43,1.66c-3.47,1.77-5,.73-5,2.19s3.38,2.54,6,.79,11.24-7.14,13.5-10.24S73.32,397.54,71.53,397.62Zm-3.24-6.27.18.08h0l-.84.05A3,3,0,0,0,68.29,391.35Z" style="fill: rgb(255, 255, 255); transform-origin: 54.5171px 384.702px;" id="el5ec0n2nx9uu" class="animable"></path></g></g><g id="elu4qqutsk76r"><path d="M60.53,399.49a3.48,3.48,0,0,1-1.14.44C58.39,400.12,59.55,399.6,60.53,399.49Z" style="opacity: 0.1; transform-origin: 59.7682px 399.731px;" class="animable"></path></g><g id="el47ss9x6hao"><path d="M61.12,403.56c-1,.5-2.33,1.1-2.56,1.2A13.12,13.12,0,0,1,61.12,403.56Z" style="opacity: 0.1; transform-origin: 59.84px 404.16px;" class="animable"></path></g><g id="elk43dvrrgko"><path d="M78.5,394.28S72.93,406,62.42,412.06c-3.56,2.08-3-.2-3-.2s-.39.3-1,.7c-1.42-1-.45-1.15.27-2.71.79-1.73-.76-1.12-.76-1.12s1.43-1.18,3.22-2.52,1.07-1.1,1.09-2.37c0-.46-.45-.46-1.06-.28a8.09,8.09,0,0,0,1-.6c.6-.5.13-1-.77-1.34s.6-1.16.18-1.91c-.14-.25-.56-.28-1-.22a1.82,1.82,0,0,0,.88-1.05c0-.23-1.11-.58-.5-1.05s1.23-1.46-.25-1.39a46.18,46.18,0,0,1-4.89-.28s3.83-.69,3.7-1.27-.92-.68-.13-1,1-.66.83-1.22-3-1-3.42-1.11c.51,0,3.8.35,4.1.37s-4.43-1.19-4.43-1.19c3.93-.09,3.84-.91,2.95-1.19s.24-.77,1.72-1.07,1.06-1.12-1-2-4.92-3.12-3-2.14,4.5,1,4.95.31-.9-1-.49-1.54,2.23.87.91-1.18c-1.19-1.84-3.3-4.6-3.41-4.83l0,0c.41.42,4.67,4.1,4.6,3.62s1.94.85,1.88-.14-3.82-8.06-1.91-6.18,2.74,6.2,4.7,7.06.43-1.16-.33-3.27a40.67,40.67,0,0,1-1.73-6.62c.27.5,3.22,7.22,4.52,6.86s-.32-3.16-.22-4.93-1-5.63-1-5.87c.13.26,2.48,4.73,2.6,3.2s.9-1.84,1.38-2.91-.33-6,.07-7c.06-.16.14-.34.21-.5.15.65.24,1.1.26,1.21,0-.3.09-4.13,2.56-2.3S82.19,378.7,78.5,394.28Z" style="opacity: 0.1; transform-origin: 68.0262px 385.666px;" class="animable"></path></g><path d="M71.68,380.27c-7,.21-11.1,17.77-3.23,18.06S76.73,380.12,71.68,380.27Z" style="fill: rgb(166, 104, 144); transform-origin: 69.5861px 389.301px;" id="elzj1wwx9ws5" class="animable"></path><g id="el39hqmcxjufb"><path d="M71.68,380.27c-7,.21-11.1,17.77-3.23,18.06S76.73,380.12,71.68,380.27Z" style="opacity: 0.2; transform-origin: 69.5861px 389.301px;" class="animable"></path></g><g id="el79yq38khzak"><path d="M71.2,388.74a1.66,1.66,0,0,1-.34.59.1.1,0,0,1-.08.05.15.15,0,0,1-.07,0c-.06-.06-.11-.13-.17-.2a.48.48,0,0,1,0-.46,2.51,2.51,0,0,0,.32-1.07.22.22,0,0,0,0-.14s0-.05,0-.08,0-.19.09-.28a1.24,1.24,0,0,0,.13-.76,1.11,1.11,0,0,0-.06-.4.36.36,0,0,0-.31-.23.34.34,0,0,1-.14,0c-.08,0-.07-.16-.07-.25a.72.72,0,0,0-.18-.48.2.2,0,0,0-.09-.07.46.46,0,0,0,.16-.28.4.4,0,0,0-.38-.44h-.09a.62.62,0,0,0-.44.33c-.18.33.14.53.45.5a1.52,1.52,0,0,0-.27.59c-.09.24-.31.29-.48,0A1,1,0,0,1,69,386c0,.14,0,.32.13.36s0,.08-.1.1l-.2.07a.3.3,0,0,1-.16,0c-.06,0-.11-.06-.1-.11-.08.39-.37.72-.15,1.12a.45.45,0,0,0-.5,0,.18.18,0,0,0,0-.09.67.67,0,0,0-.48-.33.48.48,0,0,0-.42.5.89.89,0,0,0,.33.62.25.25,0,0,0,.14.08.24.24,0,0,0,.16-.05s.05,0,.08-.06c.1.33.32.66.1.89s-.78.13-.82.46a1,1,0,0,0,.18.58.29.29,0,0,0,.28.12.39.39,0,0,1-.27.34,1.52,1.52,0,0,0-.47-.4.11.11,0,0,0-.07,0l-.07,0a1.17,1.17,0,0,0-.38.5.36.36,0,0,0,0,.21c0,.19.2.31.37.41s.31.14.43,0a.37.37,0,0,0,.09-.25.7.7,0,0,1,.14.16.3.3,0,0,1,0,.16.51.51,0,0,1-.3.42.13.13,0,0,0-.07.05s0,.07,0,.1c.24.28-.11.39-.25.53s-.23.75.14.85a.53.53,0,0,0,0,.44.25.25,0,0,0,.24.11.25.25,0,0,0,.19-.18c.11.08.09.25.14.38a.35.35,0,0,0,.53.18,1,1,0,0,0,.11-.17.14.14,0,0,1,.18-.05v-.22a1.24,1.24,0,0,1,.27,0,.29.29,0,0,0,.25-.1.32.32,0,0,0,0-.14c0-.11,0-.21,0-.32s0-.12.06-.14a.2.2,0,0,1,.11,0l.3,0c.11,0,0-.3,0-.34a.5.5,0,0,1,.36-.33s.12,0,.13-.08a.64.64,0,0,1,0-.07c0-.13.21-.12.24-.23a.15.15,0,0,0,0-.17h.4a.77.77,0,0,0,.5-.14.52.52,0,0,0,.16-.41,1,1,0,0,0-.15-.43.44.44,0,0,0-.18-.2.48.48,0,0,0-.24,0,.72.72,0,0,0-.32.08.76.76,0,0,1,0-.16.41.41,0,0,0,0-.09c0-.16-.6-.46-.06-.67l.18-.05a.53.53,0,0,0,.22-.18,2.75,2.75,0,0,1,.26.22.57.57,0,0,0,.51.2.5.5,0,0,0,.28-.24,1,1,0,0,0-.09-1.13S71.26,388.73,71.2,388.74Z" style="opacity: 0.2; transform-origin: 68.8791px 389.285px;" class="animable"></path></g><g id="elrbergiizh"><path d="M69.77,393.34a.44.44,0,0,0-.38.56V394a.46.46,0,0,0,.53-.47.15.15,0,0,0,0-.13A.18.18,0,0,0,69.77,393.34Z" style="opacity: 0.2; transform-origin: 69.6538px 393.672px;" class="animable"></path></g><g id="el2kylv16xres"><path d="M67.82,395.13a.58.58,0,0,0-.22.4.36.36,0,0,0,.22.38l-.19-.28a1.48,1.48,0,0,0,.42,0,.52.52,0,0,0,.36-.21.33.33,0,0,0,0-.39A.44.44,0,0,0,67.82,395.13Z" style="opacity: 0.2; transform-origin: 68.0353px 395.434px;" class="animable"></path></g><g id="eln3hhp3mqn1c"><path d="M69,396.1a.41.41,0,0,0-.3.09.3.3,0,0,0-.11.14.1.1,0,0,0,.07.14l-.06.12a.68.68,0,0,0,.34-.06c.11,0,.24-.11.25-.22S69.09,396.11,69,396.1Z" style="opacity: 0.2; transform-origin: 68.8857px 396.345px;" class="animable"></path></g><g id="el7dto79qd6ab"><path d="M65.72,395.23a1.16,1.16,0,0,0-.5-.27s-.08,0-.1,0a.11.11,0,0,0,0,.08,1.75,1.75,0,0,0,.3.89.54.54,0,0,0,.53.31c.2-.05.08-.34.11-.54S65.87,395.37,65.72,395.23Z" style="opacity: 0.2; transform-origin: 65.5906px 395.601px;" class="animable"></path></g><g id="elxa9eywnvmx"><path d="M66.18,393.21c-.05,0-.13-.09-.19,0a.24.24,0,0,0-.06.08,1.25,1.25,0,0,0-.08.42c0,.1,0,.22.14.22s.11-.05.17-.08a.27.27,0,0,1,.36.1v0l.1,0A1.27,1.27,0,0,0,66.18,393.21Z" style="opacity: 0.2; transform-origin: 66.235px 393.56px;" class="animable"></path></g><g id="elmwmqhecjw5r"><path d="M68,385.8a.26.26,0,0,0,.13-.28.21.21,0,0,0-.26-.14.17.17,0,0,0,0,.27l-.15.18A.37.37,0,0,0,68,385.8Z" style="opacity: 0.2; transform-origin: 67.9276px 385.608px;" class="animable"></path></g><g id="eled9iqcdqt3p"><path d="M65.23,390.35l0,0-.15.14Z" style="opacity: 0.2; transform-origin: 65.155px 390.42px;" class="animable"></path></g><g id="elx0whosfm8n"><path d="M65.3,389.62a1,1,0,0,0-.17.54.2.2,0,0,0,.06.15.8.8,0,0,0,.18-.23A.41.41,0,0,0,65.3,389.62Z" style="opacity: 0.2; transform-origin: 65.2706px 389.965px;" class="animable"></path></g><g id="elg8som39bhsr"><path d="M69,383.62a.53.53,0,0,0,.09-.66.27.27,0,0,0-.28-.13.23.23,0,0,0-.14.2.57.57,0,0,0,0,.25.2.2,0,0,0,.09.16l-.48.3A.65.65,0,0,0,69,383.62Z" style="opacity: 0.2; transform-origin: 68.7232px 383.313px;" class="animable"></path></g><g id="elxk2gympsukj"><path d="M70.67,383.22l-.11,0a1,1,0,0,1-.35.06Z" style="opacity: 0.2; transform-origin: 70.44px 383.25px;" class="animable"></path></g><g id="ely6zmgi0ry1g"><path d="M70.33,383.13l.23.07.19-.08.07-.07a.16.16,0,0,0,0-.18.44.44,0,0,0-.47,0c-.07,0-.15.09-.13.16S70.26,383.11,70.33,383.13Z" style="opacity: 0.2; transform-origin: 70.5323px 383.001px;" class="animable"></path></g><g id="elmw7yc47pjt"><path d="M70.63,381.73a.27.27,0,0,1-.18-.1l0,0Z" style="opacity: 0.2; transform-origin: 70.54px 381.68px;" class="animable"></path></g><g id="elawc4wusrmv9"><path d="M70.57,381.56a.18.18,0,0,0-.22-.09.34.34,0,0,0,.1.16A.21.21,0,0,0,70.57,381.56Z" style="opacity: 0.2; transform-origin: 70.46px 381.545px;" class="animable"></path></g><g id="elvlw6axklm9a"><path d="M71.58,384l0,.15a.28.28,0,0,0,.24-.3.57.57,0,0,0-.2-.38.23.23,0,0,0-.12-.08.15.15,0,0,0-.16.14.37.37,0,0,0,.06.22A.79.79,0,0,0,71.58,384Z" style="opacity: 0.2; transform-origin: 71.5803px 383.77px;" class="animable"></path></g><g id="el184tfv1b7du"><path d="M66.55,385.66a.71.71,0,0,0,0-.2c0-.07-.08-.13-.14-.12s-.12.14-.11.23a.63.63,0,0,0,.21.37Z" style="opacity: 0.2; transform-origin: 66.428px 385.639px;" class="animable"></path></g><g id="el5qp5acqu8j6"><path d="M65.38,391.56a.54.54,0,0,0-.07-.19.17.17,0,0,0-.18-.07.15.15,0,0,0-.1.09.39.39,0,0,0,.06.45l.24-.1C65.4,391.72,65.4,391.63,65.38,391.56Z" style="opacity: 0.2; transform-origin: 65.1879px 391.568px;" class="animable"></path></g><g id="el0y4vxe3yqg1"><path d="M70.56,395.31a.19.19,0,0,0-.15.17.2.2,0,0,0,.14.19l-.14.08a.41.41,0,0,0,.27-.08.22.22,0,0,0,.08-.26A.17.17,0,0,0,70.56,395.31Z" style="opacity: 0.2; transform-origin: 70.5924px 395.528px;" class="animable"></path></g><g id="elp68fzpbsilf"><path d="M72.31,386.21a.51.51,0,0,0,.21.38.36.36,0,0,0-.11-.47l0,0C72.32,386.1,72.31,386.16,72.31,386.21Z" style="opacity: 0.2; transform-origin: 72.4375px 386.353px;" class="animable"></path></g><g id="elfm9kun33m36"><path d="M72.59,386.66l-.07-.07s0,0,0,0Z" style="opacity: 0.2; transform-origin: 72.555px 386.625px;" class="animable"></path></g><g id="el2b4c24qwmkx"><path d="M72.11,392.64a.12.12,0,0,0,.07-.11.25.25,0,0,0,0-.07c-.15-.32-.53-.5-.76-.09a.69.69,0,0,0,0,.49.5.5,0,0,0,.11.27.19.19,0,0,0,.25,0,.45.45,0,0,0,.08-.22A.62.62,0,0,1,72.11,392.64Z" style="opacity: 0.2; transform-origin: 71.7787px 392.655px;" class="animable"></path></g><g id="el853ywhzigk9"><path d="M72.53,390.94c-.06-.11-.14-.23-.27-.24s-.25.17-.29.33a2.36,2.36,0,0,0,0,1.09,1.79,1.79,0,0,0,.39-.13.67.67,0,0,0,.38-.57A1,1,0,0,0,72.53,390.94Z" style="opacity: 0.2; transform-origin: 72.3231px 391.41px;" class="animable"></path></g><g id="elus7wi7wvyq"><path d="M72.67,382.22l0-.06-.07-.09c0-.06-.11-.13-.19-.13s-.15.1-.09.15l0,.17a.23.23,0,0,0,.29.07A.11.11,0,0,0,72.67,382.22Z" style="opacity: 0.2; transform-origin: 72.484px 382.147px;" class="animable"></path></g><path d="M74.75,358.92c-1.13,1-2,5.42-.26,9.12,0,0-1.75-.34-2.29,2.46-.31,1.61,1.12,6.74,3,10.08,0,0-1.83-2.05-3.41-1.88s-2.46,2.42-2.23,4.63,1.42,4.49,2.46,5a3.26,3.26,0,0,0-3.31,1.94c-1.2,2.31-2.59,4.73.13,6a4.71,4.71,0,0,1-2.53.56c-1.79,0-3.18,2.58-3.6,5.16s1,3,1,3a24.13,24.13,0,0,0-3.88,2.69c-1,1-2.81,3.62-.17,5.19s13.94-7.8,19.46-18.5a98.64,98.64,0,0,0,1.52-22.88C80,358.2,76,357.82,74.75,358.92Z" style="fill: rgb(38, 50, 56); transform-origin: 69.5267px 385.786px;" id="el7jpvy3kg0i5" class="animable"></path><g id="el3tumah78p5f"><path d="M74.75,358.92c-1.13,1-2,5.42-.26,9.12,0,0-1.75-.34-2.29,2.46-.31,1.61,1.12,6.74,3,10.08,0,0-1.83-2.05-3.41-1.88s-2.46,2.42-2.23,4.63,1.42,4.49,2.46,5a3.26,3.26,0,0,0-3.31,1.94c-1.2,2.31-2.59,4.73.13,6a4.71,4.71,0,0,1-2.53.56c-1.79,0-3.18,2.58-3.6,5.16s1,3,1,3a24.13,24.13,0,0,0-3.88,2.69c-1,1-2.81,3.62-.17,5.19s13.94-7.8,19.46-18.5a98.64,98.64,0,0,0,1.52-22.88C80,358.2,76,357.82,74.75,358.92Z" style="fill: rgb(255, 255, 255); opacity: 0.8; transform-origin: 69.5267px 385.786px;" class="animable"></path></g><path d="M75.8,359.28c2.31.12,6.49,12.8,3.29,32.2,0,0,1.45-13.75-1.89-19.31S72.72,359.12,75.8,359.28Z" style="fill: rgb(255, 255, 255); transform-origin: 77.126px 375.379px;" id="elxkvmeh7a4gj" class="animable"></path><path d="M78.74,393.22s2.53-17.55-4-24.26c0,0-2.71-1-2,3.71S79.22,384.36,78.74,393.22Z" style="fill: rgb(255, 255, 255); transform-origin: 75.9218px 381.046px;" id="elj98ff1egw3e" class="animable"></path><path d="M78.74,393.22s.44-9.05-4.44-12.94-5,4.59-3.13,6.47S77.67,390.43,78.74,393.22Z" style="fill: rgb(255, 255, 255); transform-origin: 74.401px 386.245px;" id="el5bbtitz8m3e" class="animable"></path><path d="M78.74,393.22S74.18,390,72.54,389s-4.51,1.33-4.73,4.57S75.89,398.1,78.74,393.22Z" style="fill: rgb(255, 255, 255); transform-origin: 73.2729px 392.608px;" id="elemmkxuana8" class="animable"></path><path d="M78.62,393.75a12.49,12.49,0,0,1-10.37,3.44c-4.31-.49-5.85,5.76-4.8,7S75.48,402.62,78.62,393.75Z" style="fill: rgb(255, 255, 255); transform-origin: 70.8761px 399.109px;" id="elqfmyfewmfx8" class="animable"></path><path d="M78.5,394.28a42.78,42.78,0,0,1-9.65,12C63.3,411,61,413,60,411.81s-1.63-1-.23-3.24,3-2.84,7.32-3.95S76.61,397.61,78.5,394.28Z" style="fill: rgb(255, 255, 255); transform-origin: 68.7286px 403.213px;" id="elfybk10piasn" class="animable"></path><path d="M80.23,386s-.66,4.77-.78,5a41.82,41.82,0,0,1-.55-4.2s.28,4.79-.13,5.23-1.18-.1-1.18-.1,1.6,1.42,1,1.83-2.32,2-2.32,2,1.26-.26,1.36-.1-2.36,4.84-2.36,4.84,1.61-1.85,2.63-2.92,2-2.18,2-2.18a11.5,11.5,0,0,0,.47-3C80.43,390.69,80.23,386,80.23,386Z" style="fill: rgb(38, 50, 56); transform-origin: 77.8256px 393.25px;" id="el7f6jquvsxqq" class="animable"></path><g id="elwoehpt0guy"><path d="M80.23,386s-.66,4.77-.78,5a41.82,41.82,0,0,1-.55-4.2s.28,4.79-.13,5.23-1.18-.1-1.18-.1,1.6,1.42,1,1.83-2.32,2-2.32,2,1.26-.26,1.36-.1-2.36,4.84-2.36,4.84,1.61-1.85,2.63-2.92,2-2.18,2-2.18a11.5,11.5,0,0,0,.47-3C80.43,390.69,80.23,386,80.23,386Z" style="fill: rgb(255, 255, 255); opacity: 0.2; transform-origin: 77.8256px 393.25px;" class="animable"></path></g></g><g id="freepik--flower-2--inject-3" class="animable" style="transform-origin: 308.89px 383.785px;"><path d="M249.42,414.8c6.77,0,6.86-15.42,14.26-24.39s18.91-8.87,18.91-8.87-3.59.55-4.27,6-.42,23.85-20.25,27.25Z" style="fill: rgb(38, 50, 56); transform-origin: 266.005px 398.17px;" id="elqwe5t0s4hm" class="animable"></path><g id="eluopwws59uu"><path d="M251.37,414.8c1.67-.19,3.34-.36,5-.65a11.23,11.23,0,0,0,4.54-1.66,7.41,7.41,0,0,0,1.71-1.69,12.11,12.11,0,0,0,1.2-2.14c.66-1.5,1.11-3.15,1.71-4.73a76.29,76.29,0,0,1,4.1-9.25,40.43,40.43,0,0,1,2.61-4.33,17,17,0,0,1,3.39-3.73,16.83,16.83,0,0,0-3.29,3.8,40.17,40.17,0,0,0-2.49,4.38,74.62,74.62,0,0,0-3.85,9.3c-.56,1.58-1,3.21-1.61,4.81a12.25,12.25,0,0,1-1.21,2.29,7.82,7.82,0,0,1-1.83,1.89,12.09,12.09,0,0,1-4.81,1.92c-1.68.34-3.35.55-5,.78Z" style="opacity: 0.2; transform-origin: 263.5px 401.205px;" class="animable"></path></g><path d="M290.66,415.8c15.73-1.63,20.71,1,25.53,3a46.48,46.48,0,0,0,15.89,3.37s-8.91,3.23-34.69.7c-16.89-1.66-13.34-6.57-14.59-7.07S286.13,416.27,290.66,415.8Z" style="fill: rgb(38, 50, 56); transform-origin: 307.336px 419.564px;" id="el0wtsgn3iops" class="animable"></path><g id="el8funiuk6iz8"><path d="M286.32,415.92a74.46,74.46,0,0,1,10,.45,28.25,28.25,0,0,1,4.89,1.15c1.61.52,3.1,1.27,4.64,1.83a55.34,55.34,0,0,0,9.57,2.55,42.09,42.09,0,0,0,9.89.73,41.83,41.83,0,0,1-9.93-.49,56.12,56.12,0,0,1-9.7-2.32c-1.59-.54-3.09-1.24-4.66-1.7a27.86,27.86,0,0,0-4.8-1,75.71,75.71,0,0,0-9.89-.19Z" style="opacity: 0.2; transform-origin: 305.815px 419.317px;" class="animable"></path></g><path d="M270,417.71a207.12,207.12,0,0,1-42.84-4.82,1.5,1.5,0,0,1,.62-2.93c41.34,8.74,68.28,3.82,83.6-1.85,16.55-6.12,23.46-14.4,23.53-14.48a1.5,1.5,0,0,1,2.33,1.89c-.3.36-7.36,8.89-24.56,15.31C303.11,414.41,289.09,417.71,270,417.71Z" style="fill: rgb(38, 50, 56); transform-origin: 281.814px 405.395px;" id="elaapi5y02bn" class="animable"></path><g id="elqw1crknh7u"><g style="opacity: 0.2; transform-origin: 281.716px 405.399px;" class="animable"><path d="M337.26,395.53c-.29.36-7.35,8.88-24.56,15.3a103.18,103.18,0,0,1-17.92,4.81A140.73,140.73,0,0,1,270,417.72a207,207,0,0,1-42.83-4.83,1.5,1.5,0,1,1,.62-2.93c30.45,6.44,53.1,5.46,69,2.24a99,99,0,0,0,14.56-4.09c16.55-6.12,23.46-14.39,23.52-14.48a1.5,1.5,0,0,1,2.33,1.9Z" style="fill: rgb(255, 255, 255); transform-origin: 281.716px 405.399px;" id="elzmwwvpwpv7" class="animable"></path></g></g><g id="elvgynt1wtp89"><path d="M337.26,395.53c-.29.36-7.35,8.88-24.56,15.3a103.18,103.18,0,0,1-17.92,4.81c.62-1.14,1.31-2.29,2.07-3.44a99,99,0,0,0,14.56-4.09c16.55-6.12,23.46-14.39,23.52-14.48a1.5,1.5,0,0,1,2.33,1.9Z" style="opacity: 0.2; transform-origin: 316.189px 404.358px;" class="animable"></path></g><path d="M318,345.88c4.28-5.94,10,2.32,10,2.32s2-3.88,5.28-3,5.82,10.39,5.82,10.39,0-6.38,3.57-5,5.2,6.39,3.5,13.58c0,0,2.33-4.63,5.41-3.06s2.85,10.8,2.85,10.8,1.27-2.26,4.58-.64,1.54,9.27,1.54,9.27,2.8-1.69,4.85.44,0,7.12,0,7.12a50.12,50.12,0,0,1,5.87,1.73c3.32,1.19-1.79,5.42-1.79,5.42s13.62,4.55,8.73,7.81c0,0,6.61,1.13,8.52,3.28s-2.64,3.49-2.64,3.49,5.25.3,7.58,3-14.9,3.21-14.9,3.21,4.44.61-.53,2.86-20,0-20,0,5,3.52-4.68,3.26-13.79-3.46-13.79-3.46,5,3.23-4.51,1.68S321.19,415,321.19,415s0,2-4.81-1.31-2.19-7.12-2.19-7.12-7.11-4.57-8.06-7.45,3.14-4.55,3.14-4.55-6.67-6-6.4-11.56,3.26-4.07,3.26-4.07-2.69-14.57-.92-17.85,5.84,0,5.84,0-1.78-8.46.77-12.9S318,345.88,318,345.88Z" style="fill: rgb(38, 50, 56); transform-origin: 347.374px 382.953px;" id="elh3lrbfr8uyl" class="animable"></path><g id="el8p7wka8yr0q"><path d="M318,345.88c4.28-5.94,10,2.32,10,2.32s2-3.88,5.28-3,5.82,10.39,5.82,10.39,0-6.38,3.57-5,5.2,6.39,3.5,13.58c0,0,2.33-4.63,5.41-3.06s2.85,10.8,2.85,10.8,1.27-2.26,4.58-.64,1.54,9.27,1.54,9.27,2.8-1.69,4.85.44,0,7.12,0,7.12a50.12,50.12,0,0,1,5.87,1.73c3.32,1.19-1.79,5.42-1.79,5.42s13.62,4.55,8.73,7.81c0,0,6.61,1.13,8.52,3.28s-2.64,3.49-2.64,3.49,5.25.3,7.58,3-14.9,3.21-14.9,3.21,4.44.61-.53,2.86-20,0-20,0,5,3.52-4.68,3.26-13.79-3.46-13.79-3.46,5,3.23-4.51,1.68S321.19,415,321.19,415s0,2-4.81-1.31-2.19-7.12-2.19-7.12-7.11-4.57-8.06-7.45,3.14-4.55,3.14-4.55-6.67-6-6.4-11.56,3.26-4.07,3.26-4.07-2.69-14.57-.92-17.85,5.84,0,5.84,0-1.78-8.46.77-12.9S318,345.88,318,345.88Z" style="fill: rgb(255, 255, 255); opacity: 0.8; transform-origin: 347.374px 382.953px;" class="animable"></path></g><g id="el5oe71x9pl3n"><g style="opacity: 0.7; transform-origin: 346.824px 383.324px;" class="animable"><path d="M331.74,383c.54-1.06,2.22.41,2.22.41s1.64,2.07.64,0,4.79-19.8,3.9-26-3.62-11.06-6.05-10.86-2.25,2.41-.71,8.48S330.46,385.44,331.74,383Z" style="fill: rgb(255, 255, 255); transform-origin: 334.596px 365.437px;" id="elvm7py9vvb1" class="animable"></path><path d="M326,387.94c.13,0-.3-2.76,1.23-3.51.22-.11.32-.52.31-1.17.18.17.35.11.51-.24,1.16-2.5,2.56-.07,2.56-.07s-.4-10.33,0-13.9-1.16-19.15-5.12-21.83-5.87-.75-5.87-.75c1.53,2,3,10.29,4.28,18.47-.92-5.58-5.28-19.51-7.9-19.06s-4.6,8.82-4.77,12,7.58,13.7,9.45,18S325.87,387.94,326,387.94Z" style="fill: rgb(255, 255, 255); transform-origin: 320.949px 366.869px;" id="elkk28n2ges1r" class="animable"></path><path d="M319.38,387c4.36,3.4,6.14,4,6.14,4s-.41-2.39.47-2.3c0,0-1.57-1.62-4.72-7.92s-9.45-19.57-12.09-19.74-3.4,13.1-2.3,16.51S315,383.6,319.38,387Z" style="fill: rgb(255, 255, 255); transform-origin: 316.191px 376.019px;" id="eletapk2t0yf" class="animable"></path><path d="M336.5,375.52c-1.7,7-.94,9.55-.94,9.55.69-.75,2.27.64,2.27.64.23-2.15,7.52-13.34,8.38-21.55s-.31-10.44-2.39-12.22-4.34,1-4,4.43S338.2,368.54,336.5,375.52Z" style="fill: rgb(255, 255, 255); transform-origin: 340.943px 368.548px;" id="elsuval4y3nj9" class="animable"></path><path d="M338.59,386.58c1.07.05,2.35,2.83,2.35,2.83a3.93,3.93,0,0,1,2.28-2.83c2.13-1.11,10.73-11.57,10.9-14.68s-.47-7.63-2.3-9.75-3.83,1.2-4.77,2-3.23,12.72-5.36,16.37A53.25,53.25,0,0,0,338.59,386.58Z" style="fill: rgb(255, 255, 255); transform-origin: 346.368px 375.432px;" id="el1igh4zttzgeh" class="animable"></path><path d="M341.86,389.41c-.42.54,1.11,2.44,1.11,2.44,2-1.7,16.68-8.51,17.62-11.32s.59-9.87-3.24-9.27-7.41,10.34-10,12.75S342.28,388.87,341.86,389.41Z" style="fill: rgb(255, 255, 255); transform-origin: 351.408px 381.537px;" id="elbcxjnyd45dj" class="animable"></path><path d="M343.48,391.94l.78,1.92s.58-1,4.07-1.92,15.58-3.32,16.6-4,.25-6.38-1.79-7.16-4.43,3.25-7.48,4.93S345.18,391,343.48,391.94Z" style="fill: rgb(255, 255, 255); transform-origin: 354.429px 387.27px;" id="el86atv2f52o6" class="animable"></path><path d="M345,395.31c-.26.63,4.33-.82,10.37-.73s12.29.8,13.37,0c0,0,3.27-2.08,2.46-3.57s-1.68-2.59-6.55-2.13-15.89,2.38-20.41,5C344.26,393.86,345.28,394.67,345,395.31Z" style="fill: rgb(255, 255, 255); transform-origin: 357.784px 392.122px;" id="ell4aeqewtgf" class="animable"></path><path d="M384.13,409.47s2.75-.59,1.31-3.06S378.51,404,370.69,402h0a33.15,33.15,0,0,0,6.49.94s.77-4.3-7.83-6.49-24.59-.57-24.59-.57v2.72a37.65,37.65,0,0,1,12.25.55c2.65.54,6,1.27,9.25,1.95-8.79-1.47-21.78-2.26-22-2.33s-.78,2.29-.78,2.29a60.07,60.07,0,0,1,12.18,2.22C362.54,405.22,373.2,409.13,384.13,409.47Z" style="fill: rgb(255, 255, 255); transform-origin: 364.669px 402.387px;" id="ellcv5x3psf1" class="animable"></path><path d="M381.86,409.47c-6.72-.08-24.73-3.93-29-5.87a37,37,0,0,0-9.36-2.56v1.28l-.57.49a3.49,3.49,0,0,0-.62-.14c-1.79-.18-1.35.27-1.35.27l.06,0a2.58,2.58,0,0,0-2.8,1.13c1.28,3.15.34,12.43,2.69,14.78s14.93,2.41,15.41,1.31-3.12-3.83-4.31-6.5a30.88,30.88,0,0,0-5.56-7.18,31.19,31.19,0,0,1,2.58,2c2.64,2.32,5.79,8.36,8.43,9.29s18.84,1.54,18.84-.68-5.35-2.29-10.9-4.76c-4.05-1.8-13.48-6-19-8.26a30.31,30.31,0,0,1,5,1.53c3.56,1.54,18.86,8.09,24.87,9.28s12.14.51,13.67-1.7C390.36,412.62,388.59,409.56,381.86,409.47Z" style="fill: rgb(255, 255, 255); transform-origin: 364.109px 410.945px;" id="el1csk4n9t90a" class="animable"></path><path d="M338.2,404.45a16.92,16.92,0,0,0-4.24-1.82h-.64a8.63,8.63,0,0,0-4-2.22c-2.33-.47-5.5,1-7.29,2.23s-5.61,1.06-6.72,4.29,4.25,5.87,5.88,5.9,5.95-4.37,7.65-5,3.23-4.55,5-5.19c-.59.45-2.65,4.42-4.16,5.6s-7.49,4.18-6.33,6.48,13.4,4.6,14.47,3.94-.48-3.68,0-5.81S338.2,404.45,338.2,404.45Z" style="fill: rgb(255, 255, 255); transform-origin: 326.684px 409.548px;" id="el9nvdnxlegc7" class="animable"></path><path d="M330.6,400.4c4.18.73,1.5-1.81-.65-3.51,3,0-.58-4.13-2.9-4.77,0,0-2.21-1.24-4.93-2.71s-12.51-8.87-15-9.3-4.74,1.07-2.64,6.33,4.26,7.37,6,7.42a53.39,53.39,0,0,1,13.65,1.52c-3.79-.28-7.94-1-11.09-.8-4.28.21-6.59.57-5.11,4.53s5.15,5.68,7.17,5S324.44,399.34,330.6,400.4Z" style="fill: rgb(255, 255, 255); transform-origin: 318.224px 392.148px;" id="elz7tryn3c12" class="animable"></path></g></g><path d="M326.19,389.82c1.61-10.88,15.51-3.94,19.59,7.31S323.46,408.29,326.19,389.82Z" style="fill: rgb(166, 104, 144); transform-origin: 336.1px 394.58px;" id="elol3szvpfvl" class="animable"></path><g id="el7h20k9pj5m"><path d="M326.19,389.82c1.61-10.88,15.51-3.94,19.59,7.31S323.46,408.29,326.19,389.82Z" style="opacity: 0.2; transform-origin: 336.1px 394.58px;" class="animable"></path></g><g id="elh7drjmflbr"><path d="M340.78,397.88a1,1,0,0,0,1,.09,2.12,2.12,0,0,0-1.11-2.15.61.61,0,0,0,.91-.63.75.75,0,0,0-.09-.15,2.09,2.09,0,0,1,.54-.25.2.2,0,0,0,.11,0,.22.22,0,0,0,.06-.14,1,1,0,0,0-.25-.79.73.73,0,0,0-.69-.28,1.56,1.56,0,0,0-.52.15.57.57,0,0,0-.31.41.59.59,0,0,0,0,.13,4.35,4.35,0,0,0-1.52-.48.83.83,0,0,0,.5-.27.86.86,0,0,0,.07-1,1,1,0,0,0-.63-.43.5.5,0,0,0,0-.34,1,1,0,0,0-.89-.63.42.42,0,0,0-.3.1.35.35,0,0,0,0,.38.89.89,0,0,0,.29.29l.09,0a1.57,1.57,0,0,1-1.11-.48.41.41,0,0,1-.09-.33c.06-.23.37-.25.56-.39a.6.6,0,0,0-.06-.9,1.23,1.23,0,0,0-1-.18l-.36-1a1.42,1.42,0,0,0-.62.29,1.86,1.86,0,0,0-1.11-1,.42.42,0,0,0-.46,0c-.17.18-.09.6-.34.61a1.54,1.54,0,0,0-.74-1,.93.93,0,0,0-1.13.24,1,1,0,0,0,0,.89c-.22,0-.63-.07-.78.19s0,.45-.06.67a.67.67,0,0,1-.67.55.48.48,0,0,0,.11-.3.56.56,0,0,0-.37-.51.74.74,0,0,0-.63.07c-.06,0-.12.09-.12.16a.2.2,0,0,0,.09.15.75.75,0,0,0,.47.19l.17.4a.46.46,0,0,0,.19-.08,3.32,3.32,0,0,1,.87,1.45c-.31-.26-.78.25-.64.63s.57.57.95.71a1,1,0,0,0-.23,1.27,2.77,2.77,0,0,0,1,1,1.38,1.38,0,0,0-.78,0,.5.5,0,0,0-.32.62.72.72,0,0,0,.42.3l.79.33a.51.51,0,0,1,.28.19.79.79,0,0,1,.08.31c.09.45.6.66,1.05.77a1.71,1.71,0,0,1,1.19.59.82.82,0,0,0,.57,1.42,2.61,2.61,0,0,0,.85-.26,2.32,2.32,0,0,1,2.2.35.56.56,0,0,0,0-.66.87.87,0,0,0,.4.19,1.34,1.34,0,0,0,.29-1.09,1.38,1.38,0,0,0,1.26.64C340.78,398.91,341.12,398.24,340.78,397.88Z" style="opacity: 0.2; transform-origin: 335.634px 393.611px;" class="animable"></path></g><g id="eld59u7ll87k5"><path d="M332.5,397.46a1.61,1.61,0,0,0-.49,0,1.07,1.07,0,0,0-.32.08.5.5,0,0,0-.23.47.94.94,0,0,0,.19.5,1.87,1.87,0,0,0,.87.67l-.67-.54a1.81,1.81,0,0,0,1.39.42,1.91,1.91,0,0,0-.06-.95A1,1,0,0,0,332.5,397.46Z" style="opacity: 0.2; transform-origin: 332.366px 398.311px;" class="animable"></path></g><g id="elgnx5zhjnjua"><path d="M335.59,400.23a2.26,2.26,0,0,0-.86-.05.62.62,0,0,0,.61.3l.17.28c.2,0,.42-.17.34-.35A.38.38,0,0,0,335.59,400.23Z" style="opacity: 0.2; transform-origin: 335.298px 400.46px;" class="animable"></path></g><g id="el0uu946hg2kwe"><path d="M339.54,400.19A1.07,1.07,0,0,0,339,400a.44.44,0,0,0-.45.3.53.53,0,0,0,.17.42,1.1,1.1,0,0,0,.35.26,2.8,2.8,0,0,0,.46-.16.4.4,0,0,0,.25-.24C339.8,400.4,339.67,400.28,339.54,400.19Z" style="opacity: 0.2; transform-origin: 339.166px 400.489px;" class="animable"></path></g><g id="el0zhp67nilcu"><path d="M339.37,401.08a1.14,1.14,0,0,1-.3-.13c-.07,0-.13.06-.19.07Z" style="opacity: 0.2; transform-origin: 339.125px 401.015px;" class="animable"></path></g><g id="ell1nllpa6t9h"><path d="M337.45,402.57v0l.07,0Z" style="opacity: 0.2; transform-origin: 337.485px 402.57px;" class="animable"></path></g><g id="eleduwk5eecfk"><path d="M337.35,402.36a.7.7,0,0,0-.36-.06.6.6,0,0,0,.46.27A.25.25,0,0,0,337.35,402.36Z" style="opacity: 0.2; transform-origin: 337.22px 402.433px;" class="animable"></path></g><g id="elhxi121af8b7"><path d="M337.31,402.75a.47.47,0,0,0,.12-.07s0-.05,0-.07l-.57.19A1.09,1.09,0,0,0,337.31,402.75Z" style="opacity: 0.2; transform-origin: 337.145px 402.708px;" class="animable"></path></g><g id="el6pfpygu2a1h"><path d="M329.27,394.27a.25.25,0,0,0,.32.3l-.13.38c.14,0,.24-.15.25-.29a.51.51,0,0,0-.1-.34A.25.25,0,0,0,329.27,394.27Z" style="opacity: 0.2; transform-origin: 329.487px 394.587px;" class="animable"></path></g><g id="el0646lq64aqva"><path d="M329.28,391.62a.18.18,0,0,0,.09-.08c0-.07,0-.15-.09-.2a1.19,1.19,0,0,0-.52-.32.41.41,0,0,0-.49.26.48.48,0,0,0,.29.46,2.81,2.81,0,0,1,.52.26l-.13-.19Z" style="opacity: 0.2; transform-origin: 328.82px 391.503px;" class="animable"></path></g><g id="elrk8v2gb1j7k"><path d="M330.86,388a1,1,0,0,0,.62-.39.43.43,0,0,0,.11-.25.4.4,0,0,0-.21-.37,1.15,1.15,0,0,0-.42-.13.64.64,0,0,0-.41,0c-.12.07-.18.26-.08.35a.29.29,0,0,0,.13.05l-.41,0c-.17.09-.12.32,0,.47A.71.71,0,0,0,330.86,388Z" style="opacity: 0.2; transform-origin: 330.835px 387.417px;" class="animable"></path></g><g id="eldt6fb6v7n9a"><path d="M332.86,386.77l0,0a.82.82,0,0,0,.35,0,.11.11,0,0,0,.07,0s0-.11,0-.16a.55.55,0,0,0-.32-.18.27.27,0,0,0-.29.19C332.6,386.71,332.75,386.83,332.86,386.77Z" style="opacity: 0.2; transform-origin: 332.966px 386.609px;" class="animable"></path></g><g id="elnxgzuidml0r"><path d="M337.77,388.35c.06,0,0-.12,0-.16a1.44,1.44,0,0,0-1-.36,2.09,2.09,0,0,0,.73.51Z" style="opacity: 0.2; transform-origin: 337.283px 388.09px;" class="animable"></path></g><g id="elogagfb3ha99"><path d="M340.15,391l-.21.21.39-.22c.06,0,.13-.08.13-.14a.17.17,0,0,0-.06-.11c-.18-.21-.45-.43-.7-.32a.23.23,0,0,0-.09.08.26.26,0,0,0,.06.26A.7.7,0,0,0,340.15,391Z" style="opacity: 0.2; transform-origin: 340.029px 390.8px;" class="animable"></path></g><g id="elprn3p5a79c"><path d="M343.38,396.2c.1,0,.16-.12.14-.21a.43.43,0,0,0-.2-.2,2,2,0,0,0-.59-.24,1,1,0,0,0,.74.91Z" style="opacity: 0.2; transform-origin: 343.127px 396.005px;" class="animable"></path></g><g id="elpjbz5ghow9s"><path d="M344.53,398.25l0-.05a.2.2,0,0,0,0-.25.2.2,0,0,0-.25-.07A.36.36,0,0,0,344.53,398.25Z" style="opacity: 0.2; transform-origin: 344.426px 398.056px;" class="animable"></path></g><g id="eltc751erpnvm"><path d="M342.26,399.89a1.14,1.14,0,0,0-1-.14.34.34,0,0,0-.16.1.42.42,0,0,0,0,.25c0,.55.63,2,1.4,1.33a.84.84,0,0,0,.28-.63A1.14,1.14,0,0,0,342.26,399.89Z" style="opacity: 0.2; transform-origin: 341.93px 400.648px;" class="animable"></path></g><g id="el3l88lf1t2gr"><path d="M343.66,399.11a.87.87,0,0,0-.32-.06.3.3,0,0,0-.19,0c-.14.08-.1.3,0,.42a3.94,3.94,0,0,0,.4.26l.05-.23c.1,0,.21-.06.22-.17A.3.3,0,0,0,343.66,399.11Z" style="opacity: 0.2; transform-origin: 343.44px 399.382px;" class="animable"></path></g><g id="elc9tbjb9tndh"><path d="M344.35,400.63h-.09a.14.14,0,0,0,0,.21.38.38,0,0,0,.21.12v0c.08.1.25,0,.22-.16S344.48,400.65,344.35,400.63Z" style="opacity: 0.2; transform-origin: 344.453px 400.815px;" class="animable"></path></g><g id="el2k6f7najsbx"><path d="M334.62,386.5a.83.83,0,0,0,.58.17.44.44,0,0,0-.15-.47.46.46,0,0,0-.5,0,1.14,1.14,0,0,0,.32.18Z" style="opacity: 0.2; transform-origin: 334.884px 386.4px;" class="animable"></path></g><g id="eltx6e96i57bg"><path d="M328.55,397.44a.33.33,0,0,0,0,.5l.13-.19a.65.65,0,0,0,.2.05.17.17,0,0,0,.16-.13.17.17,0,0,0,0-.07A.33.33,0,0,0,328.55,397.44Z" style="opacity: 0.2; transform-origin: 328.74px 397.663px;" class="animable"></path></g><g id="elqbust04mzur"><path d="M331.43,401.09h0a1,1,0,0,1-.3,0Z" style="opacity: 0.2; transform-origin: 331.28px 401.096px;" class="animable"></path></g><g id="eldtygw0fxj3d"><path d="M331.43,400.5a.59.59,0,0,0-.28-.1.26.26,0,0,0-.24.15.24.24,0,0,0,0,.19.65.65,0,0,0,.45.34,1.37,1.37,0,0,0,.44-.12.13.13,0,0,0,.07-.06s0-.1-.07-.14A2.48,2.48,0,0,0,331.43,400.5Z" style="opacity: 0.2; transform-origin: 331.38px 400.74px;" class="animable"></path></g><g id="el7ub1ubyohuv"><path d="M331.68,401.09h-.25A.53.53,0,0,0,331.68,401.09Z" style="opacity: 0.2; transform-origin: 331.555px 401.097px;" class="animable"></path></g><g id="el589dvgs2bdi"><path d="M341.51,402.77s0-.09-.08-.11a.87.87,0,0,0-.45-.09.39.39,0,0,0-.33.28.42.42,0,0,0,.28.42,1.23,1.23,0,0,0,.54,0l-.6-.21.58-.27S341.5,402.8,341.51,402.77Z" style="opacity: 0.2; transform-origin: 341.08px 402.934px;" class="animable"></path></g><g id="elayqrok41lct"><path d="M327.54,387.34a.43.43,0,0,0-.11.61l-.09.08a1,1,0,0,0,.41-.47c0-.08,0-.18,0-.23A.17.17,0,0,0,327.54,387.34Z" style="opacity: 0.2; transform-origin: 327.545px 387.664px;" class="animable"></path></g><g id="elpa1it0bv45o"><path d="M331.22,385.38a1.26,1.26,0,0,0,.74-.15c.09-.06.16-.19.08-.27a.21.21,0,0,0-.14,0,1.58,1.58,0,0,0-.79.21.69.69,0,0,0,.45.09Z" style="opacity: 0.2; transform-origin: 331.592px 385.167px;" class="animable"></path></g><g id="elobuepmu8xj"><path d="M326.65,392.59a.54.54,0,0,0-.21.42l.56,0a.26.26,0,0,0,.1-.4A.35.35,0,0,0,326.65,392.59Z" style="opacity: 0.2; transform-origin: 326.798px 392.764px;" class="animable"></path></g></g><g id="freepik--bee-1--inject-3" class="animable" style="transform-origin: 96.2377px 323.051px;"><path d="M98.55,317.27S88.91,313,85,314.39s2.12,2.93,13.38,3.28Z" style="fill: rgb(166, 104, 144); transform-origin: 91.1789px 315.891px;" id="elwt2vet0ky8p" class="animable"></path><g id="elbhqylt03cyc"><path d="M98.55,317.27S88.91,313,85,314.39s2.12,2.93,13.38,3.28Z" style="fill: rgb(255, 255, 255); opacity: 0.7; transform-origin: 91.1789px 315.891px;" class="animable"></path></g><path d="M101.36,318.15c-.18-1.59.42-2.82,2.36-2.49,2.57.44,2.88,3.79,1.22,6S101.53,319.58,101.36,318.15Z" style="fill: rgb(38, 50, 56); transform-origin: 103.649px 318.944px;" id="eltfpvpc2b3fa" class="animable"></path><path d="M97.59,316.51a.93.93,0,0,1,.55.2c.13-.51.83-.61,1.35-.51a4.72,4.72,0,0,1,2,.89,1.13,1.13,0,0,0,.36.22c.37.11.73-.16,1-.42a2.3,2.3,0,0,0,.33,1.33,3.35,3.35,0,0,1,.37.63,2.06,2.06,0,0,1,0,.89,2.83,2.83,0,0,1-.25,1,1,1,0,0,1-.82.57.78.78,0,0,1,.33.58.41.41,0,0,1-.45.4c.28.09.19.54-.05.71s-.56.21-.78.41-.17.23-.27.33a1.28,1.28,0,0,1-1.13.21,4.75,4.75,0,0,1-2.09-.92c.42.33-.75,0-.72,0a8.9,8.9,0,0,1-1.29-.2,1.88,1.88,0,0,1-1-1.49c0-.69.92-3.62,1.7-3.22C97,317.62,97.27,317.05,97.59,316.51Z" style="fill: rgb(38, 50, 56); transform-origin: 99.3143px 320.083px;" id="ely1s9nkjwohc" class="animable"></path><g id="el5iy6m34cuje"><path d="M97.59,316.51a.93.93,0,0,1,.55.2c.13-.51.83-.61,1.35-.51a4.72,4.72,0,0,1,2,.89,1.13,1.13,0,0,0,.36.22c.37.11.73-.16,1-.42a2.3,2.3,0,0,0,.33,1.33,3.35,3.35,0,0,1,.37.63,2.06,2.06,0,0,1,0,.89,2.83,2.83,0,0,1-.25,1,1,1,0,0,1-.82.57.78.78,0,0,1,.33.58.41.41,0,0,1-.45.4c.28.09.19.54-.05.71s-.56.21-.78.41-.17.23-.27.33a1.28,1.28,0,0,1-1.13.21,4.75,4.75,0,0,1-2.09-.92c.42.33-.75,0-.72,0a8.9,8.9,0,0,1-1.29-.2,1.88,1.88,0,0,1-1-1.49c0-.69.92-3.62,1.7-3.22C97,317.62,97.27,317.05,97.59,316.51Z" style="fill: rgb(255, 255, 255); opacity: 0.3; transform-origin: 99.3143px 320.083px;" class="animable"></path></g><path d="M98.36,321.35a5.84,5.84,0,0,1-.48,2.12,12.15,12.15,0,0,1-.91,2,15.6,15.6,0,0,1-.9,1.46c-.3.46-.63.92-1,1.37s-.59.75-.9,1.1l-.57.62c-.32.34-.66.67-1,1l-.45.4a12.53,12.53,0,0,1-1.16.91,11.3,11.3,0,0,1-1.93,1.19,16.72,16.72,0,0,1-1.19-2,9.65,9.65,0,0,1-.58-1.34,8.6,8.6,0,0,1-.57-2.39,7.27,7.27,0,0,1,0-.81,3.06,3.06,0,0,1,.07-.54,8,8,0,0,1,.55-2.29,6.39,6.39,0,0,1,.64-1.25,6.3,6.3,0,0,1,1.52-1.71,7,7,0,0,1,1.44-1h0a8.71,8.71,0,0,1,2.87-.88,8.07,8.07,0,0,1,2.72.11,5.15,5.15,0,0,1,1,.3A1.63,1.63,0,0,1,98.36,321.35Z" style="fill: rgb(38, 50, 56); transform-origin: 92.5407px 326.381px;" id="el8z0vk23mxkw" class="animable"></path><path d="M92.17,331.36a12.53,12.53,0,0,1-1.16.91,6.81,6.81,0,0,0-3.12-.86,9.65,9.65,0,0,1-.58-1.34A8,8,0,0,1,92.17,331.36Z" style="fill: rgb(166, 104, 144); transform-origin: 89.74px 331.163px;" id="el5e2v52dpdoc" class="animable"></path><path d="M93.61,330c-.32.34-.66.67-1,1a9.09,9.09,0,0,0-5.88-3.28,7.27,7.27,0,0,1,0-.81,3.06,3.06,0,0,1,.07-.54A10.93,10.93,0,0,1,93.61,330Z" style="fill: rgb(166, 104, 144); transform-origin: 90.1644px 328.685px;" id="el3oq6ewheo9l" class="animable"></path><path d="M95.08,328.27c-.28.38-.59.75-.9,1.1A10.24,10.24,0,0,0,87.35,324a6.39,6.39,0,0,1,.64-1.25A11.53,11.53,0,0,1,95.08,328.27Z" style="fill: rgb(166, 104, 144); transform-origin: 91.215px 326.06px;" id="el1zxektlpd9m" class="animable"></path><path d="M97,325.44a15.6,15.6,0,0,1-.9,1.46,8.47,8.47,0,0,0-6.56-5.82,7,7,0,0,1,1.44-1h0A9.64,9.64,0,0,1,97,325.44Z" style="fill: rgb(166, 104, 144); transform-origin: 93.27px 323.49px;" id="el9ky22vq9bb8" class="animable"></path><path d="M98.36,321.35a5.84,5.84,0,0,1-.48,2.12,7.09,7.09,0,0,0-4-4.24,8.07,8.07,0,0,1,2.72.11A7.84,7.84,0,0,1,98.36,321.35Z" style="fill: rgb(166, 104, 144); transform-origin: 96.12px 321.316px;" id="el57urvnux6if" class="animable"></path><path d="M102.15,318.26a5,5,0,0,1-.45-.78c-2.48-1.66-8.29-5.25-11.48-4.87-4,.48,1.2,3.16,11.58,5.81A.75.75,0,0,1,102.15,318.26Z" style="fill: rgb(166, 104, 144); transform-origin: 95.5105px 315.501px;" id="eld0ktkyz2a1" class="animable"></path><g id="elwbolie7smo"><path d="M102.15,318.26a5,5,0,0,1-.45-.78c-2.48-1.66-8.29-5.25-11.48-4.87-4,.48,1.2,3.16,11.58,5.81A.75.75,0,0,1,102.15,318.26Z" style="fill: rgb(255, 255, 255); opacity: 0.8; transform-origin: 95.5105px 315.501px;" class="animable"></path></g><path d="M104.87,317.09a.17.17,0,0,1-.14-.07.17.17,0,0,1,0-.23c.24-.18.3-.65.36-1.11.09-.64.18-1.36.81-1.46a8.19,8.19,0,0,1,2.65.4.18.18,0,0,1,.11.22.17.17,0,0,1-.21.11,7.85,7.85,0,0,0-2.5-.39c-.34.05-.43.49-.52,1.16a1.92,1.92,0,0,1-.5,1.34A.17.17,0,0,1,104.87,317.09Z" style="fill: rgb(38, 50, 56); transform-origin: 106.676px 315.655px;" id="elmgv768u6v6c" class="animable"></path><path d="M104.31,316.83a.18.18,0,0,1-.18-.16,4.82,4.82,0,0,0-.61-2.18.49.49,0,0,1,0-.66,2.15,2.15,0,0,1,2.07-.51.18.18,0,0,1,.08.23.17.17,0,0,1-.23.08,1.87,1.87,0,0,0-1.64.4.16.16,0,0,0,0,.23,5.56,5.56,0,0,1,.7,2.39.18.18,0,0,1-.16.18Z" style="fill: rgb(38, 50, 56); transform-origin: 104.539px 315.034px;" id="elt8dq1cszc3k" class="animable"></path><path d="M102.15,321.32c1.37-.23,2.69.73,3.69,1.59,1,1.69.76,4.1.43,6-.55-1.73-.57-3.67-1.15-5.3a9,9,0,0,0-3-2.26Z" style="fill: rgb(38, 50, 56); transform-origin: 104.338px 325.098px;" id="el37ozkh74o7f" class="animable"></path><path d="M101.33,322a13.45,13.45,0,0,1,2.68,2.26,11,11,0,0,1,.86,5.76c-.8-1.71-1.08-3.57-1.68-5.24a18.7,18.7,0,0,1-1.86-2.78Z" style="fill: rgb(38, 50, 56); transform-origin: 103.139px 326.01px;" id="elfdjfv6hyl2g" class="animable"></path><path d="M99.81,322.79a14.17,14.17,0,0,0-.59,3.43,4.08,4.08,0,0,0,.14,1,17.24,17.24,0,0,1,.45,4.85,11.74,11.74,0,0,1-1.88-6,5,5,0,0,1,1.88-3.29Z" style="fill: rgb(38, 50, 56); transform-origin: 98.8804px 327.425px;" id="el08m1vum6m9t6" class="animable"></path></g><g id="freepik--honey-jar-1--inject-3" class="animable" style="transform-origin: 198.682px 355.475px;"><path d="M157.22,289.45h82.92a1.41,1.41,0,0,1,1.41,1.41v24.91a0,0,0,0,1,0,0H155.82a0,0,0,0,1,0,0V290.85A1.41,1.41,0,0,1,157.22,289.45Z" style="fill: rgb(166, 104, 144); transform-origin: 198.685px 302.61px;" id="elfjco80pfp3d" class="animable"></path><g id="elxqwlrfxn04b"><path d="M241.55,291.14v24.62H155.82V291.14a1.7,1.7,0,0,1,1.7-1.69h82.33a1.7,1.7,0,0,1,1.6,1.12A1.63,1.63,0,0,1,241.55,291.14Z" style="fill: rgb(255, 255, 255); opacity: 0.6; transform-origin: 198.685px 302.605px;" class="animable"></path></g><g id="eljkek20smtoi"><path d="M241.55,291.14v24.62H181.84c-7.05-4.71-3.19-11.83-.13-11.83,4.32,0,7.19-.91,6-2.22s-.92-2.18,3.39-3.66-6-7.48,6.89-7.48h43.5A1.63,1.63,0,0,1,241.55,291.14Z" style="opacity: 0.05; transform-origin: 209.708px 303.165px;" class="animable"></path></g><path d="M274.43,337.5a61.55,61.55,0,0,0-24.66-31,16.7,16.7,0,0,0-8.91-2.54H156.51a16.74,16.74,0,0,0-8.92,2.54,61.49,61.49,0,0,0-24.65,31c-8,21.7,13.59,68.51,19.64,80.92a5.47,5.47,0,0,0,4.93,3.08H249.86a5.47,5.47,0,0,0,4.92-3.08C260.84,406,282.41,359.2,274.43,337.5Z" style="fill: rgb(166, 104, 144); transform-origin: 198.682px 362.73px;" id="el78dvhbovt0f" class="animable"></path><g id="elugi5o0r9ka"><path d="M274.43,337.5a61.55,61.55,0,0,0-24.66-31,16.7,16.7,0,0,0-8.91-2.54H156.51a16.74,16.74,0,0,0-8.92,2.54,61.49,61.49,0,0,0-24.65,31c-8,21.7,13.59,68.51,19.64,80.92a5.47,5.47,0,0,0,4.93,3.08H249.86a5.47,5.47,0,0,0,4.92-3.08C260.84,406,282.41,359.2,274.43,337.5Z" style="fill: rgb(255, 255, 255); opacity: 0.7; transform-origin: 198.682px 362.73px;" class="animable"></path></g><path d="M220.82,301.65l20.74-.54a.59.59,0,0,1,.62.59.6.6,0,0,1-.62.62l-20.74-.67Z" style="fill: rgb(166, 104, 144); transform-origin: 231.5px 301.715px;" id="elp6aj8184c6i" class="animable"></path><path d="M155.8,302.25a.6.6,0,0,1,0-1.2l85.76-2.36a.61.61,0,0,1,0,1.21l-85.76,2.35Z" style="fill: rgb(166, 104, 144); transform-origin: 198.646px 300.47px;" id="eloxp5rgnx6xq" class="animable"></path><path d="M155.8,299.83a.6.6,0,0,1-.6-.58.6.6,0,0,1,.59-.62l85.76-2.36a.64.64,0,0,1,.62.59.62.62,0,0,1-.59.62l-85.76,2.35Z" style="fill: rgb(166, 104, 144); transform-origin: 198.685px 298.05px;" id="el3krwge77eej" class="animable"></path><path d="M155.8,297.42a.61.61,0,0,1,0-1.21l85.76-2.36a.63.63,0,0,1,.62.59.62.62,0,0,1-.59.62l-85.76,2.36Z" style="fill: rgb(166, 104, 144); transform-origin: 198.724px 295.635px;" id="el5vq1l0g9q13" class="animable"></path><path d="M155.8,295a.61.61,0,0,1,0-1.21l85.76-2.35a.6.6,0,1,1,0,1.2L155.82,295Z" style="fill: rgb(166, 104, 144); transform-origin: 198.714px 293.22px;" id="ele6l101l42gp" class="animable"></path><path d="M155.81,291.37,178,292l-22.16.54a.61.61,0,1,1,0-1.21Z" style="fill: rgb(166, 104, 144); transform-origin: 166.576px 291.935px;" id="el0xndn8h86d2l" class="animable"></path><g id="elovrjj2ja8te"><g style="opacity: 0.7; transform-origin: 198.666px 296.823px;" class="animable"><path d="M220.82,301.65l20.74-.54a.59.59,0,0,1,.62.59.6.6,0,0,1-.62.62l-20.74-.67Z" style="fill: rgb(255, 255, 255); transform-origin: 231.5px 301.715px;" id="elwn82xkw04ui" class="animable"></path><path d="M155.8,302.25a.6.6,0,0,1,0-1.2l85.76-2.36a.61.61,0,0,1,0,1.21l-85.76,2.35Z" style="fill: rgb(255, 255, 255); transform-origin: 198.646px 300.47px;" id="elyys9izefosb" class="animable"></path><path d="M155.8,299.83a.6.6,0,0,1-.6-.58.6.6,0,0,1,.59-.62l85.76-2.36a.64.64,0,0,1,.62.59.62.62,0,0,1-.59.62l-85.76,2.35Z" style="fill: rgb(255, 255, 255); transform-origin: 198.685px 298.05px;" id="el1kqlk3r5ci3" class="animable"></path><path d="M155.8,297.42a.61.61,0,0,1,0-1.21l85.76-2.36a.63.63,0,0,1,.62.59.62.62,0,0,1-.59.62l-85.76,2.36Z" style="fill: rgb(255, 255, 255); transform-origin: 198.724px 295.635px;" id="elap51x4m5mc" class="animable"></path><path d="M155.8,295a.61.61,0,0,1,0-1.21l85.76-2.35a.6.6,0,1,1,0,1.2L155.82,295Z" style="fill: rgb(255, 255, 255); transform-origin: 198.714px 293.22px;" id="elsaowyn0jxqd" class="animable"></path><path d="M155.81,291.37,178,292l-22.16.54a.61.61,0,1,1,0-1.21Z" style="fill: rgb(255, 255, 255); transform-origin: 166.576px 291.935px;" id="elm322z6ukiec" class="animable"></path></g></g><path d="M272.54,347.89c.43,17.95-9.87,46.12-21,68.95a1.84,1.84,0,0,1-1.68,1H147.51a1.84,1.84,0,0,1-1.67-1c-11.61-23.79-22.31-53.36-20.91-71.14a606,606,0,0,0,61.21-.48C220.39,343.38,251.35,341.06,272.54,347.89Z" style="fill: rgb(166, 104, 144); transform-origin: 198.68px 380.571px;" id="elzghumdi6j6" class="animable"></path><g id="eluk70bvmj789"><path d="M272.54,347.89c.43,17.95-9.87,46.12-21,68.95a1.84,1.84,0,0,1-1.68,1H147.51a1.84,1.84,0,0,1-1.67-1c-11.61-23.79-22.31-53.36-20.91-71.14a606,606,0,0,0,61.21-.48C220.39,343.38,251.35,341.06,272.54,347.89Z" style="fill: rgb(255, 255, 255); opacity: 0.2; transform-origin: 198.68px 380.571px;" class="animable"></path></g><path d="M272.54,347.89c.43,17.95-9.87,46.12-21,68.95a1.84,1.84,0,0,1-1.68,1H147.51a1.84,1.84,0,0,1-1.67-1c-11.61-23.79-22.31-53.36-20.91-71.14,8.81-3.37,22.24-4.85,58.43,2.19S272.38,353.37,272.54,347.89Z" style="fill: rgb(166, 104, 144); transform-origin: 198.68px 380.364px;" id="el8bd7f01jv0q" class="animable"></path><g id="el6w5dw4ptyip"><g style="opacity: 0.2; transform-origin: 199.015px 349.482px;" class="animable"><path d="M269,347.93a136.92,136.92,0,0,0-19.16-2.42c-6.41-.39-12.83-.55-19.25-.53s-12.83.28-19.24.56q-4.8.29-9.59.63l-9.58.84,9.6-.44,9.6-.33q9.6-.25,19.21-.2c6.4,0,12.79.23,19.17.67A154.6,154.6,0,0,1,266,348.46c-2.41.41-4.85.69-7.29,1-3.37.35-6.77.56-10.16.73q-10.19.45-20.4.39c3.39.2,6.8.3,10.2.36s6.82.07,10.23,0,6.81-.22,10.22-.51A81.71,81.71,0,0,0,269,349l2.46-.52Z" style="fill: rgb(255, 255, 255); transform-origin: 231.82px 347.984px;" id="el7ufb2s8hd12" class="animable"></path><path d="M151.75,344.88a80.14,80.14,0,0,0-12.87-.23,41.85,41.85,0,0,0-6.39.91,23.82,23.82,0,0,0-3.08.95,10.3,10.3,0,0,0-2.84,1.54l.08.09a10.23,10.23,0,0,1,2.87-1.31,23.5,23.5,0,0,1,3.09-.73,41.75,41.75,0,0,1,6.32-.61,87,87,0,0,1,12.7.59c8.45,1,16.88,2.34,25.33,3.6s16.92,2.47,25.42,3.33,17.05,1.38,25.59,1.46v-.12c-17.08-.48-34-2.81-50.86-5.62C168.69,347.34,160.3,345.71,151.75,344.88Z" style="fill: rgb(255, 255, 255); transform-origin: 177.27px 349.482px;" id="elfp71g0e86rf" class="animable"></path></g></g><g id="eltkrji6vz3vn"><path d="M248.74,415c0,.74-22.6,1.34-50.48,1.34s-50.47-.6-50.47-1.34,22.6-1.33,50.47-1.33S248.74,414.22,248.74,415Z" style="fill: rgb(255, 255, 255); opacity: 0.2; transform-origin: 198.265px 415.005px;" class="animable"></path></g><g id="el2lkmijwjbi3"><g style="opacity: 0.2; transform-origin: 196.255px 380.645px;" class="animable"><path d="M159.61,388.75a1.54,1.54,0,1,1,1.54,1.54A1.54,1.54,0,0,1,159.61,388.75Z" id="elxssknr2veqa" class="animable" style="transform-origin: 161.15px 388.75px;"></path><circle cx="156.83" cy="359.02" r="1.54" id="elypfocnpos38" class="animable" style="transform-origin: 156.83px 359.02px;"></circle><circle cx="260.61" cy="361.82" r="1.54" id="el7xxge4luqs6" class="animable" style="transform-origin: 260.61px 361.82px;"></circle><circle cx="220.71" cy="385.5" r="2.48" id="el1rxkiz3yr9v" class="animable" style="transform-origin: 220.71px 385.5px;"></circle><circle cx="197.91" cy="407.21" r="2.48" id="el70q1f0b2ooc" class="animable" style="transform-origin: 197.91px 407.21px;"></circle><circle cx="223.19" cy="366.76" r="0.77" id="elptpaoj1bd7" class="animable" style="transform-origin: 223.19px 366.76px;"></circle><circle cx="253.46" cy="396.67" r="0.77" id="el5aonno96pn5" class="animable" style="transform-origin: 253.46px 396.67px;"></circle><path d="M188.8,362.72a.78.78,0,0,1,1.55,0,.78.78,0,0,1-1.55,0Z" id="el5o9gblbsa9q" class="animable" style="transform-origin: 189.575px 362.72px;"></path><circle cx="151.85" cy="406.5" r="0.77" id="elto8suvaei9a" class="animable" style="transform-origin: 151.85px 406.5px;"></circle><path d="M149.53,361.34a.78.78,0,1,1,.78.77A.78.78,0,0,1,149.53,361.34Z" id="elwnqc0js51y" class="animable" style="transform-origin: 150.31px 361.33px;"></path><path d="M130.36,354.47a.77.77,0,1,1,.77.78A.78.78,0,0,1,130.36,354.47Z" id="elo99fsg8id9" class="animable" style="transform-origin: 131.13px 354.48px;"></path><path d="M254.24,352.37a.77.77,0,0,1,1.54,0,.77.77,0,1,1-1.54,0Z" id="el3f4quuz4ewp" class="animable" style="transform-origin: 255.01px 352.37px;"></path><circle cx="201.16" cy="402.54" r="0.77" id="elmu53rjz4buk" class="animable" style="transform-origin: 201.16px 402.54px;"></circle></g></g><path d="M213.26,349.6c-7.28-.56-11.78-5.5-10.73-13.49s.65-11.21-2.14-12.43-5.53,2.77-3.45,9.56-.62,16.12-6.29,15.41A136.74,136.74,0,0,0,207.6,351C213.48,351.48,213.26,349.6,213.26,349.6Z" style="fill: rgb(166, 104, 144); transform-origin: 201.956px 337.27px;" id="elbtyl83mz2d" class="animable"></path><g id="elowpl045emj"><path d="M196.73,329.73c.33-1.77,5.8-2.27,5.94-.69s-.95,9.43-2.56,10.22S196.47,331.21,196.73,329.73Z" style="opacity: 0.1; transform-origin: 199.695px 333.7px;" class="animable"></path></g><path d="M199.3,324.22c2.4-.61,3.13,4.57.39,6.26S195.34,325.23,199.3,324.22Z" style="fill: rgb(166, 104, 144); transform-origin: 199.187px 327.457px;" id="eljfwskebf7uk" class="animable"></path><path d="M199,333.36c-.22-1.17,1.24-2.23,1.75-1.08S199.5,336,199,333.36Z" style="fill: rgb(166, 104, 144); transform-origin: 199.91px 333.148px;" id="el9seheyqwh2v" class="animable"></path><g id="elcb8vtpq6pl"><path d="M199.3,324.22c2.4-.61,3.13,4.57.39,6.26S195.34,325.23,199.3,324.22Z" style="fill: rgb(255, 255, 255); opacity: 0.3; transform-origin: 199.187px 327.457px;" class="animable"></path></g><g id="elbvlcvork9y"><path d="M199,333.36c-.22-1.17,1.24-2.23,1.75-1.08S199.5,336,199,333.36Z" style="fill: rgb(255, 255, 255); opacity: 0.3; transform-origin: 199.91px 333.148px;" class="animable"></path></g><g id="el6sw5lvlxkbq"><path d="M195.86,346.89s.61-1.61,1.08-1.49.92,2,2,1.49,1.78-2.05,2.81-1.5,2.16,1.21,2,.35a14.71,14.71,0,0,0-.67-2.29s1.14,3,2.42,3.52c0,0,.18,1.14-1,.78s-2-1.65-3.06-1.51-1.47,1.73-2.26,1.94-2.27-.57-2.25-1.37S195.86,346.89,195.86,346.89Z" style="fill: rgb(255, 255, 255); opacity: 0.3; transform-origin: 200.685px 345.832px;" class="animable"></path></g><path d="M202.63,306.22c2.34,1.46,1.41,7.52-1.94,6.55S199.35,304.19,202.63,306.22Z" style="fill: rgb(166, 104, 144); transform-origin: 201.446px 309.376px;" id="eli6lx1f8fpqm" class="animable"></path><g id="el1xz71aduf4f"><path d="M201.17,310.81c.78-.1,1.7-.91,2.12-.51s-.83,2.19-2.12,2.12a1.6,1.6,0,0,1-1.59-2.06C200,309.56,200.81,310.86,201.17,310.81Z" style="opacity: 0.1; transform-origin: 201.442px 311.261px;" class="animable"></path></g><g id="elfoweia6w0in"><path d="M201.25,306.39c1.19-.36,1.78.86,1.85,1.73s-2.75,1.54-3.22.67S200.29,306.68,201.25,306.39Z" style="fill: rgb(255, 255, 255); opacity: 0.3; transform-origin: 201.425px 307.761px;" class="animable"></path></g><g id="el12h34aa4jvbi"><path d="M202.82,309.64c-.33.51-1.44.13-.68-.32.36-.21,1-.3.69.31" style="fill: rgb(255, 255, 255); opacity: 0.3; transform-origin: 202.396px 309.523px;" class="animable"></path></g><path d="M196.33,315.93c-1.19.74-.72,3.82,1,3.33S198,314.9,196.33,315.93Z" style="fill: rgb(166, 104, 144); transform-origin: 196.94px 317.534px;" id="eltuwhd1maqm" class="animable"></path><g id="elt5o9cz6tv3"><path d="M197.07,318.26c-.39-.05-.86-.46-1.08-.26s.43,1.11,1.08,1.08a.81.81,0,0,0,.81-1C197.68,317.63,197.26,318.29,197.07,318.26Z" style="opacity: 0.1; transform-origin: 196.925px 318.502px;" class="animable"></path></g><g id="ellnmx48q9x"><path d="M197,316c-.6-.19-.9.44-.94.88s1.4.78,1.63.34S197.52,316.16,197,316Z" style="fill: rgb(255, 255, 255); opacity: 0.3; transform-origin: 196.908px 316.695px;" class="animable"></path></g><g id="elx2cjij8fgbm"><path d="M196.23,317.67c.17.26.74.07.35-.16-.18-.11-.51-.16-.35.15" style="fill: rgb(255, 255, 255); opacity: 0.3; transform-origin: 196.451px 317.61px;" class="animable"></path></g><g id="elnskgn0cb3x"><path d="M142,400.26q1.29,3.08,2.64,6.08a4.33,4.33,0,0,0,4,2.56h8.71c-1.29-2.84-2.55-5.73-3.77-8.64Z" style="fill: rgb(255, 255, 255); opacity: 0.2; transform-origin: 149.675px 404.58px;" class="animable"></path></g><g id="elb9hex5uz7cg"><path d="M129.63,362.23a183.36,183.36,0,0,0,8.86,29.4h11.58a179.22,179.22,0,0,1-8.69-29.4Z" style="fill: rgb(255, 255, 255); opacity: 0.2; transform-origin: 139.85px 376.93px;" class="animable"></path></g><g id="elxeoeek6b0td"><path d="M159.76,306.66a13.13,13.13,0,0,0-7,2,58.08,58.08,0,0,0-23.19,29.22c-1.91,5.21-1.91,12.4-.61,20.67h11.79c-1.17-7.9-1.09-14.76.76-19.77,6.08-16.56,13.18-21.12,19.32-24.75,4.7-2.77,13.67-1.23,21.74-3.65,10.41-3.11,27.09,1.61,35.24-.92,6.71-2.08,25.44,2,26.28-2.78Z" style="fill: rgb(255, 255, 255); opacity: 0.2; transform-origin: 186.07px 332.605px;" class="animable"></path></g></g><g id="freepik--honey-stick--inject-3" class="animable" style="transform-origin: 265.487px 192.531px;"><path d="M201.34,166.54c-6.78-2-16.34,5.19-19.49,13.57s-8.13,20.92,4.23,35.52,5.1,59,12,62.3,4.39-30,8.43-42,4.55-8,9.65-10.48,2-9.81,9.4-15,5.49-24.83-4.68-32.68S210,169.06,201.34,166.54Z" style="fill: rgb(166, 104, 144); transform-origin: 204.092px 222.181px;" id="elozfsy0q975p" class="animable"></path><g id="elcqez31zuivn"><path d="M227.31,200.62c2.28,5.32-6.87,10-8.25,12.18s-.22,7.5-4.09,9.38-6,.39-9.45,5.3-2.12,31.93-5.12,29.8,2.47-25.66-5.09-36-13.57-13.79-11.64-23.47S222.15,188.59,227.31,200.62Z" style="opacity: 0.2; transform-origin: 205.489px 224.213px;" class="animable"></path></g><path d="M344.49,107.67,220.18,176.54l5.36,9.67,124.31-68.87a5.53,5.53,0,1,0-5.36-9.67Z" style="fill: rgb(38, 50, 56); transform-origin: 286.504px 146.557px;" id="elhzfe2uxxb19" class="animable"></path><g id="elx4zusprmev"><path d="M350.41,108a5.46,5.46,0,0,0-5.92-.37L220.18,176.54l5.36,9.67,124.31-68.87a5.53,5.53,0,0,0,2.15-7.52A5.16,5.16,0,0,0,350.41,108Z" style="fill: rgb(255, 255, 255); opacity: 0.3; transform-origin: 286.438px 146.57px;" class="animable"></path></g><g id="eltepgsornt7"><path d="M350.41,108a6.56,6.56,0,0,1,.19,4.51,8,8,0,0,1-3.85,4.6l-94.64,52.43a39.88,39.88,0,0,0-11.53-4.35l-20.4,11.31,5.36,9.67,124.31-68.87a5.53,5.53,0,0,0,2.15-7.52A5.16,5.16,0,0,0,350.41,108Z" style="opacity: 0.2; transform-origin: 286.438px 147.085px;" class="animable"></path></g><path d="M237.49,192.7c-.44.87-.92,1.74-1.45,2.58a34.28,34.28,0,0,1-6.89,7.87h0c-.65.56-1.33,1.09-2,1.59a35.17,35.17,0,0,1-4.16,2.67,41,41,0,0,1-4.45,2.12q-1.22.47-2.43.87a34.43,34.43,0,0,1-10.33,1.66,22.55,22.55,0,0,1-3-.14c-7.32-.71-13.59-4.16-16.85-10.05a18.15,18.15,0,0,1-2.22-7.95,21.47,21.47,0,0,1,.83-7.05,26.36,26.36,0,0,1,1.8-4.63c.44-.88.92-1.74,1.45-2.58.34-.53.69-1.07,1.06-1.59a33.52,33.52,0,0,1,3-3.67q1.31-1.35,2.79-2.61c.65-.55,1.33-1.08,2-1.6.47-.34.94-.68,1.43-1,.87-.58,1.78-1.13,2.72-1.65l1-.53.06,0a34.38,34.38,0,0,1,3.41-1.54q1.22-.5,2.43-.87c.71-.23,1.42-.44,2.12-.62a33.79,33.79,0,0,1,4.23-.8,29.88,29.88,0,0,1,4-.26c1,0,2,.05,3,.14a22.62,22.62,0,0,1,13.37,5.63,17.44,17.44,0,0,1,3.44,4.36l.07.13a17.45,17.45,0,0,1,1.86,5.17A22.59,22.59,0,0,1,237.49,192.7Z" style="fill: rgb(38, 50, 56); transform-origin: 211.893px 187.492px;" id="els0mqjklcx5m" class="animable"></path><path d="M214.92,212.63a36.43,36.43,0,0,1-6,1.1,3.34,3.34,0,0,1-3.2-1.66l-.05-.07-17.87-32.26,0-.07a3.3,3.3,0,0,1,.3-3.59,36,36,0,0,1,4.11-4.49,1.68,1.68,0,0,1,2.49.21.69.69,0,0,1,.13.2L216,210.18a2.51,2.51,0,0,1,.11.23A1.7,1.7,0,0,1,214.92,212.63Z" style="fill: rgb(166, 104, 144); transform-origin: 201.807px 192.439px;" id="el6x78ht7hj0d" class="animable"></path><path d="M235.73,198.87a35.94,35.94,0,0,1-4.1,4.5,1.68,1.68,0,0,1-2.44-.15h0s0,0,0-.05A.92.92,0,0,1,229,203l-4.91-8.86-2.52-4.54s0,0,0-.05l-13.68-24.71a2.4,2.4,0,0,1-.11-.23,1.7,1.7,0,0,1,1.15-2.23,37.61,37.61,0,0,1,6-1.1,3.33,3.33,0,0,1,3.21,1.65.25.25,0,0,1,0,.07l6.25,11.27,5.36,9.67L236,195.21l0,.07A3.32,3.32,0,0,1,235.73,198.87Z" style="fill: rgb(166, 104, 144); transform-origin: 222.039px 182.544px;" id="el7c66p64cxpk" class="animable"></path><path d="M231.27,164.16a26.24,26.24,0,0,0-9.07-2.83,1.15,1.15,0,0,0-1.15,1.71l16.43,29.65a1.16,1.16,0,0,0,2.06-.07,26.2,26.2,0,0,0,2.4-9.19,9.39,9.39,0,0,0-1.18-5.19L235,167.91A9.51,9.51,0,0,0,231.27,164.16Z" style="fill: rgb(166, 104, 144); transform-origin: 231.429px 177.301px;" id="elgq8z7rdrra" class="animable"></path><path d="M201.61,213.63a26.05,26.05,0,0,1-9.06-2.84,9.47,9.47,0,0,1-3.78-3.75l-2.85-5.16-2.86-5.17a9.39,9.39,0,0,1-1.19-5.18,26.38,26.38,0,0,1,2.41-9.19,1.15,1.15,0,0,1,2.05-.09h0l16.43,29.66h0A1.16,1.16,0,0,1,201.61,213.63Z" style="fill: rgb(166, 104, 144); transform-origin: 192.381px 197.651px;" id="eliz6g6bleimc" class="animable"></path><path d="M226.3,207.52c-.8.52-1.62,1-2.46,1.49s-1.71.9-2.56,1.3a2.23,2.23,0,0,1-2.78-.77s-.06-.1-.1-.16l-21.62-39a.69.69,0,0,1-.07-.15,2.19,2.19,0,0,1,.81-2.77c.79-.52,1.62-1,2.46-1.48s1.7-.91,2.56-1.31a2.22,2.22,0,0,1,2.78.79.71.71,0,0,1,.1.14l9.38,16.94h0L227,204.6c0,.05.06.11.07.15A2.19,2.19,0,0,1,226.3,207.52Z" style="fill: rgb(166, 104, 144); transform-origin: 211.895px 187.491px;" id="el8ptphknfdrw" class="animable"></path><g id="el210dv34g4s4"><g style="opacity: 0.3; transform-origin: 211.906px 187.504px;" class="animable"><path d="M214.92,212.63a36.43,36.43,0,0,1-6,1.1,3.34,3.34,0,0,1-3.2-1.66l-.05-.07-17.87-32.26,0-.07a3.3,3.3,0,0,1,.3-3.59,36,36,0,0,1,4.11-4.49,1.68,1.68,0,0,1,2.49.21.69.69,0,0,1,.13.2L216,210.18a2.51,2.51,0,0,1,.11.23A1.7,1.7,0,0,1,214.92,212.63Z" id="elgqisz6zkobc" class="animable" style="transform-origin: 201.807px 192.439px;"></path><path d="M235.73,198.87a35.94,35.94,0,0,1-4.1,4.5,1.68,1.68,0,0,1-2.44-.15h0s0,0,0-.05A.92.92,0,0,1,229,203l-4.91-8.86-2.52-4.54s0,0,0-.05l-13.68-24.71a2.4,2.4,0,0,1-.11-.23,1.7,1.7,0,0,1,1.15-2.23,37.61,37.61,0,0,1,6-1.1,3.33,3.33,0,0,1,3.21,1.65.25.25,0,0,1,0,.07l6.25,11.27,5.36,9.67L236,195.21l0,.07A3.32,3.32,0,0,1,235.73,198.87Z" id="elwpij4cjjaz" class="animable" style="transform-origin: 222.039px 182.544px;"></path><path d="M231.27,164.16a26.24,26.24,0,0,0-9.07-2.83,1.15,1.15,0,0,0-1.15,1.71l16.43,29.65a1.16,1.16,0,0,0,2.06-.07,26.2,26.2,0,0,0,2.4-9.19,9.39,9.39,0,0,0-1.18-5.19L235,167.91A9.51,9.51,0,0,0,231.27,164.16Z" id="elphmlk0lrqkc" class="animable" style="transform-origin: 231.429px 177.301px;"></path><path d="M201.61,213.63a26.05,26.05,0,0,1-9.06-2.84,9.47,9.47,0,0,1-3.78-3.75l-2.85-5.16-2.86-5.17a9.39,9.39,0,0,1-1.19-5.18,26.38,26.38,0,0,1,2.41-9.19,1.15,1.15,0,0,1,2.05-.09h0l16.43,29.66h0A1.16,1.16,0,0,1,201.61,213.63Z" id="eldbbbfhglnr" class="animable" style="transform-origin: 192.381px 197.651px;"></path><path d="M226.3,207.52c-.8.52-1.62,1-2.46,1.49s-1.71.9-2.56,1.3a2.23,2.23,0,0,1-2.78-.77s-.06-.1-.1-.16l-21.62-39a.69.69,0,0,1-.07-.15,2.19,2.19,0,0,1,.81-2.77c.79-.52,1.62-1,2.46-1.48s1.7-.91,2.56-1.31a2.22,2.22,0,0,1,2.78.79.71.71,0,0,1,.1.14l9.38,16.94h0L227,204.6c0,.05.06.11.07.15A2.19,2.19,0,0,1,226.3,207.52Z" id="el975qzyfdvz" class="animable" style="transform-origin: 211.895px 187.491px;"></path></g></g><g id="el80j9zojgrbm"><path d="M204.83,203.68a.16.16,0,0,1-.08.06.43.43,0,0,1-.22,0c-2-.11-2.53-2.37-3.33-3.82l-3.31-6q-2.26-4.11-4.55-8.22l-2-3.52c-.75-1.36-1.74-2.49-2.41-3.89a3.9,3.9,0,0,1-.36-.93c-.23-1.11,1.3-3.46,2.48-3.63.7-.1,1.12,1.38,1.45,2l2.85,5.14c1.82,3.27,3.62,6.56,5.45,9.83.35.62.84,1.08,1.18,1.69a10.63,10.63,0,0,1,.87,2.32c.47,1.61.76,3.27,1.36,4.84.48,1.26,1.17,2.64.67,3.89A.77.77,0,0,1,204.83,203.68Z" style="fill: rgb(255, 255, 255); opacity: 0.3; transform-origin: 196.8px 188.74px;" class="animable"></path></g><g id="elc8lx34mg75"><path d="M209.8,163.67c1-.58,3.19-1.34,4.26-.56.51.37.47,1.16.74,1.71.18.35.38.68.57,1l3.21,5.8c1.71,3.08,3.6,6.15,3.57,9.8,0,.52-.14,1.15-.64,1.28a1,1,0,0,1-.68-.12,4,4,0,0,1-1.24-1,18,18,0,0,1-2-3.14l-6.75-12.19-.62-1.11A6.9,6.9,0,0,1,209.8,163.67Z" style="fill: rgb(255, 255, 255); opacity: 0.3; transform-origin: 215.975px 172.747px;" class="animable"></path></g><g id="el6rarpn3p9r"><path d="M223.86,164.09a1.25,1.25,0,0,1,.8-.14,9.53,9.53,0,0,1,3.49,1.52,5.22,5.22,0,0,1,2.71,4.28,11,11,0,0,1,.15,3.53,2.21,2.21,0,0,1-.34,1,1,1,0,0,1-.9.43c-.73-.13-1-1.06-1.16-1.65a11.53,11.53,0,0,0-1-2L225,166.16c-.3-.55-.88-1-1.15-1.46C223.65,164.4,223.7,164.21,223.86,164.09Z" style="fill: rgb(255, 255, 255); opacity: 0.3; transform-origin: 227.403px 169.324px;" class="animable"></path></g><g id="el3iik8by6lo2"><path d="M193.79,206.89a1,1,0,0,1-.67.37c-1.5.17-3-1.67-3.6-2.81l-5.72-10.33a6.5,6.5,0,0,1-.83-3.61,20.49,20.49,0,0,1,.51-3.42.58.58,0,0,1,1.08-.16l2.55,4.6a48.35,48.35,0,0,1,3.93,7.93,49.31,49.31,0,0,0,2.69,6.47,1.22,1.22,0,0,1,.19.61A.71.71,0,0,1,193.79,206.89Z" style="fill: rgb(255, 255, 255); opacity: 0.3; transform-origin: 188.439px 196.947px;" class="animable"></path></g><g id="elqswjcew09vp"><path d="M214.34,193.89a.73.73,0,0,1-.22.09,1.36,1.36,0,0,1-.87-.21c-2.53-1.33-3.76-4.41-5.08-6.78l-4.7-8.5q-1.68-3-3.34-6c-.4-.72-.77-1.47-1.21-2.17-.34-.55-.9-.8-.81-1.52s.83-1.16,1.5-1.53c.48-.27,1.13-.8,1.73-.7s.66.67.88,1.13c.31.63.69,1.24,1,1.86,1,1.81,2,3.62,3,5.44l4.71,8.49a52.4,52.4,0,0,1,3.7,7.47,3.81,3.81,0,0,1,.21,2.18A1.33,1.33,0,0,1,214.34,193.89Z" style="fill: rgb(255, 255, 255); opacity: 0.3; transform-origin: 206.506px 180.272px;" class="animable"></path></g><g id="elt15u8330v2r"><path d="M229.14,203.16c-.65.56-1.33,1.09-2,1.59a2.19,2.19,0,0,1-.81,2.77c-.8.52-1.62,1-2.46,1.49s-1.71.9-2.56,1.3a2.23,2.23,0,0,1-2.78-.77q-1.22.47-2.43.87a1.7,1.7,0,0,1-1.15,2.22,36.43,36.43,0,0,1-6,1.1,3.34,3.34,0,0,1-3.2-1.66,22.55,22.55,0,0,1-3-.14,1.16,1.16,0,0,1-1.16,1.7,26.05,26.05,0,0,1-9.06-2.84,9.47,9.47,0,0,1-3.78-3.75l-2.85-5.16-2.86-5.17a9.39,9.39,0,0,1-1.19-5.18,26.38,26.38,0,0,1,2.41-9.19,1.15,1.15,0,0,1,2.05-.09c.44-.88.92-1.74,1.45-2.58a3.3,3.3,0,0,1,.3-3.59,36,36,0,0,1,4.11-4.49,1.68,1.68,0,0,1,2.49.21c.65-.55,1.33-1.08,2-1.6a2.19,2.19,0,0,1,.81-2.77c.79-.52,1.62-1,2.46-1.48a3.94,3.94,0,0,1,1.26.58,3.59,3.59,0,0,1,.61.48l.16.17a8.68,8.68,0,0,1,1.74,3.27c1.07,3.2,1.63,7.56,3.89,11.58,1.77,3.16,3.5,4.22,4.82,4.12,1.56-.11,2.55-1.83,2.34-3.63h0c-.36-3.3,3.72,1.54,6.74,7,0,0,0,0,0,.05l2.52,4.54c2.07,3.72,4.21,7.54,5.05,9.06,0,0,0,0,0,.06S229.15,203.17,229.14,203.16Z" style="fill: rgb(166, 104, 144); opacity: 0.5; transform-origin: 205.487px 189.847px;" class="animable"></path></g><path d="M183,181s2.12-9,9-11.72,7.71-1.45,9.78,0,2.36,13.5,6,16.89,5.75,2.92,7.23.92,2.64-1.69,7.07,6.86c0,0-2.29-3.51-4.53-4.15s-2.39,2.76-6.78,1.61-7.88-3.45-8.95-8.71.29-9-3.09-8.93.15-1.64-3.19-2.68S186.1,172.56,183,181Z" style="fill: rgb(166, 104, 144); transform-origin: 202.54px 180.816px;" id="elvpan6eq3pz" class="animable"></path><g id="elrvsx9q9jjga"><path d="M183,181s2.12-9,9-11.72,7.71-1.45,9.78,0,2.36,13.5,6,16.89,5.75,2.92,7.23.92,2.64-1.69,7.07,6.86c0,0-2.29-3.51-4.53-4.15s-2.39,2.76-6.78,1.61-7.88-3.45-8.95-8.71.29-9-3.09-8.93.15-1.64-3.19-2.68S186.1,172.56,183,181Z" style="fill: rgb(255, 255, 255); opacity: 0.3; transform-origin: 202.54px 180.816px;" class="animable"></path></g><path d="M211.09,224.06c-2.18-1.69,2.1-2.06,3.88-2.47s2.19-3.42,3-2.58S215.61,227.56,211.09,224.06Z" style="fill: rgb(166, 104, 144); transform-origin: 214.291px 221.914px;" id="el8u6mpvy1glo" class="animable"></path><path d="M180.76,203.82c.24-1.52,4.22,8.11,10.39,12.84A13.09,13.09,0,0,0,205.52,218c2-1.17,3.52,2.43-1.41,6.13s-6.59,1.94-9.37-1-.1,10.44.42,17.22.71,26.63,1.69,27.45,2.27-1.9,3.88.8c1.39,2.31.46,10-2.63,7.14s-2.94-29.69-4.79-41.32-.53-13.7-5.92-19.15S180.56,205.17,180.76,203.82Z" style="fill: rgb(166, 104, 144); transform-origin: 194.078px 240.014px;" id="el32w8hfxxniy" class="animable"></path><g id="el16ahg1yjvxh"><path d="M211.09,224.06c-2.18-1.69,2.1-2.06,3.88-2.47s2.19-3.42,3-2.58S215.61,227.56,211.09,224.06Z" style="fill: rgb(255, 255, 255); opacity: 0.3; transform-origin: 214.291px 221.914px;" class="animable"></path></g><g id="els9mnnwhc9o"><path d="M180.76,203.82c.24-1.52,4.22,8.11,10.39,12.84A13.09,13.09,0,0,0,205.52,218c2-1.17,3.52,2.43-1.41,6.13s-6.59,1.94-9.37-1-.1,10.44.42,17.22.71,26.63,1.69,27.45,2.27-1.9,3.88.8c1.39,2.31.46,10-2.63,7.14s-2.94-29.69-4.79-41.32-.53-13.7-5.92-19.15S180.56,205.17,180.76,203.82Z" style="fill: rgb(255, 255, 255); opacity: 0.3; transform-origin: 194.078px 240.014px;" class="animable"></path></g></g><defs>     <filter id="active" height="200%">         <feMorphology in="SourceAlpha" result="DILATED" operator="dilate" radius="2"></feMorphology>                <feFlood flood-color="#32DFEC" flood-opacity="1" result="PINK"></feFlood>        <feComposite in="PINK" in2="DILATED" operator="in" result="OUTLINE"></feComposite>        <feMerge>            <feMergeNode in="OUTLINE"></feMergeNode>            <feMergeNode in="SourceGraphic"></feMergeNode>        </feMerge>    </filter>    <filter id="hover" height="200%">        <feMorphology in="SourceAlpha" result="DILATED" operator="dilate" radius="2"></feMorphology>                <feFlood flood-color="#ff0000" flood-opacity="0.5" result="PINK"></feFlood>        <feComposite in="PINK" in2="DILATED" operator="in" result="OUTLINE"></feComposite>        <feMerge>            <feMergeNode in="OUTLINE"></feMergeNode>            <feMergeNode in="SourceGraphic"></feMergeNode>        </feMerge>            <feColorMatrix type="matrix" values="0   0   0   0   0                0   1   0   0   0                0   0   0   0   0                0   0   0   1   0 "></feColorMatrix>    </filter></defs></svg>