<?xml version="1.0" encoding="UTF-8"?>
<svg id="Camada_2" data-name="Camada 2" xmlns="http://www.w3.org/2000/svg" viewBox="0 0 600.52 673.09">
  <defs>
    <style>
      .cls-1 {
        fill: #455a64;
      }

      .cls-2 {
        fill: #44475a;
      }

      .cls-3 {
        fill: #ebebeb;
        opacity: .8;
      }

      .cls-4 {
        fill: #263238;
      }
    </style>
  </defs>
  <g id="Camada_1-2" data-name="Camada 1">
    <g>
      <path class="cls-2" d="M0,149.12l4.26-2.77,15.11,3.96,42.59,25.72-1.5-10.21,3.48,1.63,2.71,10.29s13.22,3.26,24.74,6.1c5.87-.26,11.69,1.25,16.73,4.34h0c.85,.51,9.57-2.14,9.57-2.14l7.74,4.36v16.02c5.17,8.56,9.06,18.02,14.2,26.65,6.97,11.53,26.27,21.89,38.87,37.92,11.17,14.16,16.16,34.82,16.16,34.82,15.95-11.04,25.76-69.99,32.25-79.29l-.56-3.13-5.95-11.65,8.15-36.15-.3-11.65,4.93-5.04,11.17-27.09,4.61,3.78-10.78,26.46h9.86l-11.17,4.4-4.61,20.78-4.93,17.94,4.61,14.81,6.78,1.63,6.16-12.92,1.23-21.73,8.58-7.55,4.98,4.47,10.16-3,8.33-10.6,4.93-6.3-4.63-9.13-6.48-4.09-5.53-16.31-4.63-8.5-14.72-6.2-.61-4.4,13.86,6.93,8.31,3.46,6.78,22.36s4.93,2.84,6.16,2.84,7.39,7.88,7.39,7.88l-7.69,29.28-20.64,5.04h-7.18l-1.6,16.7-1.23,13.23-10.05,12.72c-14.38,43.14-12.68,90.19,4.79,132.12l39.73-39.88,21.96-35.35,15.33-17.94v-20.34l-14.36-10.6-25.87-10.62-21.05,11.08-12.17-.93,1.34-5.53,10.38,.46s11.72-7.83,13.08-8.3,11.26-4.6,11.26-4.6c0,0,11.17,4.14,13.53,5.07s23.93,14.68,23.93,14.68l9.01,10.15v24.47l36.53-9.69,6.76,11.08-1.8,7.96-19.01,2.22,9.01,7.39-4.51,5.15-5.85-7-16.88,.46-17.26,25.76c-24.73,36.79-37.43,80.64-36.29,125.27,.11,4.75,.16,8.91,.11,12.1-.86,57.33,26.84,120.46,63.21,164.11l3.45,48.56H112.87c14.9-9.62,38.7-30.34,52.33-41.76,10.89-9.13,21.47-18.92,29.44-30.8,14.02-20.86,18.77-45.93,18.93-71.57l-40.48-97.87-8.42-34.01-7.61-12.3-11.63,3.26-.38-.2c-1.6,24.61-3.57,49.37-10.5,72.98-.99-22.41-1.97-44.83-2.95-67.25l-4.48,9.43c-1.48-8.4-2.3-16.91-2.44-25.45l-14.93-7.55-29.65,12.35-23.65-17.66-15.95,.41-3.97-4.26h22.04l21.25,14.35,30.86-11.08-15.63-12.28-10.83-15.17-16.49-9.38-24.05-34.84,4.42-3.26,21.65,34.03,18.44,11.42,10.21,15.98,46.7,28.69,7.98-.41-7.98-38.12-4.79-4.5v-4.09l8.82,5.74,7.62,33.62,9.2,9.02,11.99,36.44,30.85,58.26c-11.97-74.89-36.97-146.97-73.84-212.83l-31.63-24.86-25.84-2.17-8.9-9.1-6.78-5.86,2.33-1.94,9.57,6.28,30.93,5.42,19.3,13.24c-9.71-16.02-20.11-31.56-31.2-46.63-11.17-3.39-30.75-9.43-34.63-13.18-5-4.01-10.23-7.72-15.65-11.11-.57,3.69-1.07,7.39-1.6,11.08l-8.9,68.41-2.01-74.93-6.67,17.57c-1.88-11.74-2.46-23.65-1.75-35.53-4.96-3.13-8.39-5.27-8.39-5.27l-13.14-4.75Z"/>
      <g>
        <polygon class="cls-4" points="453.44 40.3 450.67 38.66 406.56 204.06 414.84 300.43 374.55 382.42 360.17 352.03 360.17 235.07 285.83 177.59 285.05 179.89 351.23 238.45 349.58 354.56 360.17 383.57 338.6 496.84 289.47 555.98 252.13 633.4 330.04 632.53 327.82 561.75 373.36 485.19 385.34 401.21 426.52 310.25 413.84 204.06 453.44 40.3"/>
        <path class="cls-4" d="M349.19,167.49c.38,3.19,.54,6.4,.49,9.61,.15,5.94,.26,14.13,.29,23.13,.03,9.01,0,17.26-.2,23.13-.2,5.88-.37,9.61-.65,9.61s-.54-3.65-.74-9.59c-.2-5.94-.35-14.14-.39-23.13-.05-18.06,.45-32.79,1.19-32.76Z"/>
        <path class="cls-4" d="M349.58,207.47c-.51,.25-4.75-7.6-10.7-16.79s-11.33-16.3-10.9-16.67,6.54,6.28,12.55,15.61c6.01,9.33,9.52,17.64,9.05,17.86Z"/>
        <path class="cls-4" d="M321.45,208.11c0,.57-10.24,2.19-22.79,4.83-12.55,2.64-22.64,5.26-22.81,4.72s9.75-4.01,22.41-6.63,23.13-3.42,23.19-2.91Z"/>
        <path class="cls-4" d="M300.74,211.52c-.15,.52-5.84-.63-12.71-2.62s-12.34-4.13-12.04-4.84c.11-.31,5.74,.94,12.6,2.95,6.86,2,12.29,3.99,12.15,4.52Z"/>
        <path class="cls-4" d="M459.92,229.33c-.35,1.46-.87,2.87-1.54,4.21-1.25,3.08-2.82,6.74-4.63,11.15-4.03,9.39-9.7,22.3-16.08,36.52-1.54,3.55-3.18,7-4.63,10.36-.76,1.67-1.54,3.3-2.24,4.92-.69,1.55-1.25,3.16-1.65,4.81-1.05,3.56-3.59,5.98-5.55,8.17-1.96,2.19-3.89,4.24-5.66,6.17l-8.28,8.81c-.96,1.15-2.05,2.19-3.25,3.08,.76-1.28,1.66-2.48,2.68-3.56l7.82-9.25,5.47-6.32c1.96-2.27,4.23-4.63,5.03-7.62,.39-1.72,.93-3.41,1.6-5.04,.72-1.62,1.54-3.27,2.21-4.95,1.51-3.36,3.05-6.83,4.63-10.39,6.4-14.22,12.34-27.05,16.64-36.3l5.24-10.9c.58-1.37,1.31-2.66,2.19-3.86Z"/>
        <path class="cls-4" d="M475.09,239.51c.32,.43-6.31,5.92-14.8,12.34-8.5,6.42-15.64,11.1-15.96,10.67s6.29-5.92,14.79-12.26,15.7-11.2,15.98-10.75Z"/>
        <path class="cls-4" d="M440.17,273.61c-.56,0-.91-12.09-1.54-26.99-.63-14.9-1.17-27-.62-27.05,.26,0,.77,2.98,1.28,7.87s1,11.63,1.31,19.11c.31,7.48,.31,14.23,.19,19.14-.12,4.9-.35,7.93-.62,7.93Z"/>
        <path class="cls-4" d="M424,149.84c-.26,.08-2.04-4.83-4.89-12.75-2.85-7.93-6.79-18.88-11.37-30.84-4.58-11.97-8.94-22.78-12.12-30.58s-5.14-12.65-4.87-12.75c.76,.97,1.38,2.04,1.85,3.18,1.06,2.11,2.54,5.18,4.29,9.02,3.52,7.71,8.1,18.4,12.69,30.44,4.6,12.04,8.36,23.13,10.8,31.12,1.25,4.04,2.22,7.31,2.82,9.59,.44,1.15,.71,2.35,.8,3.58Z"/>
        <path class="cls-4" d="M399.87,82.04c-.52,0-.91-5.31,.52-11.66s3.96-11.01,4.44-10.8-1.19,5.07-2.53,11.21c-1.34,6.14-1.87,11.26-2.44,11.24Z"/>
        <path class="cls-4" d="M413.13,118.07c-.4,.37-9.44-8.79-20.17-20.45-10.73-11.66-19.12-21.41-18.72-21.78s9.44,8.77,20.17,20.45c10.73,11.67,19.12,21.41,18.72,21.78Z"/>
        <path class="cls-4" d="M432.44,114.3c.66-1.47,1.48-2.87,2.44-4.16,1.68-2.62,4.16-6.35,7.31-10.93,6.28-9.16,15.21-21.59,25.43-35.16s19.82-25.49,26.91-34.02c3.56-4.27,6.48-7.71,8.54-10.01,.99-1.26,2.11-2.4,3.35-3.41-.77,1.42-1.7,2.75-2.76,3.96-2.14,2.78-4.83,6.26-8.03,10.39-6.83,8.76-16.22,20.85-26.45,34.34-10.22,13.49-19.29,25.83-25.85,34.78l-7.82,10.56c-.89,1.32-1.92,2.55-3.07,3.65Z"/>
        <path class="cls-4" d="M475.6,56.21c-.26,0,.28-3.22,1.39-8.28,1.11-5.06,2.76-12.03,4.72-19.68,1.96-7.65,3.82-14.56,5.27-19.54s2.48-8,2.75-7.94-.29,3.24-1.4,8.3-2.76,12.01-4.63,19.68c-1.87,7.66-3.82,14.54-5.29,19.52s-2.54,8.02-2.81,7.94Z"/>
        <path class="cls-4" d="M498.55,50.12c.26,.46-6.55,4.97-15.42,9.61-8.87,4.64-16.52,7.71-16.73,7.17s6.96-4.29,15.82-8.91,16.04-8.34,16.33-7.87Z"/>
        <path class="cls-1" d="M373.42,465.78s0,.72-.31,2.07c-.32,1.97-.8,3.91-1.43,5.8-2.35,6.98-5.86,13.51-10.38,19.32-5.52,7.49-13.25,15.42-21.48,24.46-4.32,4.7-8.34,9.66-12.04,14.85-3.79,5.44-7.23,11.41-10.8,17.47-6.87,11.42-14.79,22.16-23.66,32.11-8,9.25-15.27,17.57-20.88,24.91-4.49,5.75-8.53,11.85-12.08,18.23-1.31,2.22-2.11,4.07-2.75,5.27s-1,1.84-1,1.84c.96-2.51,2.08-4.96,3.35-7.33,3.4-6.5,7.35-12.69,11.81-18.51,5.55-7.45,12.77-15.81,20.71-25.12,8.78-9.93,16.63-20.64,23.47-32,3.64-6.05,7.09-12.04,10.93-17.53,3.75-5.22,7.82-10.2,12.2-14.91,8.3-9.02,16.05-16.86,21.59-24.24,4.54-5.7,8.13-12.1,10.63-18.95,.68-1.86,1.23-3.77,1.63-5.71,.25-1.33,.48-2.02,.48-2.02Z"/>
        <path class="cls-1" d="M277.33,632.05s-.09-.29-.15-.89c-.08-.86-.08-1.72,0-2.58,.41-3.18,1.6-6.21,3.45-8.82,2.77-3.85,6.33-7.06,10.46-9.41,4.5-2.81,9.82-5.14,14.97-8.24s9.55-6.92,11.95-11.5c1.97-4.16,3.36-8.58,4.13-13.12,.6-3.09,1.4-6.14,2.39-9.13,.28-.82,.61-1.61,.99-2.39,.25-.52,.4-.79,.45-.77s-.37,1.17-.99,3.3-1.3,5.24-2.02,9.16c-.67,4.66-2.02,9.19-4.01,13.46-2.47,4.84-7.08,8.88-12.34,12.01-5.26,3.13-10.56,5.44-15.02,8.14-4.03,2.23-7.54,5.29-10.32,8.96-2.54,3.42-3.92,7.56-3.95,11.81Z"/>
        <path class="cls-1" d="M381.66,423.38s0,.31-.26,.83c-.29,.79-.66,1.54-1.08,2.27-1.55,2.67-3.45,5.11-5.66,7.26-2.71,2.81-6.29,5.74-9.89,9.25-3.92,3.86-7.06,8.44-9.25,13.49-2.18,5.07-4.04,10.28-5.55,15.59-1.54,4.89-2.95,9.25-4.44,12.88-1.14,2.85-2.53,5.6-4.13,8.22-.59,.96-1.27,1.87-2.02,2.71,.43-1.02,.95-2.01,1.54-2.95,1.44-2.68,2.69-5.45,3.76-8.3,1.37-3.59,2.71-7.97,4.16-12.88,1.53-5.34,3.43-10.58,5.69-15.65,2.24-5.17,5.48-9.85,9.52-13.77,3.7-3.59,7.31-6.45,10.07-9.13,2.22-2.06,4.19-4.38,5.86-6.91,1.13-1.87,1.56-2.99,1.68-2.93Z"/>
        <path class="cls-1" d="M358.31,401.72c-.09-1.62,.2-3.24,.85-4.73,.7-1.72,1.59-3.35,2.67-4.86,1.29-2.04,2.98-3.82,4.95-5.21,2.5-1.64,5.76-1.5,8.11,.34,2.76,2.23,4.5,5.49,4.83,9.02,.94,8.04-1.04,16.14-5.58,22.84-1.13,1.67-2.43,3.23-3.89,4.63-.69,.69-1.43,1.34-2.21,1.94-.74,.66-1.59,1.18-2.51,1.54-.59,.17-1.24,.03-1.7-.39-.41-.39-.72-.86-.91-1.39-.4-.92-.7-1.87-.89-2.85-.36-1.9-.46-3.84-.31-5.77,.63-7.36,2.76-14.02,6.71-17.94,.57-.52,1.4-.64,2.08-.28,.58,.42,.99,1.02,1.17,1.71,.36,1.14,.61,2.31,.74,3.5,.25,1.92,0,3.87-.74,5.66-.45,1.09-1.16,2.04-2.07,2.79-.63,.46-1,.59-1.02,.56,1.23-.88,2.18-2.11,2.71-3.53,.63-1.72,.81-3.57,.52-5.38-.15-1.13-.41-2.24-.79-3.32-.34-1.17-1.26-1.88-2.21-1.02-3.5,3.61-5.63,10.21-6.17,17.32-.14,1.82-.03,3.64,.32,5.43,.18,.9,.45,1.78,.82,2.62,.37,.86,.79,1.34,1.54,1.14,.79-.34,1.51-.82,2.14-1.4,.74-.58,1.44-1.21,2.11-1.87,1.39-1.37,2.64-2.87,3.73-4.49,4.37-6.44,6.3-14.22,5.46-21.96-.26-3.26-1.82-6.28-4.33-8.37-2.08-1.71-5.02-1.88-7.28-.42-1.91,1.3-3.56,2.95-4.84,4.87-1.08,1.44-2.01,2.99-2.76,4.63-.62,1.48-1.05,3.04-1.28,4.63Z"/>
        <path class="cls-1" d="M397.12,340.74c.17,2.08-.06,4.18-.69,6.17-.86,3.75-2.64,8.68-3.08,14.42-.44,4.92-.55,9.86-.32,14.79,.17,2.05,.17,4.12,0,6.17-.51-2.02-.79-4.09-.85-6.17-.47-4.98-.47-9.98,0-14.96,.68-4.94,1.86-9.81,3.53-14.51,1.02-3.58,1.25-5.92,1.42-5.91Z"/>
        <path class="cls-1" d="M412.01,308.18c.45,.69,.81,1.44,1.06,2.22,.75,2.12,1.18,4.35,1.25,6.6,.37,5.74-1.54,13.52-5.15,21.36-3.61,7.83-6.83,14.82-8,20.28-.6,2.95-.98,5.94-1.11,8.94-.22-.8-.32-1.62-.29-2.45-.06-2.24,.14-4.47,.59-6.66,.99-5.63,4.18-12.83,7.71-20.59,3.53-7.76,5.54-15.3,5.4-20.87-.11-3-.59-5.96-1.45-8.84Z"/>
        <path class="cls-1" d="M359.88,353.02c.34,.09-.72,4.72-1.54,10.49-.82,5.77-1.09,10.5-1.43,10.5s-.57-4.81,.26-10.67c.83-5.86,2.42-10.41,2.71-10.32Z"/>
        <path class="cls-1" d="M360.22,303.74c.15,.64,.19,1.3,.11,1.96-.03,1.78-.19,3.55-.48,5.31-1.04,5.75-2.47,11.42-4.3,16.96-1.82,5.52-3.08,11.2-3.76,16.96-.42,4.41-.09,7.17-.32,7.2-.21-.62-.34-1.27-.37-1.93-.21-1.77-.25-3.56-.14-5.34,.46-5.86,1.62-11.63,3.47-17.21,1.99-6.54,3.76-12.43,4.63-16.81s.97-7.11,1.17-7.11Z"/>
        <polygon class="cls-1" points="287.15 240.38 289.51 221.87 289.51 171.69 280.29 158.73 280.29 193.66 282.76 196.89 284.81 270.97 287.15 240.38"/>
        <path class="cls-1" d="M568.18,632.18l-52.53-40.67c-6.54-5.06-15.42-5.85-22.75-2.04l-22.28,11.61-11.78-26.34,2.19-22.16-2.02-19.55-9.75-36.32v-21.14s7.71-17.57,7.71-18.75,5.38-16.36,5.38-16.36l25.94-22.52,2.56,165.17,3.64-119.64,4.26,12.88-1.79-65.93,1.73-1.54s8.4-16.36,9.07-17.97,6.06-16.36,6.06-16.36l56.69-51.31v-6.97l-27.76,17.95-13.45,9.59-12.85,7.63-4.36-5.98-1.96-11.17-3.7-6.37-5.24-19.6,13.88-11.1,6.89-.49,.89,11.66,.32-11.74,5.46-.39c0,.28,3.56,29.38,3.87,28.75s-1.03-23.52-1.03-23.52l2.05,4.95v-14.17l7.86-9.16-13.88,9.02-4.21-.65,1.19-42.87,1.99-2.61v-24.44l7.03-1.34v-2.71l-28.25,2.67-17.43,13-22.82,5.51-9.53-51.42,37.01-46.71,45.8-101.46-7.88-.54-44.72,85.53-5.98-56.58,15.16-40.88-5.43,1.08-11.91,30.4-6.51-51.25-2.45,1.54c0,2.9,3.95,83.85,3.95,83.85l3.59,40.03-5.46,9.5-7.31,.86c-22.33,2.69-40.96,18.33-47.45,39.86h0l-12.01,52.6v.82l-12.04-14.31-11.67-20.53,4.19-28.47,1.4-14.47,8.4-10.8-19.96-25.68-8.05-11.2-12.14-6.52-11.2-16.35-17.18-17.03v-14.17l7.06-10.5,14.64-7.54L363.54,3.72l-13.63-3.72-10.12,27.13-24.43,13.56-5.83,19.18-14.22-36.35-5.8,6,13.69,41.07,1.43,22.21h0l13.29,19.12,10.38,1.85c.74,9.25,2.65,30.94,2.65,30.94l3.24-11.23v21.45c0,1.02,2.42-31.01,3.08-39.62l2.39,.42,11.67,5.14,2.85,12.12,2.28,19.62-6.12,7.43-16.79-1.4-12.14-15.87-20.77-4.63-5.83-8.4-4.19-7.94-.88-8.02-7-6.06-.23-43.92h-10.38l-5.07,31.81-21.59-66.13h-12.01l13.29,65.63,7,21.93s9.81,14.47,14,15.42,0,9.81,0,9.81l1.28,2.37v20.22l2.54-6.17s-1.67,28.34-1.28,29.13,3.49-24.84,4.49-33.09l7.9,5.71,7.94,13.06,18.89,9.45v28.59l2.9-17.33s1.76,16.45,1.76,14.99c0-1.09,.65-15.82,.99-23.43l4.12,2.05c1.22,.62,2.25,49.35,2.25,49.35l3.08-44.31,7.93,8.24,16.35,44.34,23.8,18.66,19.6,38.26v123.22c0,1.88-6.68,13.79-6.68,13.79v13.23s-3.59,34.58-3.08,36.15,0,45.56,0,45.56l-19.94,36.49c-1.31,2.41-2.11,5.06-2.34,7.79l-2.45,28.07s-8.39,30.84-14.93,34.07c-6.54,3.22-72.02,30.75-71.79,32.15h175.65l-.32-35.47,3.65-2.45c2.08,1.49,4.29,2.78,6.62,3.86,15.02,6.85,46.6-22.42,46.6-22.42l32.74,20.31-21.45,36.19h26.65l13.03-24.84,27.87,7.49,2.31,17.35h16.08l-.88-17.64c-.22-4.45-2.81-8.45-6.79-10.47l-24.67-12.58Zm-74.86-392.29l16.55-15.08h0c.23,5.1,.88,19.82,.88,20.8s1.42-12.09,1.42-12.09l2.33,13.99v-23.67l4.16-.8,.29,45.71,1.9,14.94,.57,7.51c-3.49-.51-7.4-1.05-8.44-1.03-1.54,0-11,4.27-15.08,6.17l-2.98-11.12-22.93-14.91-9.04-22.36,30.37-8.05Zm-49.19-9.55l12.34,39.51,7.93,10.63,13.88,6.72,7.79,42.35c-3.72-2.87-10.04-7.19-14.91-7.46-5.23-.29-19.66-14.14-27.51-22.04,.34-20.29,.65-47.36,.46-69.71h.03Zm-.99,89.74l25.34,13,20.39,12.09,.79,4.29-7.71,26.74-10.8,14.76-9.75,9.25-12.14,3.49-2.02-15.17-1.73-25.09v-20.36l-2.7-12.95s.15-3.76,.29-10.04h.03Z"/>
        <path class="cls-4" d="M399.37,479.9c-.12-.18-.19-.38-.22-.59-.06-.59,.19-1.18,.66-1.54,.75-.68,1.76-.98,2.76-.82,1.31,.44,2.29,1.54,2.58,2.9,.4,1.63,.56,3.32,.49,5v5.97c0,4.27,0,9.16-.29,14.54-.29,5.38-.59,11.29-1.17,17.61-.05,1.66-.68,3.24-1.77,4.49-.63,.6-1.44,.97-2.3,1.05-.89,.07-1.77-.3-2.33-1-.93-1.47-1.56-3.11-1.84-4.83-.45-1.67-.82-3.39-1.19-5.14-3.16-15.22-3.06-30.94,.31-46.11,.4-2.02,1.06-3.98,1.97-5.83,.9-1.86,2.36-3.39,4.16-4.38,1.78-1.05,3.93-1.25,5.88-.54,1.84,.85,3.26,2.4,3.95,4.3,.7,1.81,1.18,3.69,1.42,5.61,.25,1.9,.51,3.76,.76,5.61s.37,3.7,.56,5.51,.26,3.62,.39,5.41c.34,6.75,.28,13.51-.19,20.25-.39,5.87-1.1,11.71-2.11,17.5-.94,5.32-1.99,10.09-3.08,14.22-.54,2.07-1.06,3.99-1.63,5.74-.57,1.74-1.02,3.36-1.54,4.78-.96,2.87-1.77,5.06-2.36,6.54l-.89,2.25s.28-.8,.83-2.28c.56-1.48,1.37-3.67,2.3-6.54,.51-1.42,.99-3.08,1.54-4.8,.56-1.71,1.06-3.67,1.54-5.74,1.11-4.13,2.14-8.9,3.08-14.2,2.12-12.45,2.87-25.09,2.22-37.71-.14-1.77-.26-3.58-.39-5.4-.12-1.82-.37-3.64-.57-5.51-.2-1.87-.51-3.72-.76-5.6-.24-1.9-.71-3.76-1.4-5.54-.66-1.82-2.01-3.31-3.76-4.13-1.86-.67-3.91-.48-5.61,.52-1.75,.97-3.16,2.46-4.04,4.26-.9,1.82-1.55,3.76-1.94,5.75-3.34,15.13-3.45,30.8-.32,45.97,.37,1.74,.72,3.45,1.19,5.14,.26,1.67,.86,3.27,1.76,4.7,.5,.63,1.29,.97,2.1,.91,.79-.08,1.53-.42,2.11-.97,1.06-1.19,1.66-2.72,1.7-4.32,.6-6.31,.97-12.2,1.22-17.58s.32-10.27,.34-14.54v-5.97c.08-1.67-.08-3.34-.46-4.97-.27-1.32-1.21-2.4-2.48-2.84-.96-.16-1.95,.12-2.68,.77-.48,.36-.74,.94-.68,1.54,.04,.19,.11,.37,.22,.54Z"/>
        <path class="cls-4" d="M393.08,396.86c.42-.84,1.1-1.54,1.93-1.99,.97-.52,2.07-.77,3.18-.71,1.52,.06,2.98,.6,4.18,1.54,2.84,2.13,4.77,6.17,7.31,10.5l8.54,14.84,4.98,8.64c1.71,3.01,3.55,6.17,5.29,9.42,1.88,3.42,3.43,7.01,4.63,10.72,1.26,3.98,1.74,8.17,1.42,12.34-.69,8.65-4.8,16.78-6.54,25.88-1.74,9.1-1.54,18.85-.69,28.65s2.02,19.42,2,28.75-1.25,18.51-4.63,26.22c-3.38,7.71-8.62,14.22-14.99,17.67-3.05,1.6-6.34,2.71-9.75,3.27-3.22,.62-6.35,1.02-9.25,1.65-2.82,.52-5.55,1.48-8.08,2.84-2.29,1.28-4.3,3.01-5.89,5.1-2.51,3.53-4.31,7.52-5.31,11.74-.89,3.49-1.34,6.25-1.67,8.13s-.48,2.85-.48,2.85c0,0,.12-.99,.42-2.87s.74-4.63,1.54-8.14c.98-4.25,2.77-8.27,5.29-11.83,1.6-2.11,3.62-3.87,5.92-5.17,2.55-1.37,5.3-2.34,8.14-2.87,2.95-.65,6.08-1.05,9.25-1.68,3.38-.56,6.65-1.67,9.68-3.27,6.29-3.42,11.55-9.82,14.85-17.57,3.3-7.74,4.63-16.81,4.63-26.08s-1.19-18.88-2-28.71c-.82-9.84-1.08-19.59,.71-28.75,1.79-9.16,5.84-17.27,6.54-25.83,.34-4.14-.14-8.3-1.39-12.26-1.17-3.7-2.69-7.28-4.53-10.69-1.73-3.3-3.56-6.42-5.27-9.42l-4.95-8.64-8.51-14.87c-2.53-4.32-4.46-8.37-7.23-10.49-1.17-.94-2.62-1.48-4.12-1.54-1.07-.07-2.14,.16-3.08,.66-.86,.44-1.58,1.12-2.07,1.96Z"/>
        <path class="cls-4" d="M414.89,328.46s.72,.83,2.07,2.48c.6,.86,1.45,1.88,2.25,3.22,2.19,3.44,3.92,7.15,5.15,11.04,.83,2.6,1.44,5.26,1.82,7.96,.45,3.12,.57,6.28,.39,9.42-.2,3.56-.82,7.08-1.85,10.49v.2l-.12-.15c-3.07-3.76-5.88-7.71-8.42-11.84-2.86-4.59-5.34-9.4-7.43-14.39-2.34-5.44-4.22-11.06-5.63-16.81-1.51-6.19-2.5-12.49-2.96-18.85-.48-6.77-.31-13.56,.52-20.29,.31-3.54,1.41-6.97,3.22-10.02,.98-1.55,2.38-2.79,4.04-3.56,1.73-.71,3.67-.75,5.43-.12,1.75,.64,3.31,1.73,4.52,3.16,1.19,1.44,2.13,3.07,2.78,4.83,.65,1.76,1.2,3.55,1.65,5.37,.48,1.82,.96,3.64,1.45,5.46,1.94,7.31,3.87,14.76,5.71,22.35,2.21,9.25,4.18,18.4,5.68,27.43,1.53,8.81,2.56,17.69,3.08,26.62,.48,8.43,.36,16.88-.34,25.29-.34,4.06-.89,8.02-1.54,11.89-.65,3.87-1.54,7.62-2.41,11.26v.29l-.19-.26c-7.64-11.11-14.34-22.84-20.05-35.05-2.56-5.44-4.73-10.63-6.6-15.42-.93-2.44-1.8-4.77-2.58-7.02-.77-2.25-1.54-4.41-2.16-6.46s-1.25-4.01-1.8-5.84-1.02-3.58-1.45-5.2c-.89-3.22-1.54-6-2.07-8.25-.52-2.25-.85-3.98-1.11-5.15s-.35-1.76-.35-1.76c0,0,.14,.59,.4,1.76s.62,2.9,1.16,5.14,1.19,5.01,2.1,8.24c.43,1.54,.91,3.35,1.54,5.18,.63,1.84,1.13,3.81,1.8,5.84s1.37,4.21,2.19,6.45c.82,2.24,1.65,4.63,2.59,7,1.88,4.86,4.06,10.04,6.62,15.42,5.72,12.19,12.42,23.89,20.05,34.99h-.25c.89-3.62,1.76-7.37,2.39-11.23,.63-3.86,1.17-7.82,1.54-11.87,.71-8.4,.81-16.83,.32-25.25-.54-8.91-1.57-17.79-3.08-26.59-1.54-9.02-3.47-18.17-5.68-27.4-1.84-7.59-3.76-15.02-5.71-22.35-1.02-3.62-1.79-7.33-3.08-10.8-.64-1.72-1.56-3.33-2.73-4.75-1.17-1.39-2.68-2.45-4.38-3.08-1.69-.6-3.54-.56-5.2,.12-1.61,.75-2.96,1.94-3.9,3.44-1.79,3.02-2.88,6.4-3.19,9.9-.83,6.71-1.01,13.49-.52,20.23,.44,6.34,1.43,12.63,2.95,18.8,1.39,5.73,3.26,11.34,5.58,16.76,2.09,4.97,4.56,9.78,7.39,14.37,2.53,4.12,5.33,8.08,8.39,11.83h-.19c1.03-3.4,1.66-6.91,1.87-10.46,.19-3.14,.07-6.28-.37-9.39-.37-2.69-.96-5.34-1.77-7.93-.68-2.16-1.51-4.27-2.48-6.32-.78-1.62-1.65-3.2-2.62-4.72-.79-1.34-1.63-2.36-2.22-3.24s-1.17-1.45-1.54-1.87-.65-.54-.65-.54Z"/>
        <path class="cls-4" d="M360.3,153.57s.09,.77,.17,2.24c.08,2.15-.03,4.3-.32,6.43-.46,3.37-1.19,6.7-2.21,9.95-1.13,3.82-2.68,8.08-4.26,12.82-1.79,5.15-2.98,10.48-3.55,15.9-.24,3.02-.08,6.06,.48,9.04,.63,3.15,1.84,6.16,3.56,8.87,3.53,5.6,9.25,9.96,15.5,13.31,6.25,3.35,13.51,5.58,20.66,8.2,3.56,1.27,7.04,2.74,10.44,4.4,3.27,1.63,6.37,3.59,9.25,5.84,5.43,4.32,10.12,9.49,13.88,15.31,3.44,5.25,6.28,10.86,8.48,16.73,1.92,5.11,3.5,10.35,4.72,15.67,2.22,9.76,3.24,17.81,3.98,23.35,.34,2.75,.6,4.89,.8,6.4,.2,1.51,.25,2.22,.25,2.22,0,0-.12-.76-.32-2.22-.2-1.47-.48-3.64-.85-6.38-.79-5.54-1.84-13.57-4.09-23.32-1.23-5.31-2.81-10.53-4.73-15.62-2.21-5.85-5.05-11.44-8.48-16.67-3.77-5.79-8.46-10.93-13.88-15.22-2.88-2.24-5.98-4.19-9.25-5.81-3.38-1.64-6.85-3.1-10.39-4.36-7.16-2.62-14.31-4.86-20.7-8.24-6.38-3.38-12.04-7.71-15.61-13.43-1.75-2.74-2.97-5.78-3.59-8.96-.56-3-.71-6.07-.46-9.11,.57-5.44,1.78-10.79,3.59-15.95,1.54-4.75,3.16-8.99,4.29-12.8,1.02-3.24,1.78-6.56,2.27-9.92,.3-2.12,.43-4.27,.39-6.42,0-.72,0-1.3-.09-1.67s.08-.57,.08-.57Z"/>
        <path class="cls-4" d="M485.61,137.13s-.15,.46-.48,1.34c-.2,.53-.43,1.04-.69,1.54-.32,.72-.68,1.43-1.08,2.11-1.07,1.89-2.33,3.67-3.78,5.29-1.9,2.17-4.09,4.07-6.49,5.66-2.92,1.93-6.14,3.37-9.53,4.26-1.88,.51-3.81,.83-5.75,.96-2.05,.11-4.11,.11-6.17,0-4.19-.17-8.7-.6-13.09,.72-4.52,1.46-8.31,4.61-10.58,8.79-2.34,4.12-3.49,8.81-3.33,13.54,.11,4.63,1.7,8.81,2.36,12.98,.7,3.98,.34,8.07-1.03,11.87-1.2,3.29-2.93,6.36-5.12,9.1-1.8,2.23-3.79,4.29-5.95,6.17-1.88,1.7-3.59,3.08-5.01,4.15-2.82,2.17-4.44,3.32-4.44,3.32,0,0,.39-.32,1.13-.89l3.24-2.53c1.4-1.09,3.08-2.47,4.98-4.16,2.13-1.92,4.1-4,5.89-6.25,2.15-2.73,3.85-5.79,5.04-9.05,1.35-3.76,1.69-7.8,.99-11.74-.66-4.13-2.27-8.36-2.37-13.02-.17-4.8,.99-9.55,3.36-13.73,2.32-4.25,6.19-7.44,10.8-8.93,4.47-1.33,9.01-.89,13.2-.71,2.05,.11,4.11,.11,6.17,0,1.93-.13,3.84-.44,5.71-.93,3.37-.87,6.57-2.29,9.47-4.21,2.4-1.56,4.58-3.44,6.48-5.58,1.45-1.6,2.73-3.35,3.81-5.23,.41-.68,.78-1.38,1.11-2.1,.27-.5,.51-1.01,.71-1.54,.34-.77,.48-1.22,.48-1.22Z"/>
        <path class="cls-4" d="M421.43,633.47s-.74-.23-2.16-.74c-2.06-.7-4.08-1.53-6.05-2.48-3.16-1.46-5.9-3.69-7.97-6.49-1.28-1.76-2.11-3.8-2.44-5.95-.29-2.44,.17-4.91,1.31-7.08,1.31-2.35,3.04-4.44,5.1-6.17,2.1-1.82,4.46-3.5,6.88-5.23,2.53-1.75,4.94-3.69,7.2-5.78,2.37-2.24,4.53-4.69,6.46-7.31,4.16-5.65,7.26-12.02,9.14-18.78,.97-3.58,1.61-7.24,1.9-10.93,.25-3.81,.11-7.63-.42-11.41-1.03-7.71-3.08-14.96-4.46-22.16-1.24-6.93-1.76-13.97-1.54-21,.51-11.9,2.37-23.71,5.54-35.19,2.64-9.81,5.23-17.61,7.02-23.01s2.85-8.33,2.85-8.33c0,0-.23,.74-.69,2.16-.46,1.42-1.17,3.55-2.05,6.17-1.74,5.4-4.3,13.22-6.89,23.02-3.14,11.5-4.97,23.31-5.44,35.22-.21,7.01,.31,14.02,1.54,20.93,1.31,7.19,3.44,14.48,4.47,22.18,.52,3.81,.65,7.66,.4,11.49-.28,3.71-.92,7.39-1.9,10.98-1.9,6.81-5.04,13.2-9.25,18.88-1.94,2.64-4.12,5.1-6.51,7.36-2.28,2.09-4.71,4.01-7.26,5.75-4.83,3.42-9.53,6.72-11.94,11.24-1.13,2.13-1.59,4.55-1.31,6.94,.31,2.12,1.13,4.14,2.39,5.88,2.05,2.78,4.75,5.01,7.88,6.48,1.95,.97,3.96,1.82,6.01,2.54l2.17,.85Z"/>
        <path class="cls-4" d="M575.06,644.38s-2.27-.32-6.28-1.36c-1.99-.54-4.44-1.2-7.19-2.24-6.94-2.49-13.52-5.9-19.55-10.15-3.79-2.67-7.35-5.64-10.66-8.88-3.5-3.42-6.89-7.28-10.8-10.8-3.9-3.85-8.6-6.81-13.76-8.67-5.16-1.95-10.91-1.67-15.85,.79-4.63,2.54-8,6.6-11.38,10.09s-6.97,6.77-11.3,7.83c-1.05,.24-2.13,.37-3.21,.4-1.04,0-2.07-.13-3.08-.35-1.9-.46-3.71-1.2-5.38-2.21-2.86-1.76-5.45-3.91-7.71-6.4-2.02-2.13-3.72-4.01-5.18-5.47-1.11-1.12-2.29-2.18-3.52-3.18l-.99-.76-.34-.26c1.79,1.19,3.44,2.57,4.93,4.12,1.54,1.43,3.18,3.32,5.21,5.43,2.24,2.45,4.81,4.58,7.63,6.32,3.39,2.21,7.53,2.97,11.49,2.11,4.24-1.06,7.82-4.29,11.15-7.79,3.33-3.5,6.71-7.57,11.44-10.16,5.02-2.5,10.85-2.79,16.1-.82,5.21,1.87,9.94,4.86,13.88,8.74,3.9,3.61,7.31,7.46,10.8,10.89,8.53,8.45,18.79,14.96,30.07,19.08,2.75,1.03,5.17,1.73,7.16,2.3s3.56,.89,4.63,1.11,1.68,.28,1.68,.28Z"/>
        <path class="cls-4" d="M494.87,370.24v1.11c-.01,1.1-.14,2.19-.39,3.25-.38,1.71-1.04,3.35-1.94,4.86-1.21,2.04-2.85,3.79-4.81,5.12l-.12,.09v-.14c-1.44-6.05-.9-12.41,1.54-18.14,.95-2.27,2.23-4.39,3.81-6.28,.88-.97,1.92-1.77,3.08-2.37,1.19-.68,2.6-.88,3.93-.57,1.36,.44,2.44,1.5,2.9,2.85,.43,1.35,.62,2.76,.57,4.18,.1,5.88-.68,11.74-2.33,17.38-1.57,4.93-4.46,9.34-8.36,12.74-3.62,3.11-7.62,5.77-11.89,7.9-4.03,2.11-7.94,3.96-11.47,5.92-3.3,1.77-6.4,3.88-9.25,6.31-2.33,2.03-4.34,4.4-5.95,7.03-1.21,1.99-2.12,4.15-2.68,6.42-.35,1.43-.53,2.9-.54,4.38v1.54s0-.52-.11-1.54c-.01-1.48,.15-2.95,.48-4.4,.54-2.29,1.44-4.48,2.65-6.49,1.61-2.66,3.63-5.06,5.97-7.11,2.84-2.45,5.95-4.59,9.25-6.37,3.55-1.99,7.45-3.82,11.47-5.95,4.25-2.13,8.23-4.77,11.83-7.88,3.84-3.37,6.69-7.73,8.25-12.6,1.63-5.61,2.42-11.43,2.33-17.27,.05-1.38-.13-2.76-.56-4.07-.43-1.26-1.42-2.25-2.68-2.67-1.27-.3-2.6-.11-3.73,.54-1.12,.59-2.14,1.38-2.99,2.31-1.56,1.85-2.84,3.93-3.78,6.17-.9,2.07-1.55,4.24-1.93,6.46-.67,3.82-.56,7.74,.32,11.52h-.15c1.94-1.31,3.57-3.03,4.78-5.04,.91-1.49,1.57-3.11,1.97-4.81,.28-1.09,.46-2.2,.52-3.32v-1.06Z"/>
        <path class="cls-4" d="M310.64,671.83l.32-.6c.23-.4,.56-1,1.03-1.71s1.08-1.54,1.82-2.59,1.65-2.05,2.7-3.19c2.5-2.64,5.32-4.96,8.39-6.91,3.78-2.38,7.9-4.14,12.23-5.23,4.34-.89,8.63-2.01,12.85-3.35,3.43-1.17,6.47-3.27,8.77-6.06,.88-1.07,1.6-2.26,2.11-3.55,.39-.99,.63-2.03,.74-3.08,.07-.66,.07-1.33,0-1.99v-.68c.05,.22,.09,.45,.12,.68,.09,.66,.09,1.33,0,1.99-.07,1.06-.31,2.1-.71,3.08-.51,1.31-1.21,2.54-2.08,3.64-2.32,2.84-5.39,4.97-8.85,6.17-4.23,1.36-8.53,2.48-12.88,3.38-4.3,1.08-8.4,2.83-12.15,5.18-3.06,1.91-5.88,4.2-8.37,6.82-1.06,1.11-1.97,2.17-2.73,3.08s-1.37,1.84-1.85,2.56-.83,1.28-1.08,1.67-.39,.69-.39,.69Z"/>
        <path class="cls-4" d="M420.15,662.33c.08-.32,.19-.64,.31-.96,.15-.36,.28-.74,.37-1.13,.17-.5,.3-1.02,.4-1.54,.31-1.32,.5-2.67,.56-4.03,.05-.8,.05-1.59,0-2.39-.09-1.72-.37-3.42-.85-5.07-.2-.8-.52-1.54-.77-2.27-.51-1.26-1.13-2.46-1.85-3.61-.29-.51-.62-.91-.88-1.3-.22-.33-.46-.64-.72-.94-.22-.25-.43-.51-.62-.79,.26,.22,.49,.45,.71,.71,.28,.29,.54,.59,.77,.91,.33,.41,.64,.84,.93,1.28,.76,1.14,1.41,2.35,1.93,3.62,.32,.75,.58,1.52,.8,2.3,.25,.83,.45,1.68,.6,2.53,.12,.89,.25,1.76,.28,2.59,.05,.81,.05,1.63,0,2.44-.07,1.37-.27,2.73-.62,4.06-.12,.52-.28,1.04-.46,1.54-.11,.38-.25,.75-.42,1.11-.13,.32-.28,.63-.46,.93Z"/>
      </g>
      <path class="cls-3" d="M528.8,140.93c1.06-6.22-9.71-11.35-17.79-11.88-3.87-.26-7.87,.23-11.53-.81-7.91-2.25-11.07-10.6-18.8-13.26-5.77-1.97-12.42-.22-18.07,2.08-5.65,2.3-11.13,5.19-17.38,5.52-5.44,.29-11.35-1.36-16.11,.81-3.61,1.62-5.41,4.92-8.69,6.88-3.28,1.97-7.37,2.34-11.34,2.52-3.96,.18-8.08,.21-11.7,1.55-3.61,1.35-6.6,4.47-5.85,7.66l137.25-1.07Z"/>
    </g>
  </g>
</svg>