<?xml version="1.0" encoding="UTF-8"?>
<svg id="Camada_2" data-name="Camada 2" xmlns="http://www.w3.org/2000/svg" viewBox="0 0 561.49 659.19">
  <defs>
    <style>
      .cls-1 {
        fill: #455a64;
      }

      .cls-2 {
        fill: #ebebeb;
        opacity: .8;
      }

      .cls-3 {
        fill: #263238;
      }
    </style>
  </defs>
  <g id="Camada_1-2" data-name="Camada 1">
    <g>
      <g>
        <path class="cls-3" d="M169.12,622.77l-10.63-126.84c-12.79-27.71-29.84-87.37-29.84-87.37l-76.71-45.83H2.93l57.68-3.67,79.28,45.65,7.88-67.24-40.27-41.11-19.93-46.07-47.73-48.13h2.48l48.16,46.88,19.09,45.67,42.34,40.27,32.79-44-16.97-92.99-56.47-62.27-49.8-9.54L7.9,166.04l50.22-41.51,51.89,5.4-2.9-14.52,1.67-62.27,1.65,2.9-.83,58.06,6.65,19.51,53.13,57.29,23.66-68.9-11.21-113.74h2.08l16.61,116.23-16.61,69.75,12.5,99.18-38.23,53.56-2.03,65.67,29.03,76.35,41.5,133.66-57.55,.12Z"/>
        <path class="cls-3" d="M127.37,216.57c.19,.29-5.81,4.15-13.28,8.62s-13.75,7.88-13.91,7.58,5.81-4.15,13.28-8.62c7.48-4.47,13.73-7.87,13.91-7.58Z"/>
        <path class="cls-3" d="M240.19,183.07c-.42,1.05-.94,2.06-1.57,3-1.1,1.89-2.71,4.6-4.86,7.85-5.6,8.49-11.78,16.58-18.49,24.21-3.93,4.49-7.88,8.54-11.39,12.28-1.76,1.87-3.48,3.6-5.01,5.3s-2.9,3.37-4.01,4.91c-2.35,3.08-4.08,5.69-5.27,7.52-.55,.99-1.19,1.92-1.9,2.8,.38-1.06,.86-2.09,1.45-3.05,1.51-2.69,3.17-5.29,4.98-7.79,1.15-1.58,2.45-3.28,3.93-5.05s3.19-3.5,4.94-5.4c3.5-3.8,7.42-7.87,11.32-12.32,6.7-7.6,12.96-15.56,18.77-23.86,2.24-3.18,3.96-5.81,5.2-7.61,.55-.99,1.19-1.92,1.92-2.79Z"/>
        <path class="cls-1" d="M159.23,495.63c-.03-.23-.03-.46,0-.68v-1.96c.14-2.4,.45-4.79,.94-7.14,.58-2.98,1.45-6.47,2.21-10.41,.79-4.26,1.35-8.56,1.67-12.88,.57-7.85,.37-15.74-.6-23.56-.36-3-.77-5.41-1.05-7.08-.13-.71-.23-1.34-.33-1.92-.04-.23-.04-.46,0-.68,.09,.21,.16,.42,.2,.64l.46,1.9c.38,1.65,.86,4.06,1.29,7.07,1.12,7.84,1.39,15.79,.8,23.69-.32,4.35-.89,8.67-1.73,12.95-.77,3.95-1.73,7.43-2.37,10.39-.54,2.32-.92,4.67-1.16,7.04-.28,1.68-.29,2.63-.35,2.63Z"/>
        <path class="cls-1" d="M180.82,529.93c.46,.6,.85,1.24,1.19,1.92,.99,1.93,1.63,4.03,1.89,6.18,.19,1.56,.19,3.13,0,4.69-.25,1.89-1.09,3.66-2.41,5.04-.74,.8-1.73,1.32-2.82,1.45-1.19,.05-2.33-.5-3.05-1.45-.7-.98-1.19-2.09-1.45-3.27-.29-1.16-.57-2.35-.83-3.59-1.12-5.37-1.82-10.82-2.08-16.3-.25-3.08,0-6.17,.73-9.17,.4-1.61,1.21-3.09,2.37-4.28,.61-.63,1.37-1.09,2.21-1.34,.89-.24,1.83-.13,2.64,.3,.75,.44,1.43,1,2,1.65,.58,.62,1.15,1.25,1.68,1.93,1.09,1.36,2.06,2.82,2.9,4.35,1.71,3.15,2.95,6.53,3.66,10.04,1.38,7.41,.99,15.05-1.13,22.28-1.01,3.66-2.28,7.24-3.79,10.73-.64,1.78-1.56,3.45-2.74,4.94-1.35,1.48-3.41,2.07-5.34,1.54-3.67-1.18-6.04-4.35-7.55-7.45-1.56-3.05-2.74-6.29-3.53-9.62-1.43-6.17-2-12.51-1.68-18.84,.25-5.48,.83-10.94,1.73-16.34,1.63-9.91,3.61-17.8,4.98-23.22,.68-2.64,1.22-4.72,1.61-6.26,.39-1.54,.62-2.16,.62-2.16,0,0-.13,.77-.48,2.21l-1.45,6.29c-1.26,5.46-3.19,13.35-4.75,23.22-.86,5.39-1.42,10.82-1.65,16.27-.29,6.25,.27,12.51,1.67,18.61,.79,3.28,1.96,6.46,3.5,9.46,.74,1.56,1.72,3,2.9,4.27,1.14,1.3,2.61,2.27,4.25,2.8,1.67,.47,3.46-.06,4.62-1.35,1.13-1.42,2.01-3.01,2.61-4.72,1.5-3.45,2.75-7.01,3.74-10.64,2.09-7.12,2.48-14.63,1.13-21.93-.68-3.44-1.88-6.76-3.56-9.84-.81-1.49-1.75-2.91-2.82-4.24-.95-1.33-2.12-2.49-3.45-3.43-1.41-.65-3.07-.28-4.06,.91-1.08,1.1-1.84,2.48-2.21,3.98-.72,2.93-.97,5.96-.74,8.97,.23,5.45,.9,10.88,1.99,16.23,.57,2.4,.81,4.91,2.09,6.66,.61,.85,1.6,1.33,2.64,1.29,.98-.12,1.88-.59,2.55-1.31,2.8-2.9,2.66-6.74,2.44-9.41-.22-2.14-.81-4.22-1.74-6.15-.3-.65-.58-1.15-.77-1.45-.1-.15-.2-.3-.28-.46Z"/>
        <path class="cls-1" d="M200.02,553.91c.07,.22,.1,.45,.09,.68,0,.58,.09,1.23,.13,1.95,0,1.7,.12,4.17,0,7.26-.12,7.97-1.93,15.82-5.3,23.04-4.24,8.45-11.12,13.86-15.88,17.51-1.22,.91-2.31,1.73-3.32,2.42-.87,.6-1.86,.98-2.9,1.13-.68,.13-1.38-.04-1.92-.48-.18-.16-.31-.36-.39-.58,0,0,.15,.2,.48,.46,.53,.35,1.17,.46,1.79,.32,.99-.2,1.93-.61,2.74-1.2l3.22-2.48c4.67-3.74,11.39-9.16,15.55-17.42s5.04-16.77,5.43-22.76c.19-3.02,.2-5.47,.23-7.16-.05-.9-.03-1.79,.06-2.69Z"/>
        <path class="cls-1" d="M169.37,330.49c-1.76,.61-3.46,1.38-5.07,2.32-4.3,2.72-7.77,6.56-10.04,11.1-3.02,5.68-4.5,13.34-4.82,21.77-.17,4.25-.19,8.71-.19,13.37-.04,4.77,.24,9.54,.84,14.27,.68,4.85,1.77,9.54,2.48,14.14,.68,4.43,.97,8.92,.87,13.4-.28,7.56-.98,15.09-2.1,22.57-.54,5.08-1.61,10.09-3.19,14.95-.59,1.78-1.35,3.49-2.28,5.11,0,0,.17-.46,.57-1.34s.9-2.16,1.45-3.88c1.45-4.87,2.42-9.87,2.9-14.92,1.04-7.46,1.69-14.98,1.93-22.51,.08-4.44-.22-8.88-.9-13.27-.71-4.57-1.8-9.26-2.5-14.15-.61-4.77-.89-9.57-.84-14.37,0-4.64,0-9.12,.23-13.4,.36-8.52,1.9-16.29,5.05-22.02,2.34-4.6,5.92-8.45,10.35-11.1,1.2-.71,2.48-1.28,3.8-1.71,.96-.23,1.45-.33,1.45-.33Z"/>
        <path class="cls-1" d="M183.48,307.41c0,.07-.61,.83-1.86,1.87-1.66,1.34-3.47,2.49-5.39,3.43-1.91,.94-3.93,1.65-6.01,2.12-.85,.26-1.73,.36-2.61,.3,2.82-.88,5.59-1.91,8.3-3.09,2.6-1.4,5.13-2.95,7.56-4.63Z"/>
        <path class="cls-1" d="M188.73,251.92c.25,1.44,.35,2.9,.29,4.35,0,3.55-.28,7.1-.83,10.61-.55,3.51-1.37,6.97-2.45,10.35-.38,1.42-.92,2.8-1.61,4.11,.29-1.44,.67-2.86,1.12-4.25,.93-3.4,1.67-6.84,2.22-10.32,.53-3.48,.87-6.99,1.03-10.51-.01-1.45,.07-2.9,.23-4.34Z"/>
        <path class="cls-1" d="M182.79,230.08c0,.46-.04,.91-.1,1.36,0,.89-.19,2.21-.22,3.9-.07,4.78,.6,9.55,1.99,14.12h-.49c1.22-2.25,1.18-5.17,.97-8.16s-.35-6.24-.62-9.59c-.45-7.25-1.75-14.42-3.88-21.37-.54-1.91-1.5-3.67-2.82-5.15-.62-.71-1.57-.99-1.99-.3-.37,.83-.47,1.75-.3,2.64,.25,3.86,.49,7.61,.73,11.16,.44,7.08,.84,13.48,1.18,18.87,.13,4.25,.53,8.49,1.19,12.69,.28,1.45,.57,2.61,.78,3.38,.13,.38,.23,.77,.3,1.16-.17-.36-.32-.74-.45-1.12-.37-1.1-.68-2.23-.93-3.37-.77-4.2-1.26-8.45-1.45-12.72-.38-5.44-.83-11.83-1.34-18.87-.25-3.56-.49-7.26-.77-11.16-.19-1.05-.05-2.13,.42-3.09,.36-.55,1.03-.83,1.67-.68,.56,.15,1.06,.45,1.45,.87,1.4,1.56,2.42,3.43,2.99,5.44,2.15,7,3.45,14.23,3.86,21.54,.26,3.37,.42,6.59,.57,9.62s.22,6.02-1.12,8.45l-.32,.58-.19-.64c-1.36-4.63-1.96-9.46-1.77-14.28,.05-1.31,.17-2.61,.36-3.9,.07-.47,.17-.94,.29-1.39Z"/>
        <path class="cls-3" d="M43.75,324.28c1.09,1.68,2.06,3.43,2.9,5.24,1.73,3.27,4.06,7.82,6.58,12.89,2.51,5.07,4.76,9.67,6.31,13.06,.96,1.77,1.73,3.63,2.31,5.56-1.17-1.62-2.16-3.36-2.96-5.2-1.77-3.27-4.12-7.81-6.63-12.88-5.12-10.15-8.91-18.49-8.51-18.68Z"/>
        <path class="cls-3" d="M55.04,346.53c-.22,.29-4.76-2.9-10.64-6.43-5.88-3.53-10.86-5.98-10.71-6.31s5.39,1.7,11.34,5.27c5.95,3.57,10.22,7.23,10.02,7.48Z"/>
        <path class="cls-3" d="M26.24,362.15c.22,.28-4.78,4.46-10.64,9.91-5.86,5.46-10.42,10.16-10.68,9.86s3.92-5.27,9.86-10.76,11.28-9.32,11.47-9.01Z"/>
        <path class="cls-3" d="M16.26,370.62c.09,.33-3.32,1.55-7.64,2.69-4.31,1.13-7.94,1.76-8,1.29,2.47-1.08,5.04-1.9,7.68-2.47,4.31-1.15,7.87-1.83,7.95-1.51Z"/>
        <path class="cls-3" d="M120.13,187.15c-.19,.91-.5,1.79-.91,2.63-.78,1.89-1.77,4.21-2.9,6.97-2.51,5.81-6.07,13.92-10.04,22.8l-2.9,6.46c-.46,1.05-.94,2.08-1.45,3.08-.43,.97-.78,1.97-1.03,3-.75,1.95-1.93,3.7-3.47,5.11l-3.53,3.83-5.18,5.5c-.6,.71-1.28,1.35-2.02,1.92,.47-.81,1.03-1.56,1.67-2.24l4.89-5.81,3.38-3.89c1.39-1.33,2.46-2.96,3.14-4.76,.26-1.07,.6-2.11,1.03-3.12l1.38-3.09c.94-2.09,1.9-4.27,2.9-6.49,4.04-8.88,7.71-16.88,10.42-22.69l3.27-6.82c.37-.85,.82-1.65,1.36-2.4Z"/>
        <path class="cls-3" d="M129.61,193.46c.2,.28-3.93,3.7-9.23,7.65s-9.77,6.94-9.97,6.68,3.93-3.7,9.23-7.66c5.3-3.96,9.77-6.89,9.97-6.66Z"/>
        <path class="cls-3" d="M107.81,214.8c-.35,0-.58-7.55-.94-16.85-.36-9.3-.74-16.85-.39-16.88,.48,1.59,.75,3.24,.8,4.91,.32,3.03,.64,7.26,.81,11.92s.2,8.9,.13,11.96c.07,1.66-.07,3.32-.41,4.95Z"/>
        <path class="cls-3" d="M55.67,216.08c0,.09-.52-.13-1.45-.2-1.31-.03-2.62,.11-3.89,.41-3.44,.8-8.22,.1-13.33-.36s-9.8-1.05-13.17-1.45c-1.83-.13-3.65-.46-5.41-.97,1.83-.18,3.68-.14,5.5,.1,3.4,.23,8.06,.62,13.21,1.15s9.77,1.28,13.06,.73c1.35-.24,2.74-.24,4.09,0,.99,.17,1.42,.55,1.38,.61Z"/>
        <path class="cls-3" d="M36.68,215.5s-.1,0,0-.09,.2-.19,.3,0-.32,.39-.52,.61c-.46,.36-1.18,.84-2.06,1.45-1.77,1.15-4.25,2.67-7.05,4.35-5.57,3.24-10.16,5.62-10.39,5.31s4.19-3.19,9.74-6.4c2.77-1.61,5.33-3,7.26-3.96,.87-.5,1.79-.92,2.73-1.28Z"/>
        <path class="cls-3" d="M60.53,126.17c-2.44-1.46-4.78-3.08-7.01-4.83-4.27-3.09-10.16-7.26-16.77-11.89-6.6-4.63-12.7-8.56-17.06-11.45-2.44-1.47-4.79-3.09-7.03-4.85,.74,.23,1.44,.56,2.08,.99,1.31,.7,3.15,1.77,5.4,3.12,4.53,2.71,10.67,6.62,17.29,11.19,6.62,4.57,12.45,8.93,16.59,12.19,2.06,1.63,3.72,2.9,4.83,3.93,1.12,1.03,1.73,1.52,1.67,1.6Z"/>
        <path class="cls-3" d="M24.15,99.79c-.26,.19-2.34-2.41-3.85-6.18-1.51-3.77-1.84-7.07-1.52-7.13s1.19,3.03,2.66,6.66,3.02,6.46,2.71,6.65Z"/>
        <path class="cls-3" d="M43.71,113.63c0,.33-7.95-1.19-17.59-3.4-9.64-2.21-17.42-4.27-17.33-4.6s7.95,1.19,17.59,3.4c9.64,2.21,17.4,4.3,17.33,4.6Z"/>
        <path class="cls-3" d="M109.61,121.55c-.83-.58-1.59-1.25-2.28-1.99-1.45-1.32-3.41-3.3-5.81-5.81-4.89-4.88-11.54-11.74-18.62-19.65-7.08-7.91-13.31-15.15-17.72-20.51-2.19-2.67-3.95-4.86-5.12-6.4-.67-.76-1.26-1.59-1.76-2.47,.78,.65,1.49,1.37,2.12,2.16l5.43,6.1c4.57,5.2,10.89,12.38,17.97,20.23s13.59,14.85,18.29,19.93l5.57,6.02c.72,.73,1.37,1.52,1.93,2.38Z"/>
        <path class="cls-3" d="M79.04,88.28c-1.71-.41-3.37-1.03-4.94-1.83-2.9-1.28-7.04-3.11-11.51-5.2s-8.48-4.05-11.35-5.52c-1.61-.7-3.14-1.57-4.56-2.61,1.72,.4,3.38,1.01,4.95,1.81,2.98,1.28,7.04,3.11,11.51,5.2s8.48,4.05,11.37,5.53c1.61,.69,3.13,1.57,4.53,2.61Z"/>
        <path class="cls-3" d="M77.98,73.49c.32-.12,2.28,4.6,4.08,10.61,1.8,6.01,2.77,11.03,2.44,11.1s-1.81-4.76-3.61-10.74c-1.8-5.98-3.22-10.86-2.9-10.97Z"/>
        <path class="cls-3" d="M191.3,74.96c.29-.97,.68-1.9,1.16-2.79,.83-1.76,2.08-4.35,3.64-7.36,3.14-6.18,7.65-14.65,12.88-23.83s10.16-17.42,13.89-23.22c1.84-2.9,3.38-5.28,4.47-6.88,.5-.88,1.1-1.69,1.79-2.44-.36,.94-.82,1.84-1.38,2.69l-4.14,7.08c-3.51,5.98-8.35,14.23-13.57,23.41-5.23,9.19-9.83,17.56-13.17,23.65-1.6,2.9-2.92,5.29-3.98,7.17-.45,.89-.98,1.74-1.6,2.53Z"/>
        <path class="cls-3" d="M213.28,35.48c-.13-1.75-.07-3.52,.19-5.25,.28-3.22,.74-7.66,1.32-12.56s1.19-9.33,1.67-12.53c.14-1.75,.5-3.47,1.06-5.14,.14,1.75,.08,3.51-.19,5.24-.28,3.22-.74,7.66-1.32,12.57-.58,4.91-1.18,9.32-1.67,12.51-.14,1.75-.5,3.48-1.06,5.15Z"/>
        <path class="cls-3" d="M104.22,25.42c.35,0,1.45,7.49,2.9,16.74s2.8,16.75,2.47,16.82c-.66-1.56-1.11-3.19-1.35-4.86-.7-2.99-1.45-7.17-2.26-11.82s-1.26-8.87-1.54-11.95c-.28-1.63-.36-3.29-.22-4.94Z"/>
        <path class="cls-3" d="M106.91,43.95c-.22,.25-3.24-2.26-6.49-5.81s-5.5-6.88-5.24-7.08,2.9,2.64,6.14,6.15,5.84,6.42,5.59,6.74Z"/>
        <path class="cls-3" d="M32.76,146.3c0,.33-7.45-.71-16.49-2.34C7.23,142.34-.06,140.76,0,140.42s7.45,.71,16.49,2.34c9.04,1.63,16.37,3.21,16.27,3.54Z"/>
        <path class="cls-3" d="M252.21,220.61c-1.67,.62-3.44,.93-5.23,.9-4.28,.11-8.55-.29-12.73-1.19l-12.43-2.63c-1.75-.23-3.47-.59-5.15-1.1,1.77-.18,3.55-.1,5.3,.25,3.24,.39,7.66,1.31,12.51,2.28,4.11,.87,8.29,1.38,12.48,1.52,1.75-.1,3.49-.11,5.24-.03Z"/>
        <path class="cls-3" d="M248.8,229.04c-.28,.19-1.87-1.68-3.56-4.18s-2.83-4.66-2.54-4.85,1.87,1.67,3.56,4.17,2.79,4.67,2.54,4.86Z"/>
        <path class="cls-3" d="M517.72,430.95l-57.28,32.99-5.7-48.58,29.03-29.7,14.4-33.28,34.49-34.84h-1.8l-34.84,33.89-13.79,32.99-30.6,29.03-23.69-31.79,12.29-67.19,40.79-45,36-6.89,38.68,28.78-36.29-29.99-37.49,3.9,2.1-10.51-1.2-45-1.19,2.1,.6,41.98-4.8,14.11-38.23,41.51-17.08-49.79,8.04-82.2h-1.45l-11.99,83.99,11.99,50.38-9.09,71.75,27.58,38.7,.44,14.6-27.27-31.7-68.22-19.86-13.09-22.47-.87,2.69,12.79,24.82,69.3,22.4,28.03,42.27,.44,14.52-20.92,55.16-29.99,96.57,41.57,.09,7.68-91.65c9.23-20.02,21.56-63.13,21.56-63.13l55.43-33.1h35.4l-41.73-2.57Z"/>
        <path class="cls-3" d="M469.49,327.99c-.13,.22,4.17,3,9.59,6.24,5.43,3.24,9.93,5.69,10.04,5.47s-4.17-3-9.59-6.24c-3.21-2.07-6.56-3.9-10.04-5.47Z"/>
        <path class="cls-3" d="M387.97,303.78c.3,.76,.68,1.49,1.13,2.18,.8,1.35,1.96,3.31,3.51,5.66,4.05,6.13,8.51,11.98,13.37,17.49,2.83,3.24,5.69,6.17,8.23,8.87,1.28,1.35,2.53,2.6,3.61,3.83,1.09,1.23,2.05,2.42,2.9,3.54,1.7,2.22,2.9,4.12,3.8,5.43,.41,.71,.86,1.39,1.36,2.03-.27-.78-.63-1.52-1.07-2.21-1.09-1.95-2.29-3.83-3.6-5.63-.83-1.15-1.77-2.37-2.83-3.64s-2.31-2.53-3.57-3.9c-2.53-2.74-5.36-5.69-8.17-8.9-4.82-5.5-9.33-11.26-13.51-17.26-1.61-2.29-2.9-4.19-3.74-5.5-.41-.71-.89-1.37-1.42-1.99Z"/>
        <path class="cls-1" d="M446.45,529.63c.02-.16,.02-.33,0-.49v-1.45c-.1-1.74-.33-3.46-.68-5.17-.42-2.15-1.07-4.67-1.6-7.5-.57-3.08-.98-6.18-1.2-9.3-.41-5.68-.27-11.38,.42-17.03,.28-2.18,.55-3.92,.77-5.12,.09-.51,.16-.97,.23-1.45s.07-.48,0-.49c-.06,.15-.11,.32-.15,.48-.1,.41-.22,.86-.33,1.36-.28,1.2-.62,2.9-.94,5.11-1.26,8.8-1.03,17.75,.68,26.48,.55,2.9,1.25,5.37,1.7,7.5,.39,1.68,.67,3.38,.86,5.09,.25,1.31,.25,1.99,.25,1.99Z"/>
        <path class="cls-1" d="M430.91,554.4c-.33,.46-.62,.94-.86,1.45-1.25,2.42-1.72,5.16-1.35,7.85,.18,1.37,.79,2.65,1.74,3.64,.53,.58,1.25,.96,2.03,1.06,.86,.04,1.69-.36,2.21-1.05,.49-.71,.84-1.52,1.02-2.37,.2-.84,.41-1.7,.6-2.58,.79-3.88,1.28-7.83,1.45-11.79,.18-2.22,0-4.46-.52-6.62-.28-1.17-.87-2.24-1.71-3.11-.44-.45-.98-.78-1.58-.96-.64-.18-1.33-.1-1.92,.22-.55,.32-1.04,.72-1.45,1.2-.41,.44-.83,.9-1.2,1.45-.79,.98-1.49,2.02-2.09,3.12-1.23,2.28-2.12,4.72-2.64,7.26-.99,5.36-.71,10.87,.83,16.1,.72,2.65,1.63,5.24,2.73,7.75,.46,1.29,1.13,2.49,1.99,3.56,.97,1.07,2.47,1.51,3.86,1.12,2.48-.97,4.45-2.92,5.46-5.39,1.12-2.2,1.97-4.53,2.54-6.94,1.02-4.45,1.42-9.03,1.18-13.59-.19-3.95-.6-7.9-1.25-11.8-1.18-7.16-2.61-12.86-3.6-16.79-.49-1.9-.89-3.41-1.16-4.51-.28-1.1-.45-1.57-.45-1.57,0,0,.1,.55,.35,1.6s.61,2.63,1.07,4.54c.91,3.93,2.29,9.64,3.43,16.79,.61,3.89,1,7.82,1.18,11.76,.21,4.52-.2,9.05-1.22,13.46-.56,2.37-1.4,4.66-2.51,6.82-.53,1.13-1.23,2.18-2.08,3.09-.83,.94-1.89,1.64-3.08,2.03-1.21,.33-2.5-.05-3.34-.99-.81-1.02-1.45-2.17-1.87-3.4-1.09-2.5-2-5.07-2.71-7.69-1.51-5.15-1.8-10.58-.83-15.85,.5-2.49,1.37-4.88,2.58-7.11,.59-1.08,1.27-2.1,2.03-3.06,.69-.96,1.53-1.79,2.5-2.47,1-.46,2.19-.19,2.9,.65,.79,.8,1.34,1.81,1.6,2.9,.52,2.12,.7,4.3,.54,6.47-.18,3.94-.66,7.85-1.45,11.71-.19,1.69-.68,3.32-1.45,4.83-.44,.61-1.15,.95-1.9,.93-.71-.09-1.37-.42-1.86-.94-1.56-1.9-2.21-4.39-1.76-6.81,.16-1.54,.59-3.04,1.25-4.44,.23-.48,.44-.83,.57-1.06,.09-.16,.17-.33,.23-.51Z"/>
        <path class="cls-1" d="M416.99,571.74c-.01,.16-.01,.33,0,.49,0,.44,0,.89-.09,1.45,0,1.23-.09,3,0,5.21,.07,5.75,1.36,11.42,3.76,16.65,3.08,6.11,8.04,10.03,11.48,12.66,.87,.67,1.67,1.25,2.4,1.74,.63,.44,1.36,.72,2.12,.83,.49,.09,.99-.04,1.38-.35,.13-.11,.23-.26,.28-.42,0,0-.1,.15-.35,.33-.37,.26-.84,.34-1.28,.23-.72-.13-1.4-.43-1.99-.87l-2.34-1.79c-3.37-2.7-8.22-6.62-11.22-12.6-2.39-5.17-3.73-10.76-3.93-16.45-.13-2.18-.15-3.95-.16-5.17,.04-.65,.02-1.31-.06-1.96Z"/>
        <path class="cls-1" d="M439.19,410.31c1.27,.43,2.5,.99,3.66,1.67,3.11,1.96,5.62,4.74,7.26,8.03,2.31,4.94,3.5,10.32,3.5,15.76,.12,3.06,.13,6.3,.13,9.65,.03,3.45-.17,6.89-.61,10.31-.49,3.51-1.28,6.89-1.79,10.16-.5,3.2-.71,6.44-.64,9.68,.2,5.46,.71,10.91,1.52,16.32,.4,3.66,1.16,7.28,2.29,10.78,.43,1.28,.99,2.52,1.65,3.7,0,0-.12-.33-.41-.96s-.65-1.57-1.05-2.8c-1.06-3.52-1.77-7.13-2.13-10.78-.77-5.39-1.26-10.83-1.45-16.27-.06-3.21,.16-6.41,.65-9.58,.51-3.31,1.31-6.69,1.8-10.16,.44-3.44,.65-6.91,.61-10.38,0-3.35,0-6.59-.17-9.68-.25-6.15-1.36-11.76-3.64-15.97-1.69-3.32-4.28-6.11-7.48-8.03-.87-.51-1.79-.92-2.74-1.23-.67-.15-.97-.22-.97-.22Z"/>
        <path class="cls-1" d="M428.95,393.63s.44,.6,1.35,1.35c1.19,.97,2.49,1.81,3.88,2.48,1.39,.65,2.85,1.14,4.35,1.45,.61,.18,1.25,.26,1.89,.23-2.04-.64-4.05-1.39-6.01-2.24-1.88-1-3.7-2.09-5.46-3.28Z"/>
        <path class="cls-1" d="M425.16,353.54c-.2,1.05-.27,2.11-.22,3.18,.01,2.57,.21,5.13,.6,7.66,.4,2.53,.99,5.03,1.77,7.48,.28,1.03,.67,2.03,1.16,2.98-.2-1.04-.47-2.07-.8-3.08-1.34-4.91-2.13-9.96-2.35-15.05,0-1.06-.05-2.11-.16-3.16Z"/>
        <path class="cls-1" d="M429.44,337.76c0,.33,.03,.66,.07,.99,0,.64,.15,1.6,.16,2.82,.05,3.44-.44,6.87-1.45,10.16h.36c-.77-1.87-1.02-3.91-.71-5.91,.13-2.18,.26-4.5,.45-6.92,.32-5.24,1.26-10.42,2.8-15.43,.39-1.38,1.09-2.66,2.05-3.73,.45-.51,1.12-.71,1.45-.22,.27,.6,.35,1.26,.23,1.9-.19,2.8-.36,5.49-.52,8.07l-.86,13.67c-.1,3.07-.39,6.14-.86,9.17-.2,1.06-.41,1.89-.57,2.44-.09,.28-.17,.56-.23,.84,.13-.26,.24-.53,.33-.81,.27-.79,.49-1.6,.67-2.42,.56-3.03,.9-6.11,1.03-9.19,.28-3.93,.6-8.56,.96-13.67,.17-2.57,.36-5.27,.55-8.07,.15-.76,.04-1.54-.3-2.24-.27-.39-.74-.59-1.2-.49-.4,.11-.76,.33-1.03,.64-1.02,1.13-1.76,2.47-2.16,3.93-1.56,5.06-2.5,10.28-2.8,15.56-.17,2.44-.3,4.76-.41,6.95-.3,2.07-.02,4.19,.81,6.11l.23,.41,.13-.45c.99-3.35,1.42-6.83,1.28-10.32,0-1.23-.17-2.19-.26-2.83s-.2-.96-.2-.96Z"/>
        <path class="cls-3" d="M529.9,405.82c-.79,1.21-1.5,2.47-2.12,3.77-1.25,2.37-2.9,5.66-4.76,9.32s-3.43,7-4.56,9.42c-.69,1.28-1.25,2.62-1.67,4.01,.88-1.16,1.63-2.41,2.24-3.73,1.26-2.35,2.9-5.65,4.79-9.3,3.64-7.3,6.39-13.35,6.08-13.48Z"/>
        <path class="cls-3" d="M521.74,421.91c.16,.2,3.44-2.12,7.69-4.64,4.25-2.53,7.84-4.35,7.74-4.57-2.9,.86-5.66,2.14-8.19,3.8-4.31,2.55-7.39,5.23-7.24,5.41Z"/>
        <path class="cls-3" d="M542.56,433.18c-.16,.2,3.44,3.22,7.68,7.16,4.24,3.93,7.53,7.26,7.72,7.13-4.31-5.58-9.52-10.4-15.4-14.28h0Z"/>
        <path class="cls-3" d="M549.77,439.31c-.07,.23,2.4,1.12,5.52,1.95s5.73,1.26,5.81,.93c-1.78-.78-3.64-1.38-5.54-1.79-1.86-.64-3.81-1.01-5.78-1.09Z"/>
        <path class="cls-3" d="M474.71,306.68c.15,.66,.37,1.29,.67,1.9l2.1,5.04c1.81,4.22,4.35,10.06,7.26,16.46l2.12,4.67c.33,.75,.68,1.45,1,2.22,.32,.7,.57,1.43,.75,2.18,.53,1.41,1.39,2.67,2.5,3.69l2.55,2.77,3.74,3.98c.43,.51,.92,.98,1.45,1.38-.33-.59-.73-1.13-1.2-1.61l-3.53-4.17-2.47-2.9c-1.01-.96-1.79-2.13-2.26-3.44-.19-.77-.44-1.52-.75-2.25l-.99-2.24c-.68-1.45-1.38-3.08-2.09-4.69-2.9-6.42-5.54-12.21-7.52-16.37-.93-1.95-1.71-3.6-2.37-4.92-.25-.6-.58-1.18-.97-1.7Z"/>
        <path class="cls-3" d="M467.88,311.33c-.15,.2,2.83,2.67,6.66,5.53s7.07,5.02,7.26,4.82c-4.26-3.91-8.91-7.38-13.88-10.35h-.04Z"/>
        <path class="cls-3" d="M483.63,326.71c.25,0,.41-5.46,.68-12.18s.52-12.18,.28-12.19c-.34,1.15-.54,2.34-.57,3.54-.23,2.21-.46,5.24-.6,8.62-.13,3.38-.15,6.43-.09,8.71-.05,1.17,.05,2.35,.29,3.5Z"/>
        <path class="cls-3" d="M521.29,327.64s.38-.1,1.05-.15c.94-.03,1.88,.07,2.8,.29,2.5,.58,5.94,.07,9.62-.26s7.08-.75,9.52-1.07c1.32-.1,2.63-.34,3.9-.71-1.32-.12-2.66-.09-3.98,.09-2.44,.16-5.81,.44-9.54,.81s-7.05,.93-9.44,.52c-.96-.16-1.94-.16-2.9,0-.77,.16-1.07,.44-1.05,.48Z"/>
        <path class="cls-3" d="M535,327.22s.07,0,0-.07-.16-.13-.22,0,.22,.29,.36,.45l1.45,1.02c1.28,.84,3.08,1.93,5.09,3.11,4.04,2.34,7.39,4.05,7.5,3.83s-3.05-2.28-7.07-4.6c-2-1.16-3.85-2.18-5.21-2.9-.62-.33-1.26-.6-1.92-.83Z"/>
        <path class="cls-3" d="M517.78,262.67c1.76-1.05,3.46-2.21,5.07-3.48,3.08-2.24,7.34-5.3,12.12-8.59s9.14-6.18,12.31-8.27c1.77-1.05,3.46-2.22,5.07-3.51-.51,.18-1,.43-1.45,.73-.94,.51-2.26,1.28-3.9,2.25-3.27,1.96-7.71,4.79-12.48,8.09s-9,6.46-11.99,8.81c-1.45,1.18-2.69,2.15-3.5,2.9s-1.28,1.05-1.23,1.09Z"/>
        <path class="cls-3" d="M544.07,243.63c2.37-2.66,3.74-6.06,3.88-9.62-.77,1.55-1.41,3.16-1.92,4.82-1.06,2.63-2.18,4.66-1.96,4.8Z"/>
        <path class="cls-3" d="M529.93,253.63c0,.25,5.81-.86,12.73-2.45,6.92-1.6,12.57-3.08,12.51-3.32-4.29,.54-8.54,1.36-12.72,2.47-4.24,.83-8.43,1.93-12.53,3.31Z"/>
        <path class="cls-3" d="M482.32,259.35c.59-.43,1.14-.91,1.64-1.45,1.03-.96,2.47-2.38,4.24-4.17,3.53-3.56,8.3-8.56,13.43-14.24s9.61-10.94,12.8-14.81c1.58-1.95,2.9-3.53,3.7-4.63,.48-.55,.91-1.15,1.26-1.79-.56,.47-1.07,1-1.52,1.57l-3.92,4.44c-3.31,3.76-7.87,8.96-12.99,14.62s-9.81,10.74-13.22,14.4l-4.02,4.35c-.52,.52-.99,1.09-1.39,1.7Z"/>
        <path class="cls-3" d="M504.41,235.31c1.23-.31,2.42-.75,3.56-1.32,2.15-.93,5.09-2.25,8.32-3.76,3.22-1.51,6.13-2.9,8.22-3.99,1.17-.49,2.27-1.13,3.28-1.89-1.23,.3-2.43,.75-3.56,1.32-2.15,.91-5.08,2.24-8.32,3.76s-6.13,2.9-8.2,3.98c-1.17,.51-2.27,1.14-3.3,1.9Z"/>
        <path class="cls-3" d="M505.17,224.63c-1.29,2.42-2.26,5-2.9,7.66-1.31,4.35-1.99,7.97-1.76,8.03s1.31-3.45,2.61-7.78c1.31-4.33,2.29-7.84,2.05-7.91Z"/>
        <path class="cls-3" d="M423.3,225.67c-.21-.7-.49-1.38-.84-2.02-.6-1.26-1.45-3.08-2.63-5.31-2.28-4.47-5.53-10.58-9.3-17.22s-7.36-12.57-10.04-16.81c-1.34-2.12-2.44-3.82-3.22-4.98-.37-.63-.81-1.21-1.29-1.76,.26,.68,.59,1.33,1,1.93,.78,1.36,1.79,3.09,2.9,5.12,2.54,4.35,6.04,10.28,9.81,16.93,3.77,6.65,7.1,12.69,9.51,17.07,1.15,2.08,2.12,3.8,2.9,5.18,.33,.66,.74,1.28,1.2,1.86Z"/>
        <path class="cls-3" d="M407.42,197.15c.1-1.26,.05-2.54-.15-3.79-.19-2.34-.52-5.54-.94-9.09s-.86-6.74-1.22-9.04c-.11-1.26-.36-2.51-.75-3.72-.1,1.26-.06,2.53,.13,3.79,.2,2.34,.54,5.54,.96,9.09s.86,6.74,1.2,9.04c.1,1.27,.36,2.51,.77,3.72Z"/>
        <path class="cls-3" d="M486.21,189.88c-.25,0-1.03,5.41-2.1,12.11s-2.03,12.09-1.79,12.15c.48-1.11,.82-2.27,1.02-3.47,.51-2.18,1.1-5.18,1.64-8.55,.54-3.37,.91-6.4,1.12-8.62,.2-1.19,.24-2.41,.12-3.61Z"/>
        <path class="cls-3" d="M484.27,203.23c.17,.17,2.35-1.64,4.7-4.22,2.35-2.58,3.98-4.89,3.79-5.05-1.64,1.32-3.13,2.81-4.44,4.46-2.34,2.55-4.22,4.63-4.05,4.82Z"/>
        <path class="cls-3" d="M537.81,277.23c0,.25,5.39-.52,11.92-1.7,3.97-.57,7.9-1.42,11.76-2.55,0-.25-5.39,.51-11.92,1.68s-11.8,2.32-11.76,2.57Z"/>
        <path class="cls-3" d="M379.29,330.91c1.21,.46,2.49,.68,3.77,.65,3.09,.08,6.18-.2,9.2-.86l8.97-1.9c1.26-.16,2.51-.43,3.73-.8-1.28-.13-2.57-.07-3.83,.17-2.34,.29-5.53,.96-9.04,1.65-2.97,.62-5.98,.99-9.01,1.1-2.32,.03-3.77-.17-3.79-.03Z"/>
        <path class="cls-3" d="M381.74,337.01c.2,.13,1.36-1.22,2.58-3.02,1.22-1.8,2.03-3.37,1.83-3.51s-1.35,1.22-2.57,3.02c-.86,1.03-1.48,2.22-1.84,3.51Z"/>
        <path class="cls-1" d="M518.1,46.59l-5.08-3.24-18.04,4.63-50.88,30.06,1.84-12.03-4.17,1.86-3.24,12.03s-15.79,3.76-29.55,7.13c-7.02-.32-13.98,1.44-20,5.05h0c-1.02,.61-11.47-2.48-11.47-2.48l-9.29,5.15v18.65c-6.17,10-10.81,21.06-16.95,31.15-8.3,13.6-31.37,25.71-46.45,44.45-13.33,16.53-19.32,40.64-19.32,40.64-18.97-12.9-30.77-81.77-38.52-92.62l.64-3.66,7.11-13.62-9.68-42.33,.36-13.62-5.88-5.89-13.25-31.64-5.52,4.35,12.88,30.92h-11.77l13.24,5.15,5.53,24.28,5.81,20.97-5.52,17.3-8.1,1.83-7.36-15.08-1.45-25.39-10.25-8.84-5.95,5.24-12.13-3.51-9.94-12.4-5.88-7.36,5.52-10.67,7.72-4.79,6.63-19.13,5.52-9.94,17.67-6.89,.73-5.15-16.55,8.1-9.89,4.01-8.1,26.13s-5.88,3.32-7.36,3.32-8.83,9.19-8.83,9.19l9.2,34.23,24.68,5.89h8.46l1.84,19.52,1.45,15.46,12,14.86c17.19,50.4,15.16,105.36-5.69,154.36l-47.47-46.59-26.23-41.3-18.26-21v-23.7l17.23-12.4,30.83-12.4,25.21,12.93,14.52-1.07-1.61-6.47-12.4,.54s-14.01-9.16-15.63-9.7-13.46-5.39-13.46-5.39c0,0-13.31,4.85-16.17,5.92s-28.52,17.24-28.52,17.24l-10.78,11.86v28.55l-43.63-11.31-8.09,12.92,2.16,9.32,22.6,2.54-10.78,8.62,5.39,6.01,7.01-8.17,20.16,.54,20.7,30.09c29.56,42.99,44.75,94.22,43.42,146.37-.15,5.54-.2,10.41-.15,14.14,1.03,67-32.06,140.8-75.48,191.75l-4.18,56.61H383.21c-17.81-11.25-46.25-35.45-62.55-48.79-13.06-10.67-25.65-22.12-35.17-36-16.75-24.37-22.43-53.71-22.63-83.61l48.38-114.44,10.06-39.74,9.1-14.37,13.88,3.83,.45-.23c1.97,28.76,4.35,57.68,12.56,85.26l3.53-78.54,5.36,11.02c1.76-9.82,2.74-19.77,2.9-29.74l17.87-8.81,35.43,14.43,28.25-20.66,19.16,.48,4.79-4.79h-26.36l-25.39,16.77-36.87-12.93,18.67-14.37,12.93-17.71,19.64-11.02,28.73-40.64-5.27-3.83-25.81,39.69-22.03,13.41-12.25,18.65-55.8,33.52-9.58-.48,9.58-44.53,5.81-5.27v-4.79l-10.54,6.71-9.09,39.26-11.02,10.54-14.37,42.62-36.85,68.08c14.3-87.5,44.18-171.72,88.22-248.66l37.74-29.03,30.87-2.53,10.61-10.58,8.1-6.82-2.77-2.28-11.39,7.26-36.96,6.33-23.05,15.47c11.61-18.71,24.03-36.87,37.26-54.49,13.43-3.95,36.75-11,41.38-15.39,2.34-2.21,9.93-7.26,18.7-12.98,.68,4.35,1.28,8.62,1.86,12.95l10.57,79.94c.79-29.19,1.6-58.37,2.41-87.54l7.95,20.51c2.24-13.72,2.94-27.64,2.1-41.51,5.92-3.66,10.02-6.15,10.02-6.15l15.78-5.54Z"/>
        <path class="cls-1" d="M165.61,505.94l-46.45-12.8s-32.62,9.89-34.71,12.8c-2.09,2.92-31.93,47.39-31.93,47.39l-9.96,33.76,21.47-11.19,6.3-24.68,6.78,18.55,12.05-5.69-6.29-17.58,6.81-22.5,16.75-11.82h12.72l31.77,24.36,14.69-30.61Z"/>
        <path class="cls-3" d="M221.38,392.41c.07,.19,.13,.39,.16,.6,.1,.44,.23,1.02,.39,1.76,.33,1.55,.87,3.83,1.45,6.79,1.16,5.89,2.63,14.52,3.9,25.18,3.25,27.9,3.2,56.09-.16,83.99l-.3,2.44-.45-2.41v-.19c-3.02-16.17-5.81-31.61-7.52-45.78-1.63-12.54-2.3-25.19-2.02-37.83,.2-8.52,1.06-17.01,2.57-25.4,.22-1.45,.54-2.8,.78-3.93s.48-2.08,.67-2.9l.41-1.76c.04-.2,.1-.4,.17-.6,0,.21-.04,.41-.09,.61-.09,.44-.2,1.02-.35,1.77s-.36,1.76-.58,2.9-.52,2.44-.73,3.93c-1.4,8.39-2.18,16.87-2.34,25.37-.2,12.62,.52,25.23,2.18,37.74,1.7,14.14,4.57,29.55,7.58,45.72v.19h-.75c3.35-27.84,3.47-55.97,.38-83.84-1.2-10.68-2.58-19.28-3.66-25.2-.51-2.9-1-5.24-1.28-6.81-.13-.75-.25-1.34-.32-1.77-.05-.19-.09-.38-.1-.58Z"/>
        <polygon class="cls-1" points="293.78 590.31 337.53 599.1 371.87 629.81 444.45 625.56 488.81 644.38 524.65 649.25 530.48 658.73 493.66 658.73 470.58 658.73 450.53 645.6 449.5 658.73 436.18 659.19 437.16 643.17 398.28 648.03 366.41 643.37 345.4 628.96 336.31 612.8 313.23 610.1 293.78 590.31"/>
        <path class="cls-3" d="M223.28,300.88s.16,.9,.42,2.61c.26,1.71,.52,4.27,.7,7.58,.34,9.33-.5,18.66-2.48,27.78-1.32,6.3-2.98,12.54-4.95,18.67-2.12,6.6-4.64,13.59-7.4,20.89-5.46,14.59-11.87,30.58-15.59,48.22-3.71,16.54-4.64,33.58-2.74,50.43,1.62,13.75,5.71,27.08,12.09,39.37,2.46,4.7,5.27,9.21,8.42,13.48,2.4,3.21,4.99,6.27,7.77,9.16,2.31,2.35,4.17,4.12,5.5,5.24s1.97,1.74,1.97,1.74l-2.02-1.7c-1.35-1.1-3.22-2.9-5.54-5.21-2.79-2.88-5.4-5.93-7.81-9.13-3.17-4.27-6-8.78-8.48-13.48-6.41-12.28-10.53-25.62-12.15-39.38-1.92-16.87-1-33.95,2.73-50.51,3.72-17.67,10.16-33.68,15.62-48.26,2.76-7.26,5.3-14.27,7.42-20.87,1.99-6.12,3.65-12.33,4.99-18.62,1.99-9.11,2.86-18.42,2.57-27.74-.16-3.3-.42-5.81-.65-7.56s-.38-2.69-.38-2.69Z"/>
        <path class="cls-3" d="M205.84,525.95l-2.5-2.82c-.81-.93-1.71-2.18-2.9-3.59-.54-.73-1.06-1.55-1.65-2.4s-1.22-1.79-1.8-2.8c-6.81-11.44-11.09-24.2-12.56-37.44-1.13-9.1-1.3-18.29-.52-27.42,.88-10.47,2.45-20.87,4.7-31.14,2.24-10.87,5.18-22.15,7.81-33.94,1.38-5.99,2.21-12.09,2.48-18.23,.23-6.32-.8-12.62-3.02-18.54-2.29-5.97-5.49-11.51-7.1-17.59-1.61-6.08-1-12.41-.1-18.33,.45-2.99,.94-5.94,1.29-8.88,.19-1.45,.26-2.9,.3-4.35l.1-2.18c0-.74,0-1.45-.09-2.18-.23-5.67-1.26-11.28-3.06-16.66-1.75-5.12-4.14-10-7.11-14.52-2.77-4.27-6.08-8.18-9.84-11.61-.87-.85-1.79-1.65-2.76-2.4-.94-.75-1.86-1.54-2.9-2.19l-2.9-1.99-3-1.73c-.98-.57-1.99-1.08-3.03-1.52-1.02-.45-2-.97-3.02-1.36-2.05-.81-4.06-1.45-6.05-2.19-3.81-1.2-7.52-2.72-11.08-4.54-3.17-1.68-5.95-3.99-8.19-6.79-1.92-2.47-3.09-5.45-3.37-8.56-.19-2.6-.19-5.22,0-7.82,.3-4.66,.09-8.39-1.03-10.63-.51-1.14-1.21-2.2-2.08-3.11,0,0,.23,.23,.65,.71,.27,.28,.51,.59,.71,.93,.31,.45,.57,.94,.77,1.45,1.13,2.25,1.45,5.99,1.09,10.67-.16,2.62-.12,5.25,.12,7.87,.28,3.09,1.44,6.03,3.35,8.48,2.22,2.78,5,5.06,8.14,6.72,3.56,1.81,7.25,3.32,11.06,4.51,1.97,.68,4.02,1.45,6.05,2.19,1.03,.38,2.02,.9,3.05,1.36,1.04,.42,2.06,.91,3.05,1.45l3.02,1.73,2.9,2c1.01,.68,1.98,1.41,2.9,2.19,.97,.75,1.9,1.55,2.79,2.4,3.77,3.44,7.09,7.34,9.89,11.61,2.99,4.51,5.4,9.39,7.16,14.52,1.82,5.4,2.86,11.04,3.09,16.74,0,.73,.07,1.45,.07,2.19l-.09,2.19c0,1.45-.12,2.9-.3,4.35-.35,2.9-.84,5.89-1.29,8.88-.9,5.92-1.57,12.18,.1,18.22,1.67,6.04,4.79,11.61,7.08,17.56,2.24,5.95,3.28,12.28,3.05,18.64-.27,6.2-1.11,12.37-2.5,18.42-2.64,11.79-5.59,23.05-7.84,33.92-2.24,10.26-3.82,20.65-4.72,31.11-.79,9.11-.63,18.28,.48,27.36,1.45,13.2,5.69,25.93,12.44,37.36,.58,1.02,1.19,1.95,1.79,2.8s1.1,1.67,1.64,2.4c1.12,1.45,2,2.67,2.82,3.6l2.45,2.9Z"/>
        <path class="cls-3" d="M289.69,269.38l1.18-.96c1.08-1,2.06-2.12,2.9-3.32,1.36-2.03,2.34-4.29,2.9-6.66,.79-3.29,.67-6.73-.35-9.96h.1c-9.07,8.09-15.19,18.97-17.42,30.92-.67,2.94-.67,6,0,8.94,.34,1.53,1.06,2.95,2.09,4.14,1.1,1.18,2.64,1.87,4.25,1.92,1.66,0,3.27-.57,4.57-1.61,1.34-1.05,2.53-2.28,3.51-3.67,1.02-1.42,1.94-2.91,2.74-4.47,.86-1.55,1.71-3.14,2.58-4.73l5.34-9.77c3.63-6.67,7.41-13.59,11.34-20.76l5.97-10.94c2.02-3.7,4.14-7.45,5.89-11.41,1.91-3.97,2.86-8.34,2.79-12.74-.1-4.54-2.23-8.8-5.81-11.61h.2c-6.69,12.25-16.13,22.78-27.58,30.77-5.81,4.19-12.53,7.26-19.03,10.78-3.29,1.71-6.45,3.65-9.46,5.81-3.03,2.22-5.68,4.91-7.85,7.97-2.54,3.9-4.43,8.19-5.6,12.7-1.28,4.46-2.41,8.93-3.9,13.27-2.9,8.71-6.56,16.94-9.93,25.13-3.44,7.99-6.23,16.24-8.33,24.68-2.03,8.08-2.6,16.47-1.67,24.75,1,8.09,4.14,15.49,7.26,22.51,1.57,3.53,3.14,6.98,4.54,10.45l1.93,5.23c.32,.87,.65,1.71,.94,2.58l.78,2.61c.52,1.73,1.03,3.45,1.54,5.15s.84,3.45,1.25,5.15l.61,2.53c.16,.86,.3,1.7,.46,2.54,.32,1.68,.62,3.35,.93,5.01,.46,3.34,.96,6.59,1.28,9.8s.65,6.34,.74,9.42c.55,11.06,.44,22.15-.35,33.2-.64,9.77-1.57,18.13-2.38,24.97-1.64,13.67-2.73,21.21-2.73,21.21,0-.49,.25-2.06,.68-5.49,.44-3.43,1.16-8.9,1.93-15.73,.77-6.84,1.7-15.2,2.32-24.95,.77-11.04,.88-22.13,.32-33.18-.1-3.08-.49-6.21-.75-9.42-.26-3.21-.83-6.44-1.29-9.77-.3-1.65-.61-3.32-.93-5.01-.16-.84-.32-1.68-.46-2.53l-.62-2.54c-.41-1.68-.81-3.4-1.23-5.12-.42-1.73-1.03-3.43-1.54-5.15-.26-.87-.54-1.73-.8-2.6s-.62-1.73-.94-2.58c-.62-1.73-1.28-3.47-1.92-5.21-1.45-3.47-2.99-6.92-4.56-10.44-3.11-7.03-6.27-14.52-7.26-22.59-.94-8.32-.38-16.74,1.67-24.86,2.1-8.44,4.89-16.69,8.33-24.68,3.37-8.19,7-16.45,9.93-25.11,1.45-4.35,2.6-8.78,3.89-13.24,1.18-4.54,3.08-8.87,5.63-12.8,2.2-3.08,4.88-5.79,7.94-8.03,3.01-2.2,6.19-4.17,9.49-5.89,6.52-3.47,13.15-6.59,19.02-10.77,11.45-7.95,20.89-18.45,27.58-30.67v-.15l.13,.1c3.61,2.9,5.74,7.26,5.81,11.89,.05,4.43-.93,8.81-2.86,12.79-1.76,3.99-3.88,7.74-5.89,11.44-2.02,3.7-4.02,7.36-5.98,10.94l-11.35,20.74-5.34,9.77-2.58,4.73c-.81,1.56-1.74,3.06-2.77,4.49-1.01,1.4-2.2,2.66-3.56,3.73-1.34,1.05-3,1.63-4.7,1.63-1.66-.05-3.23-.77-4.35-1.99-1.05-1.21-1.79-2.66-2.13-4.22-.68-2.97-.68-6.06,0-9.03,.52-2.78,1.27-5.52,2.22-8.19,3.12-8.76,8.4-16.59,15.34-22.77h0v.09c1.01,3.25,1.12,6.71,.32,10.02-.55,2.39-1.53,4.65-2.9,6.68-.84,1.22-1.81,2.33-2.9,3.32l-1.15,.87Z"/>
      </g>
      <path class="cls-2" d="M212.76,81.14c.85-6.07-7.72-11.05-14.15-11.58-3.07-.25-6.26,.22-9.17-.79-6.29-2.19-8.76-10.34-14.95-12.92-4.6-1.94-9.89-.22-14.34,2.03s-8.85,5.07-13.83,5.37c-4.38,.28-9.02-1.33-12.82,.79-2.85,1.56-4.31,4.83-6.89,6.75-2.58,1.91-5.84,2.28-9.02,2.45-3.16-.1-6.32,.39-9.3,1.46-2.92,1.31-5.24,4.38-4.66,7.46l109.14-1.02Z"/>
      <path class="cls-2" d="M230.53,325.05c1.06-5.11-9.71-9.31-17.79-9.75-3.87-.21-7.87,.19-11.53-.66-7.91-1.85-11.07-8.7-18.8-10.88-5.77-1.61-12.42-.18-18.07,1.71-5.65,1.89-11.13,4.26-17.38,4.53-5.44,.23-11.35-1.11-16.11,.66-3.61,1.33-5.41,4.03-8.69,5.65-3.28,1.61-7.37,1.92-11.34,2.07-3.96,.15-8.08,.17-11.7,1.27-3.61,1.11-6.6,3.67-5.85,6.29l137.25-.88Z"/>
    </g>
  </g>
</svg>