<?xml version="1.0" encoding="UTF-8"?>
<svg id="Camada_2" data-name="Camada 2" xmlns="http://www.w3.org/2000/svg" viewBox="0 0 97.48 211.49">
  <defs>
    <style>
      .cls-1 {
        fill: #455a64;
      }

      .cls-2 {
        fill: #263238;
      }
    </style>
  </defs>
  <g id="Camada_1-2" data-name="Camada 1">
    <g id="freepik--Grave--inject-6">
      <path class="cls-1" d="M0,211.49l11.13-63.87,5.54,.46,.46-6c4.03-1.51,7.77-3.7,11.07-6.46,3.86-2.98,8.26-5.17,12.97-6.44l6-52.15-23.08-3.69,3.69-21.23,23.75,2.03,2.55-21.41,21.83,1.06-1.99,22.03,23.54,2.76-2.31,24.46-24.82-2.87-6.89,51.45c3.96,1.28,7.33,3.94,9.5,7.49,2.55,3.84,6.06,6.94,10.18,9l.92,8.77,6,2.76-2.34,51.51-87.72,.33Z"/>
      <path class="cls-2" d="M56.03,152.54s0,.19,.05,.61l.13,1.83c.12,1.68,.27,4.03,.47,6.99,.4,6.09,.95,14.64,1.6,24.62v.35l-.34-.08-18.8-4.31-13.02-3.01-.51-.12,.39-.34c8.64-7.67,16.15-14.34,21.55-19.11,2.63-2.32,4.74-4.22,6.24-5.5l1.66-1.46c.18-.17,.36-.33,.56-.47l-.16,.16-.44,.4-1.68,1.54-6.2,5.67c-5.28,4.79-12.66,11.47-21.16,19.17l-.13-.46,13.03,2.99,18.79,4.35-.32,.26c-.52-9.9-.96-18.36-1.29-24.41-.15-3-.26-5.38-.35-7.07,0-.8-.06-1.44-.08-1.91-.01-.23-.01-.46,0-.69Z"/>
      <path class="cls-2" d="M41.19,192.78s-.06-.19-.17-.6-.28-1.06-.49-1.8c-.43-1.65-1.06-3.97-1.8-6.88l-6.27-24.27-.11-.41,.41,.09,19.12,4.22,16.45,3.65,.49,.11-.36,.34-19.64,18.44-5.65,5.28-1.46,1.38-.51,.45,.53-.54,1.51-1.47,5.6-5.4c4.78-4.59,11.48-11.03,19.28-18.5l.13,.44-16.47-3.62-19.1-4.22,.3-.31c2.42,9.77,4.47,18.13,5.94,24.09,.72,2.95,1.29,5.28,1.7,6.99,.18,.79,.34,1.41,.44,1.88,.05,.22,.09,.43,.12,.65Z"/>
      <path class="cls-2" d="M61.33,181.58c.67-1.21,1.25-2.47,1.73-3.77,.52-1.53,.82-3.13,.87-4.75,.1-2.15-.23-4.3-.96-6.33-1.89-5.33-6.35-9.34-11.86-10.64-1.55-.38-3.15-.52-4.75-.42-.83,.05-1.65,.15-2.46,.31-.82,.18-1.63,.42-2.42,.72-6.81,2.5-11.19,9.14-10.8,16.39,.04,.84,.14,1.68,.3,2.5,.17,.81,.4,1.6,.69,2.37,.53,1.52,1.29,2.94,2.26,4.22,4.77,6.41,13.4,8.55,20.62,5.12,1.47-.69,2.82-1.59,4.02-2.68,1-.95,1.93-1.98,2.78-3.07,0,0,0,.08-.14,.24s-.27,.39-.45,.66c-.24,.37-.51,.72-.8,1.06-.38,.46-.8,.89-1.25,1.29-1.19,1.14-2.55,2.08-4.03,2.8-1.96,.97-4.09,1.55-6.27,1.7-2.63,.2-5.27-.23-7.71-1.23-2.82-1.18-5.28-3.09-7.11-5.54-1-1.32-1.79-2.78-2.35-4.34-.29-.8-.53-1.62-.72-2.45-.16-.85-.26-1.72-.31-2.59-.39-7.47,4.13-14.32,11.15-16.88,.82-.3,1.65-.53,2.5-.71,.84-.16,1.68-.27,2.53-.31,1.65-.11,3.3,.05,4.9,.45,7.97,1.91,13.45,9.24,13.02,17.43-.08,1.64-.41,3.26-.98,4.8-.19,.57-.43,1.12-.71,1.65-.18,.4-.39,.78-.62,1.15-.18,.27-.33,.5-.43,.68s-.21,.18-.22,.17Z"/>
      <path class="cls-2" d="M64.55,180.41s-.11,.3-.4,.77c-.17,.3-.36,.58-.56,.85-.23,.33-.49,.7-.8,1.06-.73,.92-1.53,1.78-2.37,2.6-.49,.45-.99,.94-1.56,1.38s-1.16,.91-1.77,1.35-1.27,.84-1.89,1.19-1.26,.68-1.85,.98c-1.05,.51-2.14,.95-3.26,1.31-.47,.17-.92,.27-1.3,.38s-.72,.17-.99,.22c-.28,.09-.57,.12-.87,.11,.25-.15,.53-.25,.81-.32l.96-.31c.37-.14,.79-.26,1.26-.45,1.08-.41,2.14-.87,3.17-1.39,.58-.31,1.19-.61,1.79-.99s1.22-.76,1.85-1.18,1.2-.87,1.75-1.32,1.06-.9,1.55-1.33c.85-.78,1.66-1.61,2.42-2.48,.34-.36,.61-.72,.87-1.06l.63-.79c.34-.37,.54-.6,.57-.58Z"/>
      <path class="cls-2" d="M26.46,170.85c-.38-1.47-.42-3.01-.12-4.5,.13-1.51,.59-2.97,1.34-4.28,.16,.06-.46,1.95-.79,4.37s-.27,4.39-.43,4.41Z"/>
      <path class="cls-2" d="M25.22,173.94c-.54-1.39-.84-2.87-.89-4.37-.22-1.48-.2-2.99,.06-4.46,.28,1.46,.44,2.93,.49,4.41,.22,1.46,.34,2.94,.34,4.42Z"/>
      <path class="cls-2" d="M58.02,131.08s0-.34,.12-1,.22-1.65,.39-2.92c.35-2.57,.87-6.33,1.53-11.18,1.37-9.71,3.33-23.67,5.74-40.79v-.21h.21l24.6,3.64-.27,.2c.89-5.03,1.84-10.4,2.81-15.92l.23,.31-25.11-1.06h-.3v-.3c1.25-8.44,2.55-17.18,3.89-26.15l.26,.32h-16.38l.27-.25c-.75,8.16-1.48,16.12-2.18,23.85v.27h-.27l-23.21-3,.28-.21c-.68,4.72-1.34,9.26-1.97,13.72l-.2-.27,25.05,4.22h.21v.2c-2.37,16.88-4.31,30.66-5.65,40.22-.69,4.76-1.21,8.44-1.57,10.99-.19,1.25-.34,2.19-.43,2.86s-.17,.98-.17,.98c0,0,0-.34,.11-.99s.21-1.61,.37-2.87l1.47-11.01c1.3-9.56,3.17-23.33,5.46-40.25l.18,.24-25.06-4.17h-.23v-.23c.63-4.41,1.27-8.98,1.94-13.72v-.25h.24l23.21,2.98-.24,.22c.7-7.74,1.41-15.69,2.11-23.86v-.24h17.01v.31l-3.9,26.16-.25-.31,25.13,1.11h.28v.3c-.98,5.52-1.93,10.88-2.82,15.91v.23h-.23l-24.67-3.72,.23-.18c-2.48,17.1-4.51,31.06-5.91,40.76-.72,4.83-1.28,8.6-1.66,11.17-.19,1.27-.34,2.24-.44,2.91-.13,.65-.2,.99-.2,.99Z"/>
      <path class="cls-2" d="M83.42,211.41v-.9c0-.59,.07-1.49,.14-2.61,.15-2.31,.36-5.67,.61-9.94,.57-8.59,1.37-20.84,2.34-35.61l.12,.22-7.39-4.08-.13-.06v-9.12l.18,.25c-1.38-.57-2.66-1.36-3.8-2.33-1.17-.93-2.29-1.93-3.41-2.94-2.25-2.03-4.47-4.16-6.9-6.12-1.2-1.01-2.49-1.91-3.85-2.69-1.39-.76-2.86-1.38-4.37-1.86-3.1-.99-6.35-1.4-9.59-1.21-1.3,.09-2.58,.33-3.82,.73-1.21,.43-2.4,1.06-3.57,1.56-2.34,1.12-4.65,2.27-6.93,3.41-4.54,2.29-8.96,4.55-13.22,6.74l.15-.19c-.38,2.69-.75,5.32-1.12,7.9v.22h-6.01l.24-.21c-3.09,17.42-5.7,32.13-7.53,42.51-.94,5.16-1.68,9.24-2.18,12.06-.26,1.38-.46,2.45-.6,3.17-.06,.34-.12,.62-.16,.82-.01,.09-.04,.19-.07,.27-.01-.09-.01-.19,0-.28l.13-.82c.12-.75,.3-1.81,.52-3.17,.47-2.82,1.17-6.91,2.05-12.08l7.39-42.54v-.2h6l-.25,.22c.36-2.59,.71-5.23,1.06-7.91v-.14l.13-.06c4.22-2.21,8.66-4.47,13.21-6.76,2.28-1.14,4.59-2.29,6.94-3.42,1.18-.55,2.35-1.13,3.62-1.58,1.28-.42,2.61-.67,3.96-.76,3.31-.2,6.63,.22,9.79,1.23,1.55,.49,3.06,1.13,4.48,1.91,1.38,.8,2.69,1.72,3.91,2.74,2.55,1.95,4.75,4.06,7.02,6.17,1.13,1.06,2.23,2.02,3.39,2.92,1.08,.94,2.31,1.69,3.63,2.25l.18,.06v9.15l-.13-.21,7.33,4.09,.14,.07v.15c-1.06,14.77-1.92,27.02-2.53,35.6-.32,4.22-.57,7.62-.74,9.93-.09,1.12-.17,1.99-.21,2.61s-.13,.83-.13,.83Z"/>
      <path class="cls-2" d="M60.48,5.93c-2.37,.53-4.58,1.62-6.46,3.17-2.49,2.32-10.61,13.11-10.61,13.11h2.11s-7.8,8.79-7.8,10.94c-.09,1.17,.69,2.22,1.83,2.49,0,0-.66,4.15,1.33,2.32,0,0-9.78,9.78-8.79,10.61s2.66,0,2.66,0l-2.73,6.13s2.11,2.66,4.05,1.66l4.32-1.49s-.83,1.94,.82,1.72,12.78-17.3,12.78-17.3c0,0,5.96-1,9.5-4.32s9.95-19.4,10.78-22.05c.55-2.28,.82-4.62,.82-6.96,0,0-.5-4.64-3.48-5.48s-5.97-1.35-11.12,5.46Z"/>
      <path class="cls-2" d="M73.07,2.92c3.14-.89,6.5-.51,9.37,1.06-3.12,1.27-6.16,2.7-9.13,4.29"/>
    </g>
  </g>
</svg>