<?xml version="1.0" encoding="UTF-8"?>
<svg id="Camada_2" data-name="Camada 2" xmlns="http://www.w3.org/2000/svg" viewBox="0 0 254.68 178.8">
  <defs>
    <style>
      .cls-1 {
        fill: #263238;
      }
    </style>
  </defs>
  <g id="Camada_1-2" data-name="Camada 1">
    <g id="freepik--Bats--inject-6">
      <path class="cls-1" d="M0,0S21.98,2.67,23.67,14.06l3.31-3.42-.16,4.07,3.69,1.03s2.3-4.39,2.1-3.58c.04,1.44,.24,2.88,.6,4.28,0,0,10.76-7.4,24.68,2.27,0,0-9.59-4.23-13.21,3.69,0,0-6.2-4.73-8.88,2.13-3.05-.22-5.83,1.72-6.67,4.65-.83-1.55-1.76-3.05-2.79-4.48-1.78,.65-3.51,1.47-5.14,2.43,0,0,2.32-6.44-3.66-7.98,0,0,3.36-6.94-6.71-7.34,.06,0,4.54-5.74-10.82-11.8Z"/>
      <path class="cls-1" d="M199.17,72.39s18.08-12.76,27.03-5.49l.16-4.73,2.62,3.16,3.42-1.72s-1.23-4.73-.84-4.06c.99,1.04,2.1,1.97,3.3,2.76,0,0,3.09-12.76,19.82-14.85,0,0-9.94,3.3-7.31,11.6,0,0-7.76,.65-5.16,7.54-2.39,1.87-3.15,5.16-1.83,7.89-1.65-.59-3.35-1.07-5.06-1.44-.39,0-2.19,5.24-2.19,5.24,0,0-2.6-6.31-8.08-3.46,0,0-2.16-7.4-9.88-.95,0-.05-.54-7.31-16-1.5Z"/>
      <path class="cls-1" d="M129.38,121.34s33.99-6.04,37.02,34.52l3.16-14.01,2.15,8.9,3.23-9.47,.95,17.67s4.83-34.71,34.93-35.55c0,0-16.76,7.26-11.47,23.94,0,0-10.18,.99-13.33,15.01-7.3,2.97-12.94,8.98-15.45,16.46,0,0-3.52-20.42-19.98-20.84,0,0,7.65-15.98-7.32-21.79,.02-.05-.28-10.24-13.89-14.83Z"/>
    </g>
  </g>
</svg>