<?xml version="1.0" encoding="UTF-8"?>
<svg id="Camada_2" data-name="Camada 2" xmlns="http://www.w3.org/2000/svg" viewBox="0 0 155.62 38.66">
  <defs>
    <style>
      .cls-1 {
        fill: #ebebeb;
        opacity: .8;
      }
    </style>
  </defs>
  <g id="Camada_1-2" data-name="Camada 1">
    <path class="cls-1" d="M155.54,37.18c1.2-8.63-10.99-15.74-20.15-16.48-4.38-.35-8.91,.31-13.05-1.12-8.96-3.12-12.53-14.7-21.29-18.4-6.53-2.73-14.06-.3-20.46,2.89-6.4,3.19-12.6,7.2-19.68,7.65-6.17,.4-12.85-1.88-18.24,1.12-4.09,2.25-6.12,6.82-9.83,9.55-3.71,2.73-8.35,3.25-12.83,3.49s-9.15,.29-13.24,2.16C2.67,29.91-.72,34.24,.13,38.66l155.41-1.49Z"/>
  </g>
</svg>