<?xml version="1.0" encoding="UTF-8"?>
<svg id="Camada_2" data-name="Camada 2" xmlns="http://www.w3.org/2000/svg" viewBox="0 0 137.44 27.87">
  <defs>
    <style>
      .cls-1 {
        fill: #ebebeb;
        opacity: .8;
      }
    </style>
  </defs>
  <g id="Camada_1-2" data-name="Camada 1">
    <path class="cls-1" d="M137.37,26.8c1.06-6.22-9.71-11.35-17.79-11.88-3.87-.26-7.87,.23-11.53-.81-7.91-2.25-11.07-10.6-18.8-13.26-5.77-1.97-12.42-.22-18.07,2.08-5.65,2.3-11.13,5.19-17.38,5.52-5.44,.29-11.35-1.36-16.11,.81-3.61,1.62-5.41,4.92-8.69,6.88-3.28,1.97-7.37,2.34-11.34,2.52-3.96,.18-8.08,.21-11.7,1.55C2.36,21.56-.63,24.69,.12,27.87l137.25-1.07Z"/>
  </g>
</svg>