<?xml version="1.0" encoding="UTF-8"?>
<svg id="Camada_2" data-name="Camada 2" xmlns="http://www.w3.org/2000/svg" viewBox="0 0 325.59 120.54">
  <defs>
    <style>
      .cls-1 {
        font-family: Labrada-Bold, Labrada;
      }

      .cls-1, .cls-2 {
        font-size: 51.52px;
      }

      .cls-1, .cls-2, .cls-3, .cls-4 {
        fill: #a66891;
      }

      .cls-2 {
        font-family: Labrada-MediumItalic, Labrada;
      }

      .cls-3 {
        stroke: #a66891;
        stroke-miterlimit: 10;
        stroke-width: 7px;
      }

      .cls-5 {
        letter-spacing: -.02em;
      }

      .cls-6 {
        letter-spacing: -.07em;
      }
    </style>
  </defs>
  <g id="Camada_2-2" data-name="Camada 2">
    <g>
      <g>
        <path class="cls-4" d="M184.69,54.41l13.68-30.78c2-4.5,5.27-8.31,9.42-10.95L227.01,.38C227.4,.13,227.86,0,228.32,0c1.33-.01,2.42,1.07,2.42,2.42v.21c0,.34-.07,.67-.18,.98l-7.82,19.52c-.25,.61-.37,1.27-.37,1.92,0,.72,.16,1.44,.44,2.11l12.11,27.25h-27.09l1.54-4.63,5.28-1.77c.85-.29,1.43-1.09,1.43-1.99s-.58-1.7-1.43-1.99l-5.28-1.77-1.77-5.28c-.29-.84-1.09-1.41-1.99-1.41s-1.7,.58-1.99,1.43l-1.77,5.28-5.28,1.77c-.85,.29-1.43,1.09-1.43,1.99s.58,1.7,1.43,1.99l5.28,1.77,1.54,4.62h-18.72Zm28.2-35.91c-.14-.43-.54-.72-.99-.72s-.85,.29-.99,.72l-.88,2.64-2.64,.88c-.43,.14-.72,.54-.72,.99s.29,.85,.72,.99l2.64,.88,.88,2.64c.14,.43,.54,.72,.99,.72s.85-.29,.99-.72l.88-2.64,2.64-.88c.43-.14,.72-.54,.72-.99s-.29-.85-.72-.99l-2.64-.88-.88-2.64Zm-32.39,40.09h58.61c2.32,0,4.19,1.87,4.19,4.19s-1.87,4.19-4.19,4.19h-58.61c-2.32,0-4.19-1.87-4.19-4.19s1.87-4.19,4.19-4.19Z"/>
        <g>
          <text class="cls-1" transform="translate(0 70.08)"><tspan x="0" y="0">Witc</tspan><tspan class="cls-5" x="109.69" y="0">h</tspan><tspan class="cls-6" x="140.14" y="0">’</tspan><tspan x="146.94" y="0">s</tspan></text>
          <text class="cls-2" transform="translate(126.98 103.59)"><tspan x="0" y="0">house</tspan></text>
          <path class="cls-4" d="M38.58,68.96c3.64-.36,7.32-.36,10.96,.01,.08,0,.19,0,.21-.07s-.15-.1-.11-.03"/>
          <path class="cls-4" d="M49.73,69.13l-3.25-.14c.8-.06,1.67-.12,2.36,.31-.28,.21-.66,.15-1,.09-3.28-.6-6.65-.71-9.96-.32"/>
          <path class="cls-4" d="M57.58,67.37l-3.09,.66c.24-.08,.48-.17,.72-.25-.94,.13-1.87,.26-2.81,.38,.25-.02,.51-.04,.76-.06-1.25,.14-2.5,.27-3.75,.41,.57-.09,1.14-.17,1.7-.26-1.31,.1-2.62,.2-3.93,.3,.67-.05,1.35-.1,2.02-.15-1.42,.05-2.84,0-4.25-.14,.8,.02,1.6,.04,2.41,.07-1.34-.05-2.69-.11-4.03-.15,.73,.12,1.48,.14,2.21,.08-1.43-.07-2.85-.14-4.28-.21,.82,0,1.64,0,2.46,0-1.38-.02-2.77-.04-4.15-.06,.65,0,1.31,0,1.96,0-1.01-.04-2.02-.08-3.04-.12,.18,.03,.37,.06,.55,.08"/>
          <path class="cls-4" d="M38.6,66.77c.66,.19,1.3,.42,1.94,.66-.83-.13-1.64-.39-2.38-.77,.94,.34,1.87,.68,2.81,1.02-.64-.39-1.38-.62-2.13-.65,1.27,.43,2.57,.76,3.88,1-1.2-.21-2.38-.53-3.52-.96,.59,.17,1.16,.42,1.7,.72-.72-.4-1.41-.87-2.05-1.39,.41,.35,.86,.64,1.34,.88-.37-.33-.74-.65-1.1-.98,.26,.23,.52,.46,.78,.69-.18-.34-.4-.65-.66-.94,.22,.37,.49,.71,.81,1-.17-.42-.45-.8-.81-1.08,.65,.99,1.71,1.7,2.87,1.94-.58-.08-1.15-.27-1.67-.55,1,.36,2.03,.61,3.08,.75-.55-.2-1.12-.35-1.7-.42,1.48,.25,2.97,.44,4.47,.56-.99-.08-1.97-.22-2.94-.42,1.47,.14,2.93,.28,4.4,.42-.49-.08-.97-.17-1.46-.25,1.66,.12,3.32,.24,4.98,.36-1.1-.13-2.21-.26-3.31-.4,2,.22,4.01,.31,6.02,.26-1.1-.05-2.19-.11-3.29-.16,1.8,0,3.61-.11,5.4-.34-.63-.06-1.27-.03-1.88,.1,.73-.06,1.47-.13,2.2-.19-.36-.05-.72-.1-1.08-.15,.25,.06,.5,.12,.75,.17-5.55,.52-11.21-.07-16.53-1.73"/>
          <path class="cls-4" d="M55.48,67.72l-1.47-.23c.45,.16,.94,.23,1.42,.2-1.27-.24-2.56-.35-3.86-.33l1.82,.34c-1.87-.26-3.75-.47-5.63-.62l1.99,.36c-1.8-.32-3.6-.64-5.41-.97l2.39,.36c-1.41-.22-2.81-.51-4.19-.88,.35,.05,.7,.15,1.03,.29-1.34-.54-2.67-1.07-4.01-1.61,.46,.2,.93,.4,1.39,.6,.12,.05,.27,0,.38,.08s-.13,.25-.1,.12"/>
          <path class="cls-4" d="M42.3,66.49c-1.04-.4-1.85-1.34-2.1-2.42,.38,1.08,.95,2.1,1.68,2.98-1.15-1.32-1.8-3.07-1.79-4.82-.03,1.91,.99,3.8,2.6,4.83-1.28-1.54-1.87-3.63-1.59-5.61,0,2.2,1.31,4.36,3.25,5.39-2.37-1.72-3.29-5.17-2.1-7.85"/>
          <path class="cls-4" d="M49.18,67.14c-1.61,.3-5.02-1.81-5.89-3.43-1.4-2.58-.1-6.04,.72-8.67,1-3.19,2.29-6.32,3.57-9.35,.67-1.59,1.2-3.26,1.82-4.87,.35-.91,1.86-4.43,1.34-3.43"/>
        </g>
      </g>
      <rect class="cls-3" x="16.79" y="88.45" width="100" height="1" rx=".5" ry=".5"/>
    </g>
  </g>
</svg>